<?xml version="1.0"?>
<svg xmlns="http://www.w3.org/2000/svg" version="1.2" baseProfile="tiny" width="800" height="299" viewBox="0 0 800 299" stroke-linecap="round" stroke-linejoin="round">
<g id="ne_10m_airports">
<circle cx="566.4937" cy="107.7428"/>
<circle cx="566.4396" cy="137.5271"/>
<circle cx="587.5883" cy="124.7073"/>
<circle cx="505.2133" cy="106.633"/>
<circle cx="571.5838" cy="118.0235"/>
<circle cx="492.2049" cy="143.9911"/>
<circle cx="566.1608" cy="126.036"/>
<circle cx="561.6595" cy="132.2558"/>
<circle cx="568.3959" cy="108.1474"/>
<circle cx="565.2297" cy="132.4781"/>
<circle cx="559.8065" cy="106.5888"/>
<circle cx="560.5464" cy="53.45"/>
<circle cx="581.6056" cy="53.3331"/>
<circle cx="474.9328" cy="69.405"/>
<circle cx="623.8994" cy="176.1755"/>
<circle cx="722.5369" cy="145.3052"/>
<circle cx="560.7539" cy="39.0758"/>
<circle cx="572.6913" cy="152.9881"/>
<circle cx="537.3756" cy="118.6917"/>
<circle cx="546.2057" cy="109.097"/>
<circle cx="532.5848" cy="110.8396"/>
<circle cx="649.2693" cy="195.0812"/>
<circle cx="583.595" cy="57.0405"/>
<circle cx="566.0464" cy="106.4308"/>
<circle cx="574.3647" cy="113.2122"/>
<circle cx="559.9061" cy="101.6372"/>
<circle cx="682.5659" cy="94.5191"/>
<circle cx="681.023" cy="98.082"/>
<circle cx="685.137" cy="96.3705"/>
<circle cx="686.7544" cy="97.062"/>
<circle cx="632.2987" cy="189.0288"/>
<circle cx="579.4989" cy="119.9197"/>
<circle cx="533.9621" cy="52.684"/>
<circle cx="666.1565" cy="125.5339"/>
<circle cx="667.1045" cy="122.5702"/>
<circle cx="405.414" cy="60.2256"/>
<circle cx="483.7692" cy="60.5331"/>
<circle cx="388.9904" cy="57.1014"/>
<circle cx="582.8587" cy="137.2962"/>
<circle cx="664.6609" cy="188.6152"/>
<circle cx="3.6295" cy="219.08"/>
<circle cx="391.5765" cy="53.2711"/>
<circle cx="199.8275" cy="141.7617"/>
<circle cx="484.836" cy="121.945"/>
<circle cx="228.706" cy="74.3372"/>
<circle cx="442.9426" cy="51.1671"/>
<circle cx="566.1422" cy="116.817"/>
<circle cx="589.5001" cy="125.8386"/>
<circle cx="461.9674" cy="86.5611"/>
<circle cx="474.9218" cy="93.9263"/>
<circle cx="52.0108" cy="47.1645"/>
<circle cx="166.3746" cy="97.9054"/>
<circle cx="696.9953" cy="230.827"/>
<circle cx="563.9039" cy="105.8139"/>
<circle cx="588.6993" cy="131.6102"/>
<circle cx="30.9458" cy="40.3402"/>
<circle cx="230.6154" cy="161.1693"/>
<circle cx="200.0507" cy="101.6361"/>
<circle cx="714.0383" cy="249.2878"/>
<circle cx="150.989" cy="74.066"/>
<circle cx="168.5094" cy="71.8782"/>
<circle cx="166.8849" cy="129.9589"/>
<circle cx="408.0486" cy="162.9948"/>
<circle cx="457.3989" cy="81.3552"/>
<circle cx="415.2153" cy="57.7412"/>
<circle cx="239.2294" cy="154.5985"/>
<circle cx="175.9993" cy="118.8775"/>
<circle cx="389.3232" cy="61.4932"/>
<circle cx="190.1314" cy="108.4584"/>
<circle cx="434.165" cy="68.7371"/>
<circle cx="230.6736" cy="77.0714"/>
<circle cx="212.7595" cy="100.7976"/>
<circle cx="566.48" cy="152.1341"/>
<circle cx="613.4994" cy="204.6644"/>
<circle cx="440.279" cy="88.0223"/>
<circle cx="678.4998" cy="78.1438"/>
<circle cx="215.1747" cy="103.1616"/>
<circle cx="568.9301" cy="152.3805"/>
<circle cx="448.7746" cy="71.8612"/>
<circle cx="220.111" cy="128.9706"/>
<circle cx="155.6565" cy="80.6118"/>
<circle cx="666.9245" cy="143.0173"/>
<circle cx="211.6626" cy="90.8063"/>
<circle cx="429.3623" cy="92.8343"/>
<circle cx="196.5106" cy="135.5429"/>
<circle cx="387.9072" cy="61.4654"/>
<circle cx="215.5294" cy="132.8777"/>
<circle cx="199.6497" cy="131.0271"/>
<circle cx="205.7529" cy="87.364"/>
<circle cx="730.0269" cy="249.7825"/>
<circle cx="221.9167" cy="89.7182"/>
<circle cx="160.0045" cy="122.8865"/>
<circle cx="474.4645" cy="68.2917"/>
<circle cx="480.4346" cy="68.9638"/>
<circle cx="268.1846" cy="252.3509"/>
<circle cx="387.8516" cy="51.2184"/>
<circle cx="250.0823" cy="135.6827"/>
<circle cx="134.6621" cy="85.2727"/>
<circle cx="132.8395" cy="105.6092"/>
<circle cx="379.0536" cy="37.449"/>
<circle cx="177.3648" cy="71.5523"/>
<circle cx="125.8033" cy="94.4114"/>
<circle cx="143.9224" cy="98.0844"/>
<circle cx="193.0117" cy="139.1271"/>
<circle cx="177.5766" cy="79.0736"/>
<circle cx="130.72" cy="69.963"/>
<circle cx="224.5533" cy="124.1529"/>
<circle cx="383.3868" cy="95.8045"/>
<circle cx="202.8046" cy="80.6397"/>
<circle cx="215.401" cy="95.9078"/>
<circle cx="144.6386" cy="70.2856"/>
<circle cx="479.8243" cy="94.0161"/>
<circle cx="564.5326" cy="142.631"/>
<circle cx="621.5283" cy="161.6003"/>
<circle cx="659.6128" cy="105.6495"/>
<circle cx="471.5665" cy="116.008"/>
<circle cx="477.1407" cy="64.792"/>
<circle cx="199.9999" cy="99.1893"/>
<circle cx="404.3779" cy="160.6454"/>
<circle cx="176.0061" cy="92.4225"/>
<circle cx="219.964" cy="100.0486"/>
<circle cx="405.5514" cy="158.2243"/>
<circle cx="185.0839" cy="67.8449"/>
<circle cx="386.2767" cy="47.6354"/>
<circle cx="135.1451" cy="103.2755"/>
<circle cx="563.9831" cy="103.6199"/>
<circle cx="571.2999" cy="155.0672"/>
<circle cx="559.9478" cy="118.0724"/>
<circle cx="575.7312" cy="125.0073"/>
<circle cx="478.9041" cy="184.9342"/>
<circle cx="411.9258" cy="153.1362"/>
<circle cx="446.0525" cy="190.5098"/>
<circle cx="391.8417" cy="162.0997"/>
<circle cx="234.4447" cy="251.426"/>
<circle cx="576.4266" cy="117.6781"/>
<circle cx="44.0039" cy="132.7713"/>
<circle cx="388.8941" cy="44.4488"/>
<circle cx="566.2536" cy="120.5505"/>
<circle cx="468.7931" cy="91.6769"/>
<circle cx="204.902" cy="91.5566"/>
<circle cx="36.5534" cy="127.7242"/>
<circle cx="187.7355" cy="99.0089"/>
<circle cx="149.7599" cy="119.368"/>
<circle cx="166.916" cy="116.5148"/>
<circle cx="171.4412" cy="115.1899"/>
<circle cx="392.5275" cy="42.3717"/>
<circle cx="476.3795" cy="97.48"/>
<circle cx="394.5811" cy="60.3806"/>
<circle cx="430.3257" cy="1"/>
<circle cx="219.946" cy="135.5548"/>
<circle cx="611.5669" cy="128.3381"/>
<circle cx="197.8216" cy="83.109"/>
<circle cx="213.7188" cy="179.3604"/>
<circle cx="200.8661" cy="104.4677"/>
<circle cx="234.5417" cy="80.5426"/>
<circle cx="424.8978" cy="150.5263"/>
<circle cx="448.5159" cy="191.0158"/>
<circle cx="167.3069" cy="68.5439"/>
<circle cx="138.497" cy="71.5547"/>
<circle cx="135.8751" cy="103.7381"/>
<circle cx="415.0511" cy="74.4629"/>
<circle cx="773.6589" cy="242.6128"/>
<circle cx="420.3762" cy="65.7537"/>
<circle cx="464.5166" cy="72.6315"/>
<circle cx="741.1595" cy="240.6565"/>
<circle cx="394.0618" cy="97.0003"/>
<circle cx="587.0642" cy="119.5798"/>
<circle cx="264.6504" cy="250.1041"/>
<circle cx="468.5849" cy="99.0427"/>
<circle cx="631.2245" cy="183.753"/>
<circle cx="461.7612" cy="230.9554"/>
<circle cx="241.4654" cy="135.4155"/>
<circle cx="169.7933" cy="130.7774"/>
<circle cx="554.8341" cy="126.9784"/>
<circle cx="221.2641" cy="92.7483"/>
<circle cx="594.9983" cy="122.1689"/>
<circle cx="220.5161" cy="80.093"/>
<circle cx="734.3266" cy="229.8735"/>
<circle cx="485.0711" cy="70.7972"/>
<circle cx="499.1053" cy="61.1005"/>
<circle cx="197.4047" cy="142.4132"/>
<circle cx="125.5407" cy="99.6906"/>
<circle cx="61.0819" cy="19.1279"/>
<circle cx="281.2584" cy="26.2883"/>
<circle cx="185.1185" cy="93.3477"/>
<circle cx="184.1143" cy="104.1299"/>
<circle cx="471.992" cy="75.8304"/>
<circle cx="90.5671" cy="48.7299"/>
<circle cx="148.3294" cy="125.0565"/>
<circle cx="118.3986" cy="76.0775"/>
<circle cx="168.1157" cy="119.6844"/>
<circle cx="375.3339" cy="58.5493"/>
<circle cx="772.0318" cy="212.1424"/>
<circle cx="644.0154" cy="192.9389"/>
<circle cx="563.8487" cy="100.6875"/>
<circle cx="187.399" cy="143.9103"/>
<circle cx="438.7745" cy="81.8037"/>
<circle cx="205.4724" cy="108.7671"/>
<circle cx="412.644" cy="75.4443"/>
<circle cx="649.0767" cy="92.1938"/>
<circle cx="293.1447" cy="39.4757"/>
<circle cx="622.8941" cy="148.6529"/>
<circle cx="453.6387" cy="217.9832"/>
<circle cx="577.3945" cy="139.9972"/>
<circle cx="582.0262" cy="119.9053"/>
<circle cx="212.0223" cy="125.3338"/>
<circle cx="186.3877" cy="136.6991"/>
<circle cx="170.3371" cy="64.8299"/>
<circle cx="139.8592" cy="56.3389"/>
<circle cx="241.0747" cy="33.6459"/>
<circle cx="215.4236" cy="80.0123"/>
<circle cx="144.9377" cy="49.6244"/>
<circle cx="668.7741" cy="92.9748"/>
<circle cx="130.9299" cy="50.5802"/>
<circle cx="249.741" cy="73.3621"/>
<circle cx="260.1948" cy="73.247"/>
<circle cx="181.5417" cy="8.9467"/>
<circle cx="143.2774" cy="42.0492"/>
<circle cx="175.0332" cy="51.5586"/>
<circle cx="212.1679" cy="67.8445"/>
<circle cx="201.1821" cy="27.3801"/>
<circle cx="241.3075" cy="46.3686"/>
<circle cx="244.8216" cy="58.0254"/>
<circle cx="139.7598" cy="56.5731"/>
<circle cx="123.5141" cy="50.5484"/>
<circle cx="216.5531" cy="72.816"/>
<circle cx="412.7411" cy="152.1437"/>
<circle cx="444.1379" cy="82.7304"/>
<circle cx="591.3065" cy="124.0013"/>
<circle cx="569.6325" cy="112.5681"/>
<circle cx="678.951" cy="88.4609"/>
<circle cx="439.127" cy="60.7254"/>
<circle cx="568.5683" cy="79.5798"/>
<circle cx="689.2329" cy="71.7253"/>
<circle cx="687.2599" cy="76.9248"/>
<circle cx="470.4026" cy="21.7868"/>
<circle cx="492.5984" cy="95.4501"/>
<circle cx="484.6925" cy="70.7469"/>
<circle cx="485.0569" cy="71.1108"/>
<circle cx="452.5713" cy="30.9937"/>
<circle cx="393.8479" cy="76.2541"/>
<circle cx="411.0904" cy="79.1503"/>
<circle cx="395.7857" cy="66.0529"/>
<circle cx="402.4234" cy="63.3279"/>
<circle cx="398.5217" cy="78.9603"/>
<circle cx="689.2058" cy="101.5845"/>
<circle cx="693.6542" cy="99.813"/>
<circle cx="703.7893" cy="97.8251"/>
<circle cx="712.8218" cy="91.3296"/>
<circle cx="462.7476" cy="20.1947"/>
<circle cx="269.0384" cy="212.4703"/>
<circle cx="286.0991" cy="239.5262"/>
<circle cx="285.5207" cy="236.2824"/>
<circle cx="316.7189" cy="193.316"/>
<circle cx="316.0434" cy="190.5074"/>
<circle cx="375.8996" cy="84.351"/>
<circle cx="295.8026" cy="183.0403"/>
<circle cx="291.1429" cy="231.1013"/>
<circle cx="298.9893" cy="188.6254"/>
<circle cx="289.2605" cy="229.0425"/>
<circle cx="304.6933" cy="222.8442"/>
<circle cx="394.1734" cy="90.9953"/>
<circle cx="390.0872" cy="94.2359"/>
<circle cx="394.3621" cy="88.2819"/>
<circle cx="441.2258" cy="24.4697"/>
<circle cx="431.9894" cy="45.2844"/>
<circle cx="637.7028" cy="192.7625"/>
<circle cx="258.5437" cy="251.3535"/>
<circle cx="314.819" cy="198.6508"/>
<circle cx="472.8794" cy="114.2063"/>
<circle cx="473.7481" cy="110.5712"/>
<circle cx="571.0066" cy="116.0591"/>
<circle cx="560.3436" cy="126.9179"/>
<circle cx="501.6312" cy="99.8692"/>
<circle cx="441.0747" cy="104.9571"/>
<circle cx="508.3676" cy="118.0575"/>
<circle cx="264.8406" cy="248.023"/>
<circle cx="538.0048" cy="73.7059"/>
<circle cx="213.8234" cy="112.9993"/>
<circle cx="276.587" cy="165.422"/>
<circle cx="237.7621" cy="149.0624"/>
<circle cx="492.6072" cy="151.205"/>
<circle cx="237.3769" cy="223.4983"/>
<circle cx="461.4374" cy="85.1"/>
<circle cx="762.429" cy="165.1684"/>
<circle cx="799" cy="196.4209"/>
<circle cx="573.4679" cy="129.7246"/>
<circle cx="616.8265" cy="158.9623"/>
<circle cx="795.0716" cy="217.2037"/>
<circle cx="165.0036" cy="128.3476"/>
<circle cx="413.7228" cy="78.0248"/>
<circle cx="476.4819" cy="105.7783"/>
<circle cx="237.0231" cy="218.5467"/>
<circle cx="366.0354" cy="131.0571"/>
<circle cx="227.0218" cy="152.7036"/>
<circle cx="235.1635" cy="269.888"/>
<circle cx="384.0125" cy="159.7991"/>
<circle cx="196.5467" cy="137.7283"/>
<circle cx="175.8405" cy="114.6701"/>
<circle cx="240.1285" cy="149.78"/>
<circle cx="233.4018" cy="207.7117"/>
<circle cx="483.7288" cy="192.6866"/>
<circle cx="208.4926" cy="81.711"/>
<circle cx="678.1268" cy="196.476"/>
<circle cx="480.7847" cy="52.4219"/>
<circle cx="778.7411" cy="280.6474"/>
<circle cx="497.4089" cy="206.0603"/>
<circle cx="155.8113" cy="105.6061"/>
<circle cx="495.4231" cy="86.7935"/>
<circle cx="176.1719" cy="103.3052"/>
<circle cx="235.198" cy="128.9314"/>
<circle cx="181.8016" cy="111.3085"/>
<circle cx="461.2808" cy="180.9566"/>
<circle cx="425.5449" cy="156.2079"/>
<circle cx="721.5501" cy="146.8346"/>
<circle cx="198.5733" cy="83.4931"/>
<circle cx="492.8884" cy="203.2039"/>
<circle cx="727.6312" cy="273.6978"/>
<circle cx="755.8726" cy="198.454"/>
<circle cx="463.9948" cy="63.6856"/>
<circle cx="630.4515" cy="59.4965"/>
<circle cx="201.1294" cy="87.7442"/>
<circle cx="771.3454" cy="178.4494"/>
<circle cx="148.9776" cy="238.387"/>
<circle cx="248.8287" cy="232.1426"/>
<circle cx="656.4774" cy="112.2198"/>
<circle cx="626.8171" cy="120.9186"/>
<circle cx="391.6902" cy="55.9016"/>
<circle cx="416.6214" cy="176.1923"/>
<circle cx="398.2457" cy="163.3332"/>
<circle cx="449.3582" cy="65.0255"/>
<circle cx="781.1777" cy="161.3035"/>
<circle cx="651.2131" cy="127.3199"/>
<circle cx="497.4581" cy="172.6808"/>
<circle cx="468.7897" cy="235.6067"/>
<circle cx="525.3245" cy="223.2368"/>
<circle cx="427.5952" cy="85.1591"/>
<circle cx="357.0669" cy="130.0869"/>
<circle cx="668.9763" cy="110.0615"/>
<circle cx="359.5026" cy="136.463"/>
<circle cx="769.7714" cy="226.7995"/>
<circle cx="120.1881" cy="92.2888"/>
<circle cx="130.5951" cy="100.5138"/>
<circle cx="376.3075" cy="60.4522"/>
<circle cx="621.2844" cy="178.9921"/>
<circle cx="337.5554" cy="92.2189"/>
<circle cx="556.4981" cy="100.6688"/>
<circle cx="385.0439" cy="52.2086"/>
<circle cx="269.971" cy="228.0114"/>
<circle cx="790.9505" cy="268.0353"/>
<circle cx="751.723" cy="161.499"/>
<circle cx="58.4876" cy="216.7681"/>
<circle cx="418.8509" cy="78.8075"/>
<circle cx="479.2438" cy="133.134"/>
<circle cx="342.5344" cy="143.5638"/>
<circle cx="377.3559" cy="106.0493"/>
<circle cx="35.542" cy="224.9692"/>
<circle cx="629.2351" cy="147.0235"/>
<circle cx="242.8397" cy="298.3448"/>
<circle cx="239.3411" cy="293.4582"/>
<circle cx="125.6788" cy="88.2495"/>
<circle cx="698.4142" cy="160.636"/>
<circle cx="343.7554" cy="139.5329"/>
<circle cx="436.7249" cy="78.5202"/>
<circle cx="254.1878" cy="138.2349"/>
<circle cx="247.9623" cy="233.1746"/>
<circle cx="723.6172" cy="143.1662"/>
<circle cx="248.3803" cy="220.0437"/>
<circle cx="253.2913" cy="136.5884"/>
<circle cx="494.8257" cy="146.4003"/>
<circle cx="666.5415" cy="95.5421"/>
<circle cx="737.3966" cy="160.4263"/>
<circle cx="382.1118" cy="96.7628"/>
<circle cx="785.3758" cy="174.1124"/>
<circle cx="556.3678" cy="62.3025"/>
<circle cx="659.7221" cy="89.0972"/>
<circle cx="725.9752" cy="220.5893"/>
<circle cx="248.7964" cy="237.6594"/>
<circle cx="418.44" cy="94.2366"/>
<circle cx="145.5821" cy="104.8826"/>
<circle cx="635.8724" cy="69.4517"/>
<circle cx="592.4158" cy="78.357"/>
<circle cx="774.5062" cy="217.0884"/>
<circle cx="718.99" cy="185.285"/>
<circle cx="404.8673" cy="67.362"/>
<circle cx="661.4658" cy="121.9609"/>
<circle cx="706.4171" cy="155.8313"/>
<circle cx="159.9454" cy="134.0979"/>
<circle cx="277.4982" cy="166.3637"/>
<circle cx="630.0945" cy="59.2966"/>
<circle cx="653.7304" cy="91.0145"/>
<circle cx="508.1472" cy="86.0945"/>
<circle cx="470.4744" cy="98.1578"/>
<circle cx="300.6604" cy="228.8534"/>
<circle cx="451.8342" cy="41.5324"/>
<circle cx="409.4286" cy="65.4389"/>
<circle cx="423.2221" cy="74.739"/>
<circle cx="685.1943" cy="91.5085"/>
<circle cx="237.9155" cy="186.7941"/>
<circle cx="258.7416" cy="170.8231"/>
<circle cx="360.7683" cy="114.3043"/>
<circle cx="233.1537" cy="290.4678"/>
<circle cx="433.5381" cy="44.8301"/>
<circle cx="617.6601" cy="169.1894"/>
<circle cx="437.1471" cy="167.3151"/>
<circle cx="666.6573" cy="109.1283"/>
<circle cx="41.0561" cy="172.7488"/>
<circle cx="448.0904" cy="51.3192"/>
<circle cx="12.7325" cy="220.1851"/>
<circle cx="271.9229" cy="234.554"/>
<circle cx="234.248" cy="214.0319"/>
<circle cx="693.0246" cy="79.5297"/>
<circle cx="442.7913" cy="81.3148"/>
<circle cx="405.4525" cy="61.9372"/>
<circle cx="146.867" cy="122.9993"/>
<circle cx="679.7306" cy="74.4783"/>
<circle cx="568.6598" cy="158.1316"/>
<circle cx="456.5722" cy="90.985"/>
<circle cx="663.1304" cy="105.7497"/>
<circle cx="218.1768" cy="117.4317"/>
<circle cx="425.031" cy="103.6466"/>
<circle cx="272.5171" cy="66.9877"/>
<circle cx="511.545" cy="120.3145"/>
<circle cx="155.3137" cy="98.2866"/>
<circle cx="256.2639" cy="138.6195"/>
<circle cx="8.0679" cy="208.3745"/>
<circle cx="465.281" cy="116.2999"/>
<circle cx="509.4448" cy="118.0591"/>
<circle cx="231.7314" cy="82.7893"/>
<circle cx="261.4549" cy="147.7647"/>
<circle cx="357.9252" cy="147.1697"/>
<circle cx="461.4631" cy="184.7035"/>
<circle cx="474.1898" cy="212.5384"/>
<circle cx="670.715" cy="217.6534"/>
<circle cx="522.3785" cy="115.9406"/>
<circle cx="502.7838" cy="108.413"/>
<circle cx="155.7209" cy="105.974"/>
<circle cx="575.3405" cy="161.0559"/>
<circle cx="723.6846" cy="215.2305"/>
<circle cx="618.3176" cy="134.952"/>
<circle cx="159.6283" cy="89.845"/>
<circle cx="191.6024" cy="132.5976"/>
<circle cx="650.4013" cy="113.7345"/>
<circle cx="204.7716" cy="89.2639"/>
<circle cx="639.1151" cy="141.0681"/>
<circle cx="177.3098" cy="103.2519"/>
<circle cx="477.6602" cy="101.9749"/>
<circle cx="209.7813" cy="158.3236"/>
<circle cx="489.6975" cy="155.5728"/>
<circle cx="654.789" cy="196.9162"/>
<circle cx="184.5198" cy="83.6846"/>
<circle cx="468.4937" cy="177.1206"/>
<circle cx="452.4755" cy="176.1133"/>
<circle cx="664.9365" cy="118.82"/>
<circle cx="601.6971" cy="118.4294"/>
<circle cx="437.0217" cy="54.7494"/>
<circle cx="256.2786" cy="150.1799"/>
<circle cx="494.0484" cy="50.6103"/>
<circle cx="145.6183" cy="114.231"/>
<circle cx="647.2497" cy="85.2132"/>
<circle cx="143.2125" cy="72.2496"/>
<circle cx="145.325" cy="111.7072"/>
<circle cx="221.0058" cy="89.4951"/>
<circle cx="46.2588" cy="132.8215"/>
<circle cx="192.5675" cy="104.4554"/>
<circle cx="211.4663" cy="108.5513"/>
<circle cx="643.9327" cy="173.8725"/>
<circle cx="463.2961" cy="181.6443"/>
<circle cx="440.0228" cy="64.4526"/>
<circle cx="508.3666" cy="56.714"/>
<circle cx="643.2684" cy="120.4285"/>
<circle cx="666.8865" cy="136.2727"/>
<circle cx="229.059" cy="85.3922"/>
<circle cx="395.0614" cy="62.0124"/>
<circle cx="427.9825" cy="73.1046"/>
<circle cx="577.5901" cy="116.946"/>
<circle cx="265.0404" cy="255.9688"/>
<circle cx="175.7762" cy="119.1825"/>
<circle cx="390.3085" cy="57.0425"/>
<circle cx="182.1157" cy="88.7178"/>
<circle cx="526.7062" cy="124.0973"/>
<circle cx="419.6464" cy="96.6841"/>
<circle cx="407.1876" cy="79.3869"/>
<circle cx="171.1882" cy="115.4016"/>
<circle cx="639.0369" cy="126.2966"/>
<circle cx="177.5982" cy="138.9344"/>
<circle cx="43.1108" cy="130.1674"/>
<circle cx="175.6291" cy="97.5071"/>
<circle cx="223.806" cy="94.1222"/>
<circle cx="215.0548" cy="117.116"/>
<circle cx="271.111" cy="164.9342"/>
<circle cx="521.5918" cy="46.7789"/>
<circle cx="621.2401" cy="165.3021"/>
<circle cx="411.0805" cy="165.9454"/>
<circle cx="662.6027" cy="223.1161"/>
<circle cx="169.5562" cy="77.2719"/>
<circle cx="214.6811" cy="86.0194"/>
<circle cx="10.9597" cy="209.4928"/>
<circle cx="391.5238" cy="59.091"/>
<circle cx="372.1119" cy="163.1644"/>
<circle cx="579.5184" cy="129.5082"/>
<circle cx="194.8599" cy="146.9425"/>
<circle cx="131.4842" cy="103.5045"/>
<circle cx="173.6566" cy="110.724"/>
<circle cx="212.5329" cy="104.8482"/>
<circle cx="224.627" cy="132.2413"/>
<circle cx="168.1062" cy="127.0991"/>
<circle cx="121.5965" cy="90.0808"/>
<circle cx="236.2158" cy="133.3821"/>
<circle cx="532.371" cy="49.4534"/>
<circle cx="224.0118" cy="80.0834"/>
<circle cx="499.5775" cy="91.3456"/>
<circle cx="162.5608" cy="119.6501"/>
<circle cx="179.4718" cy="95.7169"/>
<circle cx="206.272" cy="96.5826"/>
<circle cx="521.2867" cy="54.334"/>
<circle cx="258.1611" cy="146.2854"/>
<circle cx="434.7579" cy="227.8654"/>
<circle cx="205.122" cy="72.5306"/>
<circle cx="124.7547" cy="51.6894"/>
<circle cx="139.6212" cy="57.1671"/>
<circle cx="252.3844" cy="76.1315"/>
<circle cx="124.1778" cy="63.0271"/>
<circle cx="213.4657" cy="72.2213"/>
<circle cx="247.0342" cy="75.1345"/>
<circle cx="119.1504" cy="55.8675"/>
<circle cx="117.4465" cy="67.677"/>
<circle cx="670.329" cy="161.6377"/>
<circle cx="628.7839" cy="95.0013"/>
<circle cx="229.2001" cy="80.953"/>
<circle cx="197.4613" cy="80.4975"/>
<circle cx="652.7275" cy="108.3028"/>
<circle cx="641.8301" cy="135.9874"/>
<circle cx="600.1484" cy="111.2486"/>
<circle cx="575.3113" cy="93.8028"/>
<circle cx="426.4289" cy="62.0815"/>
<circle cx="380.5694" cy="99.9768"/>
<circle cx="409.5378" cy="73.183"/>
<circle cx="145.5033" cy="106.8979"/>
<circle cx="412.6073" cy="67.8928"/>
<circle cx="411.4689" cy="62.6374"/>
<circle cx="685.838" cy="98.0138"/>
<circle cx="680.3041" cy="101.7198"/>
<circle cx="408.1075" cy="44.6115"/>
<circle cx="420.0145" cy="34.2745"/>
<circle cx="265.5624" cy="220.0442"/>
<circle cx="357.6475" cy="103.5921"/>
<circle cx="272.7129" cy="234.8712"/>
<circle cx="251.5207" cy="196.8479"/>
<circle cx="388.8835" cy="79.6931"/>
<circle cx="401.5767" cy="88.1145"/>
<circle cx="358.6143" cy="113.0641"/>
<circle cx="423.1157" cy="47.306"/>
<circle cx="445.2523" cy="29.5968"/>
<circle cx="518.4991" cy="122.2085"/>
<circle cx="410.3419" cy="95.5068"/>
<circle cx="469.3533" cy="123.2422"/>
<circle cx="453.5997" cy="27.321"/>
<circle cx="264.2325" cy="162.5863"/>
<circle cx="567.4698" cy="154.3512"/>
<circle cx="474.7568" cy="176.3096"/>
<circle cx="680.2123" cy="92.8813"/>
<circle cx="153.3922" cy="121.4438"/>
<circle cx="560.061" cy="101.5335"/>
<circle cx="405.5284" cy="62.5945"/>
<circle cx="411.802" cy="156.9428"/>
<circle cx="115.923" cy="84.9477"/>
<circle cx="175.4699" cy="109.2028"/>
<circle cx="464.7998" cy="94.0837"/>
<circle cx="381.4288" cy="54.1169"/>
<circle cx="417.2716" cy="74.3772"/>
<circle cx="656.7906" cy="163.8827"/>
<circle cx="570.4405" cy="147.4924"/>
<circle cx="731.4255" cy="256.7383"/>
<circle cx="208.7627" cy="87.1409"/>
<circle cx="378.354" cy="102.0576"/>
<circle cx="410.6639" cy="61.7367"/>
<circle cx="469.733" cy="86.8773"/>
<circle cx="790.3085" cy="262.5007"/>
<circle cx="572.062" cy="138.4042"/>
<circle cx="229.2519" cy="85.6818"/>
<circle cx="465.0083" cy="63.8476"/>
<circle cx="468.7356" cy="142.1061"/>
<circle cx="194.21" cy="80.0732"/>
<circle cx="458.5651" cy="55.8559"/>
<circle cx="424.9438" cy="91.2212"/>
<circle cx="234.5456" cy="83.2494"/>
<circle cx="211.3051" cy="117.4775"/>
<circle cx="673.5395" cy="83.4549"/>
<circle cx="520.4678" cy="120.1952"/>
<circle cx="120.8273" cy="93.0609"/>
<circle cx="129.9889" cy="101.3712"/>
<circle cx="416.1344" cy="67.5654"/>
<circle cx="205.9372" cy="154.7945"/>
<circle cx="651.7566" cy="126.219"/>
<circle cx="202.3268" cy="91.2219"/>
<circle cx="409.1843" cy="73.1036"/>
<circle cx="406.8601" cy="74.2521"/>
<circle cx="700.0166" cy="99.6702"/>
<circle cx="374.8649" cy="89.905"/>
<circle cx="296.4166" cy="221.4375"/>
<circle cx="435.8443" cy="43.5453"/>
<circle cx="649.417" cy="193.8506"/>
<circle cx="265.7471" cy="262.6524"/>
<circle cx="212.2003" cy="133.7649"/>
<circle cx="651.8151" cy="99.4641"/>
<circle cx="669.1499" cy="89.4753"/>
<circle cx="452.1237" cy="97.6385"/>
<circle cx="496.6946" cy="83.3768"/>
<circle cx="374.3606" cy="90.0114"/>
<circle cx="666.4614" cy="126.3874"/>
<circle cx="407.14" cy="148.13"/>
<circle cx="218.6586" cy="177.5497"/>
<circle cx="546.6638" cy="121.1471"/>
<circle cx="460.5962" cy="71.52"/>
<circle cx="221.7721" cy="204.3008"/>
<circle cx="194.2857" cy="68.282"/>
<circle cx="452.3639" cy="54.1585"/>
<circle cx="640.3607" cy="99.6518"/>
<circle cx="169.6784" cy="118.982"/>
<circle cx="1" cy="225.0765"/>
<circle cx="512.2608" cy="103.4734"/>
<circle cx="465.4728" cy="217.5863"/>
<circle cx="503.4665" cy="111.3703"/>
<circle cx="225.0211" cy="75.155"/>
<circle cx="551.2985" cy="99.3806"/>
<circle cx="386.5725" cy="165.3883"/>
<circle cx="170.7682" cy="139.4717"/>
<circle cx="395.0424" cy="164.5942"/>
<circle cx="482.7957" cy="156.9938"/>
<circle cx="496.8432" cy="148.332"/>
<circle cx="707.4208" cy="255.9126"/>
<circle cx="568.8696" cy="79.5999"/>
<circle cx="402.6624" cy="94.5693"/>
<circle cx="479.2692" cy="95.7293"/>
<circle cx="558.9802" cy="125.2635"/>
<circle cx="236.7861" cy="230.032"/>
<circle cx="526.8717" cy="91.675"/>
<circle cx="483.0506" cy="142.7786"/>
<circle cx="265.8995" cy="234.0694"/>
<circle cx="249.7093" cy="104.3448"/>
<circle cx="441.127" cy="76.2834"/>
<circle cx="475.3635" cy="101.0425"/>
<circle cx="569.6102" cy="124.7797"/>
<circle cx="377.5301" cy="148.9816"/>
<circle cx="200.2378" cy="95.849"/>
<circle cx="740.2753" cy="238.8974"/>
<circle cx="133.6816" cy="79.0989"/>
<circle cx="42.3577" cy="16.669"/>
<circle cx="218.1136" cy="80.5288"/>
<circle cx="459.8901" cy="222.2995"/>
<circle cx="654.2728" cy="166.084"/>
<circle cx="650.5892" cy="124.5464"/>
<circle cx="230.883" cy="260.0471"/>
<circle cx="594.6069" cy="126.2215"/>
<circle cx="602.2071" cy="127.1219"/>
<circle cx="784.0081" cy="275.1638"/>
<circle cx="364.752" cy="155.6595"/>
<circle cx="211.1175" cy="83.9584"/>
<circle cx="223.3992" cy="169.2419"/>
<circle cx="400.797" cy="162.9023"/>
<circle cx="250.8138" cy="247.7489"/>
<circle cx="225.3647" cy="153.6985"/>
<circle cx="199.7758" cy="129.8366"/>
<circle cx="156.7719" cy="112.5767"/>
<circle cx="599.0321" cy="123.5128"/>
<circle cx="690.1817" cy="205.1664"/>
<circle cx="465.1222" cy="244.709"/>
<circle cx="457.4278" cy="203.3259"/>
<circle cx="384.2079" cy="100.8059"/>
<circle cx="430.216" cy="187.1068"/>
<circle cx="365.6997" cy="157.8188"/>
<circle cx="678.4657" cy="88.9379"/>
<circle cx="563.1419" cy="80.2553"/>
<circle cx="453.8135" cy="232.5299"/>
<circle cx="162.7815" cy="130.9976"/>
<circle cx="385.4477" cy="51.4084"/>
<circle cx="191.5426" cy="144.3674"/>
<circle cx="215.5124" cy="182.0827"/>
<circle cx="633.7123" cy="129.4439"/>
<circle cx="209.8361" cy="125.4288"/>
<circle cx="462.3002" cy="107.5896"/>
<circle cx="483.6004" cy="128.4166"/>
<circle cx="414.6214" cy="150.0933"/>
<circle cx="566.6197" cy="88.1772"/>
<circle cx="222.5127" cy="136.8241"/>
<circle cx="587.6639" cy="114.8372"/>
<circle cx="425.2349" cy="197.1494"/>
<circle cx="463.6839" cy="42.5322"/>
<circle cx="563.0114" cy="106.2333"/>
<circle cx="471.5117" cy="208.2756"/>
<circle cx="402.908" cy="162.4068"/>
<circle cx="241.8826" cy="214.4043"/>
<circle cx="459.4915" cy="211.7399"/>
<circle cx="469.0805" cy="119.4028"/>
<circle cx="575.9677" cy="147.9835"/>
<circle cx="233.8971" cy="153.4489"/>
<circle cx="225.557" cy="163.324"/>
<circle cx="192.778" cy="98.2973"/>
<circle cx="201.3594" cy="149.8705"/>
<circle cx="529.7504" cy="95.6327"/>
<circle cx="214.6296" cy="119.1283"/>
<circle cx="193.4955" cy="130.0761"/>
<circle cx="428.0736" cy="96.4854"/>
<circle cx="484.6188" cy="186.3039"/>
<circle cx="457.4954" cy="243.5597"/>
<circle cx="192.1585" cy="109.6915"/>
<circle cx="556.2733" cy="109.2186"/>
<circle cx="269.2491" cy="255.6885"/>
<circle cx="156.0944" cy="125.0476"/>
<circle cx="220.9674" cy="120.8089"/>
<circle cx="429.2848" cy="149.9045"/>
<circle cx="400.332" cy="146.8704"/>
<circle cx="674.6456" cy="153.9892"/>
<circle cx="430.8989" cy="206.0549"/>
<circle cx="179.4503" cy="84.2095"/>
<circle cx="22.8321" cy="31.9431"/>
<circle cx="392.0191" cy="149.4"/>
<circle cx="232.6118" cy="135.387"/>
<circle cx="173.8733" cy="134.0625"/>
<circle cx="119.3335" cy="74.5496"/>
<circle cx="656.6175" cy="249.1575"/>
<circle cx="453.1095" cy="253.7585"/>
<circle cx="230.8013" cy="270.5353"/>
<circle cx="631.5531" cy="151.2038"/>
<circle cx="561.8811" cy="135.3791"/>
<circle cx="726.9674" cy="198.4789"/>
<circle cx="216.6382" cy="156.8021"/>
<circle cx="235.8804" cy="296.5962"/>
<circle cx="217.9799" cy="96.4261"/>
<circle cx="611.9352" cy="139.1582"/>
<circle cx="449.4331" cy="49.026"/>
<circle cx="495.0281" cy="142.3726"/>
<circle cx="495.0377" cy="102.2976"/>
<circle cx="238.5078" cy="135.7146"/>
<circle cx="635.6502" cy="152.8621"/>
<circle cx="447.1743" cy="85.9568"/>
<circle cx="448.1338" cy="81.0802"/>
<circle cx="559.2539" cy="129.6558"/>
<circle cx="797.569" cy="217.8636"/>
<circle cx="513.8674" cy="110.6808"/>
<circle cx="175.0128" cy="127.0234"/>
<circle cx="198.9993" cy="145.5569"/>
<circle cx="511.0096" cy="96.8402"/>
<circle cx="439.8292" cy="83.9367"/>
<circle cx="131.9843" cy="103.9239"/>
<circle cx="171.1822" cy="133.6686"/>
<circle cx="451.2789" cy="43.4081"/>
<circle cx="473.9621" cy="105.152"/>
<circle cx="410.5465" cy="176.3779"/>
<circle cx="502.3491" cy="219.5604"/>
<circle cx="209.5492" cy="114.2071"/>
<circle cx="242.4583" cy="154.3537"/>
<circle cx="495.3211" cy="67.3366"/>
<circle cx="626.4255" cy="136.7388"/>
<circle cx="253.228" cy="216.9673"/>
<circle cx="789.1272" cy="270.3002"/>
<circle cx="101.6478" cy="54.9492"/>
<circle cx="208.5914" cy="82.0336"/>
<circle cx="159.7306" cy="63.6396"/>
<circle cx="118.0089" cy="66.4315"/>
<circle cx="176.461" cy="64.833"/>
<circle cx="155.1481" cy="59.7279"/>
<circle cx="91.2191" cy="40.4856"/>
<circle cx="138.6617" cy="62.0685"/>
<circle cx="253.2486" cy="72.9801"/>
<circle cx="183.5448" cy="44.9098"/>
<circle cx="276.6435" cy="69.9909"/>
<circle cx="137.6994" cy="36.5296"/>
<circle cx="431.601" cy="74.2244"/>
<circle cx="483.7622" cy="191.2269"/>
<circle cx="346.0017" cy="32.7885"/>
<circle cx="487.1202" cy="31.7415"/>
<circle cx="506.4549" cy="51.9852"/>
<circle cx="400.76" cy="67.4726"/>
<circle cx="234.6624" cy="71.8411"/>
<circle cx="229.3353" cy="74.8437"/>
<circle cx="711.5925" cy="96.6765"/>
<circle cx="703.5532" cy="98.7148"/>
<circle cx="713.8394" cy="80.131"/>
<circle cx="407.2009" cy="41.443"/>
<circle cx="438.01" cy="20.2941"/>
<circle cx="286.2461" cy="180.3517"/>
<circle cx="272.3068" cy="223.2943"/>
<circle cx="284.6828" cy="234.7323"/>
<circle cx="308.6296" cy="185.7317"/>
<circle cx="290.7454" cy="229.9805"/>
<circle cx="284.5635" cy="214.6801"/>
<circle cx="280.171" cy="244.7637"/>
<circle cx="316.7879" cy="195.5353"/>
<circle cx="309.0934" cy="206.3067"/>
<circle cx="240.4852" cy="251.1544"/>
<circle cx="260.1968" cy="184.0506"/>
<circle cx="421.436" cy="168.8555"/>
<circle cx="669.7414" cy="107.0628"/>
<circle cx="476.4693" cy="105.2118"/>
<circle cx="561.0217" cy="167.7884"/>
<circle cx="178.8104" cy="134.1106"/>
<circle cx="360.1799" cy="150.4464"/>
<circle cx="678.3975" cy="161.163"/>
<circle cx="520.4477" cy="187.7417"/>
<circle cx="356.0377" cy="144.0128"/>
<circle cx="479.2949" cy="133.4537"/>
<circle cx="551.4259" cy="84.2939"/>
<circle cx="423.9164" cy="51.9392"/>
<circle cx="454.1769" cy="77.0087"/>
<circle cx="438.8095" cy="70.3959"/>
<circle cx="635.5912" cy="110.2794"/>
<circle cx="213.1321" cy="97.9008"/>
<circle cx="207.718" cy="82.124"/>
<circle cx="381.3663" cy="56.8972"/>
<circle cx="62.4154" cy="31.243"/>
<circle cx="417.9624" cy="56.4356"/>
<circle cx="624.5014" cy="171.0341"/>
<circle cx="136.0925" cy="95.9538"/>
<circle cx="212.3135" cy="113.1912"/>
<circle cx="185.5115" cy="76.1417"/>
<circle cx="421.9767" cy="68.3227"/>
<circle cx="225.9713" cy="87.4157"/>
<circle cx="143.159" cy="101.9199"/>
<circle cx="143.2303" cy="85.3648"/>
<circle cx="191.9124" cy="89.9682"/>
<circle cx="442.6617" cy="59.7259"/>
<circle cx="414.7116" cy="70.3529"/>
<circle cx="405.4602" cy="63.5858"/>
<circle cx="421.9348" cy="68.3318"/>
<circle cx="400.1083" cy="84.2017"/>
<circle cx="427.5606" cy="64.3729"/>
<circle cx="652.025" cy="126.9648"/>
<circle cx="668.4573" cy="120.7458"/>
<circle cx="406.1584" cy="59.4153"/>
<circle cx="629.6194" cy="174.1676"/>
<circle cx="394.4078" cy="61.3024"/>
<circle cx="789.0822" cy="260.565"/>
<circle cx="57.6499" cy="39.4525"/>
<circle cx="205.2913" cy="101.459"/>
<circle cx="658.0002" cy="86.9592"/>
<circle cx="228.4478" cy="166.6395"/>
<circle cx="559.5515" cy="134.2172"/>
<circle cx="235.4901" cy="81.8068"/>
<circle cx="222.7606" cy="88.9847"/>
<circle cx="466.1447" cy="109.4057"/>
<circle cx="378.1698" cy="101.6341"/>
<circle cx="244.5227" cy="153.3552"/>
<circle cx="437.3127" cy="253.7278"/>
<circle cx="629.5512" cy="108.3493"/>
<circle cx="569.0403" cy="112.9028"/>
<circle cx="159.6893" cy="87.4756"/>
<circle cx="176.8808" cy="103.1264"/>
<circle cx="621.9986" cy="145.8716"/>
<circle cx="520.093" cy="120.3498"/>
<circle cx="228.3717" cy="85.5816"/>
<circle cx="263.5858" cy="255.6267"/>
<circle cx="214.9308" cy="118.505"/>
<circle cx="180.7244" cy="109.6881"/>
<circle cx="460.3338" cy="84.9344"/>
<circle cx="459.0105" cy="236.0748"/>
<circle cx="92.3286" cy="45.7899"/>
<circle cx="128.7705" cy="100.7751"/>
<circle cx="416.3281" cy="74.8391"/>
<circle cx="721.6473" cy="262.0595"/>
<circle cx="172.2814" cy="133.4506"/>
<circle cx="667.9455" cy="144.5506"/>
<circle cx="478.5885" cy="180.2184"/>
<circle cx="39.7724" cy="129.1793"/>
<circle cx="197.4545" cy="82.6852"/>
<circle cx="500.607" cy="121.0108"/>
<circle cx="235.9917" cy="252.4359"/>
<circle cx="119.9876" cy="70.3727"/>
<circle cx="119.8048" cy="92.5034"/>
<circle cx="668.7046" cy="106.9841"/>
<circle cx="479.6941" cy="51.1781"/>
<circle cx="216.133" cy="78.8466"/>
<circle cx="735.8742" cy="253.6515"/>
<circle cx="451.6601" cy="41.3762"/>
<circle cx="401.153" cy="66.835"/>
<circle cx="425.3599" cy="58.8624"/>
<circle cx="432.7254" cy="68.8499"/>
<circle cx="414.7333" cy="64.5012"/>
<circle cx="423.0172" cy="83.0939"/>
<circle cx="700.4626" cy="98.8698"/>
<circle cx="681.004" cy="92.6379"/>
<circle cx="420.425" cy="41.658"/>
<circle cx="287.5045" cy="212.9632"/>
<circle cx="290.346" cy="230.4326"/>
<circle cx="298.0274" cy="228.5982"/>
<circle cx="387.3905" cy="86.0823"/>
<circle cx="246.7782" cy="135.6969"/>
<circle cx="435.8107" cy="42.8797"/>
<circle cx="635.6278" cy="191.0198"/>
<circle cx="449.3604" cy="91.7845"/>
</g>
</svg>