<svg height="208.76616" viewBox="0 0 312.59909 208.76616" width="312.59909" xmlns="http://www.w3.org/2000/svg" xmlns:xlink="http://www.w3.org/1999/xlink">
<view id="solar" viewBox="10 0 70 70" />
<view id="blades2" viewBox="149 95 90 90" />
<view id="pole" viewBox="235 5 90 90" />
<linearGradient id="a"><stop offset="0" stop-color="#110b79"/><stop offset=".5025" stop-color="#4fa0ca"/><stop offset="1" stop-color="#110b79"/></linearGradient><linearGradient id="b" gradientUnits="userSpaceOnUse" x1="257.5556" x2="265.0453" xlink:href="#a" y1="299.18121" y2="299.18121"/><linearGradient id="c" gradientUnits="userSpaceOnUse" x1="257.5478" x2="265.0478" xlink:href="#a" y1="298.14111" y2="298.14111"/><linearGradient id="d" gradientUnits="userSpaceOnUse" x1="263.6212" x2="258.9484" xlink:href="#a" y1="293.96078" y2="299.42099"/><linearGradient id="e" gradientUnits="userSpaceOnUse" x1="258.4094" x2="264.1896" xlink:href="#a" y1="295.97101" y2="295.97101"/><linearGradient id="f" gradientUnits="userSpaceOnUse" x1="258.4091" x2="264.1894" xlink:href="#a" y1="288.45889" y2="288.45889"/><linearGradient id="g" gradientUnits="userSpaceOnUse" x1="263.0865" x2="260.1813" xlink:href="#a" y1="277.01041" y2="282.87781"/><linearGradient id="h" gradientUnits="userSpaceOnUse" x1="260.2977" x2="262.9043" y1="258.51859" y2="258.51859"><stop offset="0" stop-color="#a7a7a7"/><stop offset=".6667" stop-color="#fcfcfc"/><stop offset=".691" stop-color="#f1f1f1"/><stop offset=".7615" stop-color="#d8d8d8"/><stop offset=".8348" stop-color="#c6c6c6"/><stop offset=".9122" stop-color="#bbb"/><stop offset="1" stop-color="#b8b8b8"/></linearGradient><linearGradient id="i"><stop offset="0" stop-color="#bcbcbc"/><stop offset=".1299" stop-color="#bfbfbf"/><stop offset=".2442" stop-color="#cacaca"/><stop offset=".3526" stop-color="#dcdcdc"/><stop offset=".4569" stop-color="#f5f5f5"/><stop offset=".4624" stop-color="#f7f7f7"/><stop offset=".8011" stop-color="#bcbcbc"/></linearGradient><linearGradient id="j" gradientUnits="userSpaceOnUse" x1="275.7402" x2="273.84769" xlink:href="#i" y1="249.1133" y2="250.60001"/><linearGradient id="k" gradientUnits="userSpaceOnUse" x1="272.25671" x2="274.38019" xlink:href="#i" y1="217.8183" y2="218.6277"/><linearGradient id="l"><stop offset="0" stop-color="#a9a9a9"/><stop offset=".5323" stop-color="#fff"/><stop offset="1" stop-color="#ccc"/></linearGradient><linearGradient id="m" gradientUnits="userSpaceOnUse" x1="264.31259" x2="263.15189" xlink:href="#l" y1="236.1488" y2="238.1973"/><linearGradient id="n" gradientUnits="userSpaceOnUse" x1="265.6333" x2="264.47241" xlink:href="#l" y1="236.8981" y2="238.94701"/><linearGradient id="o" gradientUnits="userSpaceOnUse" x1="265.36981" x2="264.18469" y1="236.76199" y2="238.85381"><stop offset="0" stop-color="#9b9b9b"/><stop offset=".6667" stop-color="#d6d6d6"/><stop offset=".693" stop-color="#cacaca"/><stop offset=".763" stop-color="#b1b1b1"/><stop offset=".8359" stop-color="#9f9f9f"/><stop offset=".9127" stop-color="#949494"/><stop offset="1" stop-color="#919191"/></linearGradient><radialGradient id="p" cx="429.21982" cy="868.23218" fx="429.21982" fy="868.23218" gradientUnits="userSpaceOnUse" r="2.8678" xlink:href="#D"/><linearGradient id="q" gradientUnits="userSpaceOnUse" x1="404.22742" x2="405.55882" xlink:href="#E" y1="876.54887" y2="879.43178"/><radialGradient id="r" cx="266.2594" cy="237.2213" gradientUnits="userSpaceOnUse" r="2.8678" xlink:href="#D"/><linearGradient id="s" gradientUnits="userSpaceOnUse" x1="241.267" x2="242.5984" xlink:href="#E" y1="245.53799" y2="248.4209"/><pattern id="t" height="100" overflow="visible" patternUnits="userSpaceOnUse" viewBox=".7 -100 100 100" width="100" x="-463" y="-18"><path d="m.7-100h100v100h-100z" fill="none"/><path clip-rule="evenodd" d="m.7-100h100v100h-100z" fill="#988f91" fill-rule="evenodd"/><path d="m39.6-67c.5-.2 1.6-.1 1.4-.8-.3.1-1.2.3-1.4.8z" fill="#8b8384"/><path d="m41.2-68.4c.4.4.3.9.8.9-.1-.3-.2-.7-.5-1 0 .1-.1 0-.3.1z" fill="#8b8384"/><path d="m41.6-81.3c-.3-.2-.5 0-.7.3.1.1.2.3.2.4.2-.1.4 0 .7-.2-.2-.2.1-.3-.2-.5z" fill="#8b8384"/><path d="m42.1-52.6c.2-.2.5-.3.7-.5 0-.2-.2-.5-.4-.7-.3.2-.8.9-.3 1.2z" fill="#8b8384"/><path d="m42.9-51.6c.3.5.6.4 1 .2-.3-.3-.7-.3-1-.2z" fill="#8b8384"/><path d="m40.7-83.4c-.2.2-.4.4-.2.7.2-.2.6-.4.2-.7z" fill="#8b8384"/><path d="m44.5-8.9c-.2-.2 0-.3-.3-.5-.4.2-.1.7.3.5z" fill="#8b8384"/><path d="m44-23.4c0 .1 0 .3.2.5.5-.3.1-.3.1-.7-.1.1-.2.2-.3.2z" fill="#8b8384"/><path d="m40.1-44c.5-.3.4-.7.1-1.2-.3 0-.6.1-.9.4.2.3.5.9.8.8z" fill="#8b8384"/><path d="m44.4-22.5c-.2-.2-.5-.4-.8-.3.2.3.4.5.8.3z" fill="#8b8384"/><path d="m41.6-37.9c0-.3-.3-.4-.3-.6-.2.1-.3.2-.4.3.1.4.2.6.7.3z" fill="#8b8384"/><path d="m42.7-46.1c0-1-1.1-1.1-1.7-.2.1.3 0 .6.1.9.2 0 .4.1.7.1.5-.3.5-.6.9-.8z" fill="#8b8384"/><path d="m42.4-56.9c-.4 0-1.1.4-.8.8.3.1.6.1 1-.2-.3-.2.1-.4-.2-.6z" fill="#8b8384"/><path d="m41.4-41.1c-.4.2-.3.5-.7.8.4.5.8.6 1.2.7-.5-.6.3-1.2-.5-1.5z" fill="#8b8384"/><path d="m40.6-85.9c-.1.1-.5.3-.4.4.3.1.6-.1.4-.4z" fill="#8b8384"/><path d="m44-89.7c-.1.1-.3.2-.4.3.1.3.7.4.7.1-.1 0-.3-.2-.3-.4z" fill="#8b8384"/><path d="m43.1-45.6c-.1.1-.3 0-.4.2 0 .2.2.5.4.3-.1-.1.3-.3 0-.5z" fill="#8b8384"/><path d="m45.1-77.8c-.4 0-.8.4-1.2.6.3.3 1.2-.3 1.2-.6z" fill="#8b8384"/><path d="m44-63.9c.3.3-.3.5 0 .7.4.1.5-.9 0-.7z" fill="#8b8384"/><path d="m43.1-49c-.2-.3.2-.5-.2-.8-.3.2-.4.4-.6.5.3.3.6.3.8.3z" fill="#8b8384"/><path d="m43.5-49.8c.4-.2.6-.5.4-.8-.5-.4-1.1.3-.4.8z" fill="#8b8384"/><path d="m44.2-1.6c.2-.1.1-.2.3-.3-.1-.1-.2-4-.3-4.2-.1.1-.2 4-.4 4.1 0 .2.3.2.4.4z" fill="#8b8384"/><path d="m42.7-9.2c.2.1.3.3.3.5.3-.2.1-.9-.3-.5z" fill="#8b8384"/><path d="m44-8c-.5.2-.8-.4-1.3-.2.3.4 1.1.5 1.3.2z" fill="#8b8384"/><path d="m42.6-33.2c0-.2.3-.4.1-.6-.6.7-.8-.5-1.3-.4-.7.6-1.6 1.1-1.4 1.9.4-.1.8-.1 1.1.4.3-.2.5-.2.8-.1 0 .2 0 .4.1.7.7.4 1.3-.4 1.8-.9-.5-.6-.7-.6-1.2-1z" fill="#8b8384"/><path d="m42.5-6.8c-.2-.3-.1-.5-.5-.4.1-.3.5 0 .4-.3-.3.1-.5 0-.9.3.1.1.2.3.2.4.4-.3.4 0 .8 0z" fill="#8b8384"/><path d="m41.1-29.4c.1.2.1.5.4.5.4-.8-.4-.3-.1-1-.3.2-.5.2-.6 0 .3-.2.6-.1.9-.2-.4-.5-.4-.8-.9-1-.3.3-.5.2-.8.5.3.5-.5.9-.4 1.4.3.3.6.9 1.1.8-.2-.4.1-.3.5-.6-.3-.6-.5-.2-.8-.1-.2-.4.6-.7.7-.3z" fill="#8b8384"/><path d="m49.1-75.6c.1.1.2.2.2.3.1-.1.6-.1.5-.4-.3.3-.4-.2-.4-.3-.1.1-.2.3-.3.4z" fill="#8b8384"/><path d="m50.2-72.9c-.2.1-.3.1-.4.2.3.3.7.7.2 1 .2.4.6.5.6 0-.1.1-.5 0-.3-.2.2-.1.3.2.4.2.1-.1.3-.2.2-.3-.1-.2-.6-.4-.8-.7 0-.1.1-.1.1-.2z" fill="#8b8384"/><path d="m41.2-13c.3-.3-.1-1.2-.6-.9.5.2.1.5.6.9z" fill="#8b8384"/><path d="m47.9-20.2c-.1-.2-.3-.3-.5-.3.1.1-.1.2-.1.4.2.3.4.2.6-.1z" fill="#8b8384"/><path d="m49.3-75.2c-.4 0-1.3.4-1.5.9.4.2 1.3-.2 1.5-.9z" fill="#8b8384"/><path d="m44-43.9c.2.4.5.1.8-.1-.4-.5-.5 0-.8.1z" fill="#8b8384"/><path d="m43.1-42.5c.4.5.1 1.1.3 1.4.5-.3-.1-.7.6-1-.2-.5-.5-.7-.9-.4z" fill="#8b8384"/><path d="m44.8-89.9c-.2.2-.3.4-.4.6.2 0 .8-.1.8-.5-.2.2-.3.1-.4-.1z" fill="#8b8384"/><path d="m39.6-67.5c.3-.2.2-.5-.1-.8-.2.1-.3.1-.4.2-.1.2.2.6.5.6z" fill="#8b8384"/><path d="m39.2-76c.1.5 1.2.9 1.5.6-.4-.1-.8-1-1.5-.6z" fill="#8b8384"/><path d="m44.4-72.7c-.3.2-.4.4-.4.7.2-.3.4-.1.6-.3-.1-.2-.2-.3-.2-.4z" fill="#8b8384"/><path d="m44.9-73.8c-.4.5-.2-.2-.5-.1.1.2-.2 0-.4.3.3.2.2.5.4.7.2 0 .5-.2.7-.3-.1-.3 0-.4-.2-.6z" fill="#8b8384"/><path d="m39.7-23.9c-.1-.1-.2-.3-.3-.4-.2.1-.3.3-.5.4.2.2.5.1.8 0z" fill="#8b8384"/><path d="m40.9-22.1c-.2.2-.5.4-.5.6.2-.2.4-.1.6-.3-.1-.1-.1-.3-.1-.3z" fill="#8b8384"/><path d="m40.4-13.6c-.2-.1-.3-.5-.5-.4 0 .2.3.5.5.4z" fill="#8b8384"/><path d="m41-23c-.2-.3-.5-.4-.8-.5.3.2.5.8.8.5z" fill="#8b8384"/><path d="m39.9-22.3c-.1.2-.2.4-.1.7.2 0 .4-.2.4-.4-.2.2 0-.5-.3-.3z" fill="#8b8384"/><path d="m21.8-11.6c-.2.1-.3.1-.4.2.1.2.2.3.4.2-.1-.1 0-.2 0-.4z" fill="#8b8384"/><path d="m26.8-13.1c-.1.5.3.5.6.8.3-.2 0-.5-.2-.8-.2.1-.3 0-.4 0z" fill="#8b8384"/><path d="m53.1-98.2c.4 0 .7 0 .7.4.5-.2 1-.1 1.5-.8-.2-.4-.3-.7-.7-.6.1.2-.6.4-.6.7-.2-.1-.4-.2-.6-.1.1.1-.6.2-.3.4z" fill="#8b8384"/><path d="m25.9-16c-.3.1-.5.2-.8.1.4.4.3 1.1.8 1.2-.3-.6.5-.7 0-1.3z" fill="#8b8384"/><path d="m27.9-16.8c.2-.2 0-1.1-.1-.8.1.2-.1.5.1.8z" fill="#8b8384"/><path d="m28.7-12.4c.2 0 .7-.1.5-.4-.2.1-.7.1-.5.4z" fill="#8b8384"/><path d="m28-15c-.1-.1-.2-.3-.3-.4-.1.1-.2.1-.3.2.2.2.4.4.6.2z" fill="#8b8384"/><path d="m37.6-24.1c0-.2-.2-.4-.4-.3 0 .1.2.4.4.3z" fill="#8b8384"/><path d="m36.6-22.8c-.2-.3-.4-.3-.6-.3.2.3.4.4.6.3z" fill="#8b8384"/><path d="m31.8-17c-.3-.1-.5-.3-.8-.1-.1.4.2.4.5.6.2-.2.3-.3.3-.5z" fill="#8b8384"/><path d="m37.8-11.4c.4-.3.4-.6.1-.9-.3.1-.7.2-.9.5.2.5.8 0 .8.4z" fill="#8b8384"/><path d="m37.7-20.5c-.2-.2-.4-.1-.3-.4-.5.2 0 .7.3.4z" fill="#8b8384"/><path d="m38.2-13.8c-.2-.2-.5-.2-.7-.2-.1.2-.3.8.2.8 0-.3.5-.2.5-.6z" fill="#8b8384"/><path d="m37.1-24.9c-.3-.5-.7-.3-1.1.1.1.5.9.4 1.1-.1z" fill="#8b8384"/><path d="m19.2-27.8c.1.1.2.3.3.4.3-.2.5-.2.9-.5-.2-.4-.5-.4-.8-.4 0 .2-.2.4-.4.5z" fill="#8b8384"/><path d="m34.6-17.2c.1-.1 0-.3-.1-.5h.8s-.3-.1-.9-.1c-.1-.1-.3-.2-.4-.2 0 0 0 .1.1.1-3.6-.1-14.3-.1-15.1-.2.7.2 11.6.3 15.1.4.1.2.2.5.5.5z" fill="#8b8384"/><path d="m27.7-26.9c-.1.1-.3 0-.4.2.1.1 0 .3.2.4.1-.2.3-.4.2-.6z" fill="#8b8384"/><path d="m26.2-28.9c.2.3.4.6.7.5-.3-.2-.4-.7-.7-.5z" fill="#8b8384"/><path d="m24-23.8c-.2-.3-.4-.3-.7-.1 0 .2.2.5.4.5.2-.1.1-.3.3-.4z" fill="#8b8384"/><path d="m32.8-13.1c.2-.1.3-.2.4-.2-.1-.3-.2-.3-.5-.3.2.2-.1.4.1.5z" fill="#8b8384"/><path d="m31-16.4c-.2 0-.6.1-.6.3.1.1.1.2.2.2.2 0 .7-.3.4-.5z" fill="#8b8384"/><path d="m32.1-11.9c.2.8.8.7 0 0z" fill="#8b8384"/><path d="m34.9-15.4c-.1-.2-.3-.2-.5 0 .1.1.2.2.2.3.2 0 .3-.2.3-.3z" fill="#8b8384"/><path d="m43.1-28.7c-.4.3-.6.1-1 .5.1 1.4 2.1.4 1-.5z" fill="#8b8384"/><path d="m35.1-12.2c-.1-.2-.3-.4-.5-.3.1.2-.2.3-.1.4.2.1.4.2.6-.1z" fill="#8b8384"/><path d="m29.9-11.9c.3-.3.1-.5.6-.5-.3-.4-.8.3-.6.5z" fill="#8b8384"/><path d="m45.8-48.1c-.1.1-.2.1-.3.2.1.3.4.8 1 .5-.3-.3-.5-.7-.7-.7z" fill="#8b8384"/><path d="m45.5-28.6c.3 0 .2-.3.5-.2-.1-.2-.3-.3-.4-.2 0 .2-.3.3-.1.4z" fill="#8b8384"/><path d="m45.3-37.5c.2.3.5.4.8.3s.1-.3.2-.4c-.2-.3-.5-.5-.8-.4.3.2-.1.3-.2.5z" fill="#8b8384"/><path d="m46.4-35c-.3.2-.3-.5-.1-.3-.2.1.2.2.3.2-.1-.3-.3-.6-.6-.6-.4.2-.3.4-.6.6.3.2.1.4.3.6.3.1.7-.1.7-.5z" fill="#8b8384"/><path d="m46.7-16.7c.1 0 .1 0 0 0z" fill="#8b8384"/><path d="m46.8-17s.1 0 0 0c-.1-.1-.3-.4-.6-.2 0 .2.4.4.5.5 0-.1-.1-.2.1-.3z" fill="#8b8384"/><path d="m45.6-78.1c-.2-.2-.1-.6-.5-.4.3.5.6.9 1.2.5-.2-.2 0-.4-.2-.6-.2-.1-.2.3-.5.5z" fill="#8b8384"/><path d="m42.4-23.6c.1.3.3.1.4.3.6-.3.2-.7.3-1.1-.1.1-.3 0-.4 0 .1.4.1.6-.3.8z" fill="#8b8384"/><path d="m43.1-18.6c.3-.1.1-.6-.1-.5-.1.2-.3.5.1.5z" fill="#8b8384"/><path d="m44.1-46.8c-.2.2-.2.3-.3.5.1.1.2.3.3.4.8-.5-.4-.4.4-.7 0-.3-.2-.1-.4-.2z" fill="#8b8384"/><path d="m46.9-40.8c-.1-.3-.4-.5-.7-.5.3.2.5.4.7.5z" fill="#8b8384"/><path d="m46.1-67.4c-.4-.5.5-.5.3-.9-.2.2-.3 0-.5.3.1.3-.5.6.2.6z" fill="#8b8384"/><path d="m39.3-33c0-.4-.5-.4-.6-.1.2.3.4.1.6.1z" fill="#8b8384"/><path d="m43.2-94.6c-.2 0-.1-.1-.2-.2.1-.4.2-.9.3-1.2-.1 0-.2 0-.3.1-.1-.1-.2 1.8-.4 2.8.1-.2.1-.4.2-.7 0 .5 0 1.2.1 1.8.2-.8.8-3 .3-2.6z" fill="#8b8384"/><path d="m43.4-95.5c.2-.2 0 .5.3.2.1-.3.3-.2.6-.5.1-.1-.2-.3-.1-.5.2-.1.3-.3.4-.4.2.1.7.2.7 0-.1.1-.3-.1-.2-.2.2-.2.4.1.7-.2-.3-.5-.7-.4-1.1-.2.3.5-.4 1-.7 1 .4-.3-.5-.1-.3-.5-.1 0-.2.3-.3.8.3 0 .5.1.7.2-.2 0-.7-.1-.7.3z" fill="#8b8384"/><path d="m42.5-92.9c.1.1 0 .2 0 .4.1-.1.1-.3.2-.6-.1.1-.1.2-.2.2z" fill="#8b8384"/><path d="m38.7-12c-.2.1-.3.2-.3.3.1.1.2.1.3.2.2-.1.2-.3 0-.5z" fill="#8b8384"/><path d="m38.7-27.9c-.2-.4-.6-.3-.9-.1.1-.2.1-.4-.3-.5.2.2.2.4 0 .5-.4-.5-.5-1-1.1-.9.1.2.2.4.1.5-.2.1-.3-.3-.5-.1-.2.3-.2.6-.3.9-.4-.1-.6.2-1.1.3-.1.9.5 1.5.7 2.1.1-.6.6-.3 1-.5.1-.2.3-.3.3-.5-.2.3-.3-.1-.4-.2.2-.1.3-.1.4-.2-.3-.3 0-.5-.1-.8.5-.5.7.4 1.2.1-.1-.1-.1-.2-.1-.2.1.1.2.1.3.2.5-.1.3-.2.8-.6z" fill="#8b8384"/><path d="m46.7-48.7c.3-.3.4.5.7.4-.1-.1-.1-.2-.2-.2.1-.1.2 0 .2-.1-.1-.5-.7-.5-.7-.1z" fill="#8b8384"/><path d="m47.1-94.4c0 .3.1.1.2.3.4-.2.1-.6-.2-.3z" fill="#8b8384"/><path d="m46.5-64.2c.2 0 .4 0 .6-.1-.1-.2-.2-.1-.3-.2-.1 0-.3.1-.3.3z" fill="#8b8384"/><path d="m41.9-94.3c0-.2.1-.4.1-.6-.3.2-.5-.2-.8.2.2.3.4.8.7.4z" fill="#8b8384"/><path d="m47.1-92.7c.2 0 .5 0 .7-.3-.3-.3-.6-.5-.9-.4.1.2-.1.4.2.7z" fill="#8b8384"/><path d="m40-90.7c-.6.2-.3.4-.2.8.8-.6 2.6.1 2.2-1.3.3.1.6.7 1 .5 0-.1 0-.7 0-1.4v.2c0 .1 0 .1 0 0-.2-.2-.8-.1-.8-.3.1.2.3-.3.3-.3-.2.1-.4.3-.6.5.1.3.4 0 .6.2-.4.2-.2.4-.5.6-.1-.1-.1 0-.2-.1.1-.5-.5-.5-.7-.6-.3.5-.5.1-.9.7.2.3.6 0 .3.4-.1-.1-.2-.3-.4-.1.1.3.4.3.5.3-.1.1-.3.2-.4.3-.1-.1-.2-.1-.3-.2 0 0 .2-.1.1-.2z" fill="#8b8384"/><path d="m98.3-52c.3.7-.5 1.9.1 2.1 0-.7.2-1.7-.1-2.1z" fill="#8b8384"/><path d="m67.1-81.8c.3.3-.2.5.2.7.4-.3.5-.1.6.2.3-.3.5-.1.8-.2-.2-.7.8-.3.9-.8-.2 0-.4.1-.5-.1.5-.3.2-.7-.1-.8-.3.3-.5.1-.9.1 0 .4.6.6.4.8-.7-.1-.9.3-1.4.1z" fill="#8b8384"/><path d="m75-98.8c-.1-.1-.2-.2-.4-.1 0 .2-.4.6 0 .6 0-.2.5-.3.4-.5z" fill="#8b8384"/><path d="m82.9-96.5c.2.2 0 .3.2.5.4-.2.1-.8-.2-.5z" fill="#8b8384"/><path d="m82.8-64.9c.1.2.3.4.4.6.2 0 .4-.1.6-.3 0-.3 0-.4-.4-.5.2-.1.3.1.5-.1-.2-.4-.4-.1-.6-.3-.3.2-.1.5-.3.7-.1-.1-.1-.2-.2-.1z" fill="#8b8384"/><path d="m69.8-89.9c-.5.4.4.7.7.9-.1-.2.2-.4.4-.6.2.2.5.4 1 0-.3-.5-.5-1 .1-1.3-.4-.5.5-.9 0-1.5-.2.2-.5.4-.7.4.1.2.1.3-.1.4-.1-.3-.1-.4-.4-.3-.2-.2.2-.3.1-.4-.3.2-.4-.3-.7-.1-.1.4 0 .7.5.8-.1.2-.1.4-.4.4.4.5.7.3 1 .4-.1.3.2.1.3.2-.3.2-1.7 1-1.8.7z" fill="#8b8384"/><path d="m71.8-97.3c-.4-.5-.6-1.1-1-.2.1.2.3.4.4.6.7.1 1.7 0 2 .9.6-.3.8 0 1.3-.1.3.7 1.2 2 2.1 1.9-.4-.2-1.1-.5-1-1.1.2.2.4.1.7.1-.1-.1-.2-.3-.3-.4-.3.2-.6.2-.9.2-.1-.1 0-.2-.2-.4.2-.1.3.1.5-.1-.2-.4-.6.2-.8-.1.2-.6-.2-1.9-.9-2.3 0-.2.4-.4.3-.6-.4.2-.2-.2-.2-.4-.2.2-.3.2-.5 0-.5.5-.9.6-1.1 1.1.2.3.4.5.3.8-.4.1-.6 0-.7.1z" fill="#8b8384"/><path d="m75.7-98.2c-.2-.3-.4-.1-.7 0 .3.4.3 0 .7 0z" fill="#8b8384"/><path d="m98.6-78.5c.4-.2.8-.2 1.3-.6 0-.5-.3-.6-.2-1-1.1-1.1-3 1.2-1.1 1.6z" fill="#8b8384"/><path d="m98.9-83.9c.4-.1.7 0 1.1-.3-.3-1.3-1.2-.5-1.1.3z" fill="#8b8384"/><path d="m84.3-57.1c-.2-.2 0-.3-.2-.3-.1.1-.2.2-.2.3.2.3.5.2.7.1 0-.1-.1-.5-.3-.4-.1.2.4 0 0 .3z" fill="#8b8384"/><path d="m98.3-94c-.3.2-.2.7.1.5-.1-.1.1-.3-.1-.5z" fill="#8b8384"/><path d="m99.6-94.1c.2-.2.5-.4.7-.5-.3-.5-1 .1-.7.5z" fill="#8b8384"/><path d="m55.8-80.2c.3.3-.2.5.1.8.7.1.5-1.2-.1-.8z" fill="#8b8384"/><path d="m57.8-59.2c.7-.5 1.3-.5 2.2-1-.5-.6-1-.7-1.5-1 .6.5.3.9.3 1.3-.4 0-.6.2-.9.6-.3-.3-.6-.4-.9-.4.2.3.5.3.8.5z" fill="#8b8384"/><path d="m61.8-96.5c.2.2.4.2.6.1 0-.4-.5-.5-.6-.1z" fill="#8b8384"/><path d="m60.4-64.6c.7-.2 1.1-.4 1.7-.7-.1-.1-.2-.2-.1-.3.5-.6.6.5 1 .2 0-.3-.1-.5.1-.7-.3-.3-.5-.7 0-.7-.1-.2-.5-.2-.4 0 .3.2-.3.5-.3.9-.5-.3-.7.4-1.2.3-.1.2.4.2.1.5-.2-.1-.7.2-.9.5z" fill="#8b8384"/><path d="m68-89.8c.3 0 .3.1.4.3.2-.1.3-.2.3-.3-.1-.4-.4-.1-.5-.3.1-.1.1-.4-.1-.2.2.2-.2.3-.1.5z" fill="#8b8384"/><path d="m60.8-88.9c.1.7 1.2 1 1.6.2-.1-.4-.7-.1-.6-.4.3-.4.8.1.7-.4-.4.1-.8-.3-1.3.2.1.1.3.3.2.4-.2-.2-.4-.2-.6 0z" fill="#8b8384"/><path d="m62.4-97.9c-.3.2-.5-.1-.8.2 0 .2 0 .6.3.6.3-.1.1-.3.2-.4.3-.1 0 .4.3.2 0-.2.4-.3 0-.6z" fill="#8b8384"/><path d="m68-92.3c.3-.2.5-.4.6-.7-.1.1-.2 0-.4 0 .3.3-.5.5-.2.7z" fill="#8b8384"/><path d="m65.2-92.6c.2.2 0 .6.3.6.6-.3.2-.9-.3-.6z" fill="#8b8384"/><path d="m65.7-67.9c-.7.5 0 1.1-.3 1.7-.1-.1-.2-.1-.3-.2-.3.4-.7 1.2-.6 1.2.4-.4 1-.3 1.4 0 0 .2-.3.3-.4.3.3.5 1.4-.4.9-.6.3.1.6.3 1 0-.2-.2-.4-.4-.2-.6.2 0 .3-.1.5-.3-.1-.3.1-.6-.3-.9-.4.1.3.4-.2.5-.3-.2-.7-.8-.3-.8-.4-.1-.3-.9-.9-.6.1.2.2.4.2.6-.3.5-.5 0-.5-.3z" fill="#8b8384"/><path d="m64.2-77c.3.2.2.5.6.6.2-.3-.2-.9-.6-.6z" fill="#8b8384"/><path d="m65-71.7s.2-.4.1 0c.3-.4.4 0 .7-.2.2-.1-.1-.3.2-.4-.2-.4-.5-.6-.8-.7-.3.2-.2.5-.3.7-.4 0 0-.4.1-.6-.5-.2-.8.1-1.4-.3.1.7.5 1.7 1.4 1.5z" fill="#8b8384"/><path d="m64.2-82.1c-.1.3.3.6.2.8.2 0 .4-.1.5 0 .4-.3-.1-.7.6-.9-.2-.6-1.1-.1-1.3.1z" fill="#8b8384"/><path d="m100.5-43.7c-.3.3-.8.2-.8.6.2-.1.3-.1.4.1-.1 0-.1.1-.2.1 0 .2 1.1-.4.6-.8z" fill="#8b8384"/><path d="m100.4-59.4c.1-.1.2-.1.2-.1v-.5c-.1-.1-.2-.2-.2.1.4-.1-.1.4 0 .5z" fill="#8b8384"/><path d="m100.7-54.2c-.3-.3-.5-.4-.6-.8-.2.1-.3.1-.4.2.3.4.7.6 1 .7z" fill="#8b8384"/><path d="m99.5-40.2c.2-.1-.2-.6-.4-.3 0 .1.2.6.4.3z" fill="#8b8384"/><path d="m100.3-42.9c-.3.3-.8.2-.8.6.2-.1.3-.1.4.1-.1 0-.1.1-.2.1 0 .1 1.1-.5.6-.8z" fill="#8b8384"/><path d="m100.3-63.2c-.2-.3-.4-.3-.6 0 .1.1.2.3.3.4.2-.2.1-.3.3-.4z" fill="#8b8384"/><path d="m98.7-74.5c0 .2-.2.4.1.7.3-.2.2-.7-.1-.7z" fill="#8b8384"/><path d="m97.5-43c.3-.1 0-.3-.1-.4-.4.2-.1.4-.5.6-.1-.2-.3-.7-.4-.5 0 .2.2.7.5.6 0-.1.4-.6.5-.5 0 .1-.1.1 0 .2z" fill="#8b8384"/><path d="m94.3-27.5c0-.2.2-.6-.2-.7-.1.1-.2.1-.3.2 0 .3.3.6.5.5z" fill="#8b8384"/><path d="m97.6-53.9c.2.2 0 .9.3.6 0-.1-.1-.6-.3-.6z" fill="#8b8384"/><path d="m99.5-83.8c-.8.8-.5 1.2.1 2.1.4-.2.7.1 1.1-.2v-.8c-.2-.5-.5-.9-1.2-1.1z" fill="#8b8384"/><path d="m100.4-73.9c.1.2 0 .3.1.5 0 0 .1-.1.1-.1v-.5s-.1 0-.2.1z" fill="#8b8384"/><path d="m99.2-60.7c-.2-.2-.3-.5-.5-.3-.1.2.2.5.5.3z" fill="#8b8384"/><path d="m97.9-31.8c.4-.2.3-.4.3-.6-.2.4-.3-.2-.4 0 0 .3-.3.5.1.6z" fill="#8b8384"/><path d="m27.5-19.2c-.5.2-5 .2-4.7.8.5-.2 4.5-.5 4.7-.8z" fill="#8b8384"/><path d="m99.4-63.8c.1.1 0 .2.2.4.1-.1.2-.1.3-.2-.2-.2-.3-.5-.5-.2z" fill="#8b8384"/><path d="m99.2-48.6c-.4-.3-.3-.6-.3-.9-.1-.1-.3.2-.5.1 0 .4.5.7.8.8z" fill="#8b8384"/><path d="m98.3-14.1c0 .1.1.5.3.4 0-.2 0-.5-.3-.4z" fill="#8b8384"/><path d="m98.2-29.3c-.3.2-.2.5 0 .7.3-.1-.2-.4 0-.7z" fill="#8b8384"/><path d="m99.7-43.7c.4-.2-.1-.5-.3-.5 0 .1.1.3.3.5z" fill="#8b8384"/><path d="m99.4-58.1c.1.2.3.3.5.1-.2-.2-.3-.3-.5-.1z" fill="#8b8384"/><path d="m99.6-45c0 .2.1.4.3.5.4-.2-.1-.4-.3-.5z" fill="#8b8384"/><path d="m99.7-68.4c.3-.2.2-.8-.3-1.3-1.4.6-.2 1.7.3 1.3z" fill="#8b8384"/><path d="m94.7-30.5c-.2-.5-.4-.6-.8-.7-.1.3.1.3.2.8.2-.1.3.1.6-.1z" fill="#8b8384"/><path d="m95.6-80.7c-.1.1-.2.1-.3.2-.1.3.6.9.6.4-.4 0 .1-.4-.3-.6z" fill="#8b8384"/><path d="m52.4-50.4c-.2-.2-.4-.1-.7-.1.4.4.4.7.3 1 .5-.3.6-.6.4-.9z" fill="#8b8384"/><path d="m51.9-45.8c-.2-.4-.6 0-.7.2.1.1.1.2.2.2.3-.1.2-.2.5-.4z" fill="#8b8384"/><path d="m54.7-81.5c.3.2-.2.4-.1.7.4 0 .9-.5.5-.8-.1 0-.2-.1-.4.1z" fill="#8b8384"/><path d="m52.1-73c.3-.2-.1-.5.2-.8h.4c.1.3-.2.5 0 .7.6-.1.3-.7.3-1.1.3.1.8 0 .8.5.4-1.2-3.1-1-1.7.7z" fill="#8b8384"/><path d="m57.3-71.5c.1 0 .1-.1.2-.1.1.1.1.2.1.3.1-.1.2-.1.3-.2-.1-.1 0-.1 0-.2-.3 0-.7-.1-.6.2z" fill="#8b8384"/><path d="m51.5-55.8c-.1-.1 0-.3-.2-.4-.2.1-.3.3-.4.4.2.3.4.2.6 0z" fill="#8b8384"/><path d="m52.1-55.4c-.3.2-.7.3-1 .7 0 .7.7 1.4 1.4.9-.6-.2.2-.7-.5-.4-.2-.2.5-.3.2-.4-.3 0-.3 0-.4.3-.1-.1-.2-.2-.2-.3.3 0 .3-.2.5-.4.2.2.4.3.6.3-.1-.5-.4-.3-.6-.7z" fill="#8b8384"/><path d="m51.4-79.8c.2-.3.5-.5.5-.8-.7-.9-1.5.6-.5.8z" fill="#8b8384"/><path d="m51.3-89.1c.3.2-.1.3.1.5.3 0 .4-.4.2-.6-.1.1-.2 0-.3.1z" fill="#8b8384"/><path d="m51.6-83.4c-.2.7 1 .9 1.2.2-.2-.2-.7-.4-1.2-.2z" fill="#8b8384"/><path d="m52.1-98.2c.1-.1 0 .5.4.3 0-.2-.4-.8-.4-.3z" fill="#8b8384"/><path d="m52.1-96.4c.2-.1.5 0 .7-.3-.2-.2.2-.3.2-.5-.5-.5-1 .4-.9.8z" fill="#8b8384"/><path d="m54.9-93.9c-.3-.3-.1-.5-.5-.8-.1.1-.2.1-.3.1-.2.3.3 1.3.8.7z" fill="#8b8384"/><path d="m53.7-15.3c-.1.1-.2-.1-.4 0 .2.1-.1.5.2.3-.1-.2.4 0 .2-.3z" fill="#8b8384"/><path d="m53.9-32.7c-.2.2-.4.3-.6.5.3.1.6.2.9-.1-.2-.2-.2-.3-.3-.4z" fill="#8b8384"/><path d="m55-58.4c.1-.5-.5-.7-.1-1.2-.1-.2-.3-.4-.5-.4-.5.3-.2.6-.2.9-.2-.2-.5.2-.8.2.1.2-.3.4 0 .6.2-.2.3-.4.6-.3-.1.2.1.1.2.1 0 .3.6 1.4 1.1 1.6-.1-.7-.9-1.1-.3-1.5z" fill="#8b8384"/><path d="m55.3-93.1c.5.2-.1.4.1.7.3 0 .3-.3.5-.5-.2-.2-.3-.4-.6-.2z" fill="#8b8384"/><path d="m56.8-56.8c0-.2-.2-.4-.3-.6-.2.1-.1.3-.4.4.1.3.4.4.7.2z" fill="#8b8384"/><path d="m54.1-49.9c.1-.3-.3-.5-.5-.3-.1.3.2.4.5.3z" fill="#8b8384"/><path d="m53.8-45.2c.1.6-.2.6.3 1.1.3-.2.5.3.8.1-.2-.2-.4-.2-.6-.3.1-.3.1-1-.5-.9z" fill="#8b8384"/><path d="m51-65.6c.2-.2.4-.3.2-.5-.1.1-.2 0-.3.1 0 .2-.1.3.1.4z" fill="#8b8384"/><path d="m55.2-26.6c-.3-.5-.8-.4-1 .1.3.6.7.3 1-.1z" fill="#8b8384"/><path d="m54.5-36.4c-.1-.1-.2-.2-.2-.3-.1.1-.2.1-.3.2.1.2.3.3.5.1z" fill="#8b8384"/><path d="m54.9-96.4c0-.3.2-.5-.1-.8-.2 0-.3.1-.5.3.1.3.2.7.6.5z" fill="#8b8384"/><path d="m52.2-41.9c0-.2.1-.4-.2-.6-.2 0-.3.1-.5.3 0 .2.1.3.3.5.2-.2.3-.2.4-.2z" fill="#8b8384"/><path d="m56.9-31.4c.5-.3.1-.6 0-.9-.4.2-.2.5 0 .9z" fill="#8b8384"/><path d="m58.5-50.6c-.8.3-1.5.5-2.2.4.4.4.8.7 1.3.8.3-.6.8-.7.9-1.2z" fill="#8b8384"/><path d="m58.7-79.6c-.1.6.5.6 1 .5 0-.5-.6-.7-1-.5z" fill="#8b8384"/><path d="m57.4-30.3c-.3-.3 0-.5-.2-.8-.4 0-.6-.1-.8-.4.1.6.6 1 1 1.2z" fill="#8b8384"/><path d="m56.3-49.5c.1.5.1.5.1.9.3-.2.4.2.7-.2-.4-.2 0-.5.2-.4-.2-.4-.6-.4-1-.3z" fill="#8b8384"/><path d="m58.6-89c.3 0 .8-.4.6-.7-.4.4-.3-.2-.4 0 0 0 0 .1-.1.1 0-.2.4-.4.3-.6-.1.1-.3.2-.4.3.1.3-.4.6 0 .9z" fill="#8b8384"/><path d="m57.6-59.8c.4 0 .5-.6.5-.8-.1 0-.1-.2-.2-.1.1.2-.5.5-.3.9z" fill="#8b8384"/><path d="m57.5-99.1c.2.1.4.4.7.2-.1-.3-.4-.4-.7-.2z" fill="#8b8384"/><path d="m58.2-60.9c0 .2.1.4.1.5.5-.1.2-.7-.1-.5z" fill="#8b8384"/><path d="m57.6-79.2c.3.3.5.4.8.5-.1-.2.4-.3.2-.5-.4.2-.6-.2-1 0z" fill="#8b8384"/><path d="m59-69.8c.2.5.6.3.9.4-.1-.3 0-.6-.3-.9-.3 0-.3.3-.6.5z" fill="#8b8384"/><path d="m50-70.7c-.3-.5-.8-.3-1.2-.7-.1.3-.3.7-.5 1 .3-.3.8-.1.7.2.3-.3.7-.4 1-.5z" fill="#8b8384"/><path d="m48.9-18.6c.1-.4-.3-.5-.5-.7-.2.2-.6.3-.4.6.3-.2.6.2.9.1z" fill="#8b8384"/><path d="m50.6-59.8c.1.4-.1.4-.2.3.1.3-.2 0-.3.1.1.3.3.1.3.5.3 0 .1-.2.4-.3.1.3.3.2.5.4-.4 0-.1.3-.5.5-.1-.1.1-.6-.2-.5.2.4-.1 0-.2.1-.1.3.3.2.1.4-.2-.1-.5.1-.7-.4.1-.1 0-.2.2-.3 0 .2.4.2.3 0 0-.2-.5-.3-.5-.8-.4.3-.3.6-.8.8.7 2.7 3.7-.2 1.6-.8z" fill="#8b8384"/><path d="m48.7-72.8c.1.1 0 .2.2.4.4-.1.1-.7-.2-.4z" fill="#8b8384"/><path d="m48.5-40.4c-.2-.3-.4-.2-.6-.3.2.3.3.6.6.3z" fill="#8b8384"/><path d="m48.7-54.1c-.3 0-.7.4-.7.6.2-.1.5-.1.7-.3 0-.1 0-.2 0-.3z" fill="#8b8384"/><path d="m53.3-37.4c.1-.3-.4-.4-.7-.1.2.4.5-.1.7.1z" fill="#8b8384"/><path d="m55.3-32.9c.1.1-.1.2-.1.4.2.3.4.3.7.1-.1-.3-.4-.6-.6-.5z" fill="#8b8384"/><path d="m56.6-45.3c.1.1 0 .2.1.2-.1-.1 0-.2-.2-.4-.1.1-.2.2-.3.1.2-.1.3-.2.4-.2-.1-.3-.3-.1-.5-.1.3.3-.1.2-.1 0-.3.2-.3.3-.3.5-.1-.1-.4.2-.5.1.1-.2.1-.3-.1-.3-.2.1-.1.3-.4.4-.1 0-.1-.2-.2-.1.4.2.7.4 1.1-.1.2.3.5.4.8.5.4-.2 0-.4.2-.6z" fill="#8b8384"/><path d="m50.4-9.8c-.2-.3-.4-.2-.6-.2.1.2.3.6.6.2z" fill="#8b8384"/><path d="m57.1-36.9c-.5-.4-.2-1.1-.8-1.4-.2.1-.3.2-.4.3.3.4.5 1.7 1.2 1.1z" fill="#8b8384"/><path d="m49.8-29.3c.1.1.2.2.2.3.2-.1.3-.3.2-.4-.2.1-.2.1-.2-.1-.1.1-.1.1-.2.2z" fill="#8b8384"/><path d="m99.1-71.4.3-.3c-.1-.1-.2-.5-.4-.3.3.2 0 .4.1.6z" fill="#8b8384"/><path d="m10.5-42.5c-.2-.3-.8-.3-.6.1.2-.1.4 0 .6-.1z" fill="#8b8384"/><path d="m9.5-22.6c0 .2 0 .3.1.5.4-.2.2-.7-.1-.5z" fill="#8b8384"/><path d="m11.2-47.4c-.1 0-.1.1-.2 0-.1 0-.1.1-.2.1 0 0 .1.1 0 .1 0 .1.1.1.1.2.1 0 .1-.1.1 0 .1-.1.1-.1.2-.1 0-.1-.1-.1 0-.1.1-.1.1-.1 0-.2z" fill="#8b8384"/><path d="m10-51.2c-.1-.2-.1-.5-.5-.3.3.1.1.5.3.4 0-.1.1-.1.2-.1z" fill="#8b8384"/><path d="m13.2-6.2c-.4 0-1.1-.7-1.6-.9.1.1.1.2-.1.4-.3-.2-.1-.5-.4-.5-.2.3-.4.7-.8.8.2.9.9 4.8 1.1 5.7.9-1 .9.2 1.6-.1-.4-.5.2-.6.3-1.1-.3.1 0-4.1-.1-4.3z" fill="#8b8384"/><path d="m10.6-65.5c0 .3-.1.6.3.9.8-.5.2-1.1-.3-.9z" fill="#8b8384"/><path d="m10.7-45.2c.6-.6.1-.9-.1-1.4-.6.4-.5 1.2.1 1.4z" fill="#8b8384"/><path d="m11.7-73.5c.1.1.2 0 .4.1.3-.2.3-.4.4-.6-.2-.3-.5-.2-.7-.2 0 .2-.4.4-.1.7z" fill="#8b8384"/><path d="m12.1-90.5c-.1.1-.2.1-.3.2.2.2.4.5.5.7.3-.2.2-.8-.2-.9z" fill="#8b8384"/><path d="m13.2-68.6c-.2-.3-.5-.3-.8-.1.2.2.5.4.8.1z" fill="#8b8384"/><path d="m20-83.1c-.1-.3-.1-.6.2-.9.7-.4 1.2-.4 1.5 0-.1-.8 1.6-.4 1.2-1.2-.3.1-.4.5-.5.4-.1-.3 0-.6-.3-.9-.1 0-.2 0-.2-.1-.2.1-.3.3-.5.4-.1.1.2.3.1.4-.4-.3-.4.3-1 .3.1.2.3.1.2.2-.3 0-.5-.3-.8-.1 0 .3.5.1.3.4-.4-.2-1 .3-1.6.5 0 .2.1.4 0 .5-.2.1-.3-.1-.5 0-.1.1-.1.2-.4.8.2.3.5.2.3.5-.2.2-4.2-.2-4.4-.1-.1.5 4.5.4 4.4.8.1-.7.7-1.9 2-1.9z" fill="#8b8384"/><path d="m12-55.4c0 .2.2.4.3.6.2-.2.4-.1.6-.3-.2-.4-.6 0-.9-.3z" fill="#8b8384"/><path d="m14.7-66.4c.5-.3 0-1-.4-.6 0 .4.1.5.4.6z" fill="#8b8384"/><path d="m16.2-30.6c.2-.2.4-.7 0-.7.2.2-.1.4 0 .7z" fill="#8b8384"/><path d="m17.2-38.2c0 .3.1.7.5.5-.1-.1 0-.2.1-.3-.2-.1-.4-.4-.6-.2z" fill="#8b8384"/><path d="m15.6-60.2c.2.4.6.3 1 .2-.1-.5 0-.8-.6-1-.1.1-.2.1-.3.2s.4.4-.1.6z" fill="#8b8384"/><path d="m16.9-49.5c-1-1.6-1.6.9-.1.2-.1-.1 0-.1.1-.2z" fill="#8b8384"/><path d="m14.9-74.6c-.8-.3-.9.9-.2 1 .2-.1.3-.2.4-.3 0-.2.1-.5-.2-.7z" fill="#8b8384"/><path d="m16-48.1c.1-.1.2.2.4.1-.2-.1.1-.6-.3-.5.2.1-.2.2-.1.4z" fill="#8b8384"/><path d="m17.9-35.4c-.3-.1-.5-.2-.8 0 .1.4.3.7.7.9.3-.3.4-.6.1-.9z" fill="#8b8384"/><path d="m17.8-21.8c-.2-.3-.4-.3-.7-.1 0 .2 0 .3.2.5.3-.3.5-.1.5-.4z" fill="#8b8384"/><path d="m16.1-56.6c.4.3.4.5.5 1 .2-.4.2-.8-.1-1.2-.2.1-.3 0-.4.2z" fill="#8b8384"/><path d="m17.6-9.5c0-.3 0-.6-.3-.9-.4-.1-.7.3-.9.7.4.4.8.4 1.2.2z" fill="#8b8384"/><path d="m12.3-60.9c.2-.3.4-.6.2-.8-.1 0-.2-.3-.6-.2 0 .2-.3.5-.4.7.3.4.6 0 .8.3z" fill="#8b8384"/><path d="m17.4-11.6c-.3-.1-.3-.9.2-.9-.4-.2-.5.1-.5-.4-.5.2-.8.5-1 .9.2.2.3.4.5.6.2-.1.5 0 .8-.2z" fill="#8b8384"/><path d="m27.3-84.5c.2-.2.1-.3.3-.3h-.1c-.1.1-.3.2-.2.3z" fill="#8b8384"/><path d="m26.8-83.6c-.1.3.1.4.3.5 0-.1.1-.1.2-.2-.2-.1-.4-.2-.5-.3z" fill="#8b8384"/><path d="m27.2-83.1c-.1 0 0 0 0 0-.2.1-.3.3-.4.5.1.1.3.1.3.2v.3s.1 0 .1-.1v.1c-.1.1-.6.1-.5.3.1-.1.2.1.3.2.3-.4.4-.5.5-.6.1 0 .2 0 .3-.2-.1-.2-.2-.2-.2-.3-.3 0-.1-.1.2-.4-.3 0-.5 0-.6 0z" fill="#8b8384"/><path d="m25.4-81.6c-.2-.2-.4-.2-.5-.5-.2.3-.3-.1-.6.2-.3.6-.9.7-1.6 1.1.5.5 1.7-1.3 2.4-.5-.2.1-.3-.1-.5.1v.1c-.2-.1-.5-.1-.7.2.1.3.7.8 1.1.5.1-.2 0-.4-.2-.6.2.1.5-.1.5-.3-.4.2.2-.2.1-.3z" fill="#8b8384"/><path d="m25.7-81.6c0-.1.2-.3.4-.4 0 .3.1.1.2.5.4-.3-.4-.7-.5-.7 0 .2-.4.7-.1.6z" fill="#8b8384"/><path d="m30.1-87c.3.4-.2.7.1 1 .5-.4.4-.4.5-.8-.1.3.7.2 1 .5 0 .1-.1.2-.2.3.2 0 .3.1.4.3.2.1.1-.1.4-.2 0-.2-.2-.8-.5-.8-.1-.3.9-.2.5-.6.2-.1.4 0 .6.1.7-.4 1.4-.6 1.7 0-.5-.1-1 .1-1.4.2.1.1.3.3.3.5-.3.2-.4-.3-.7.2.4.2.7.3.5.8.1.1.3.1.5-.1 0 .2-.4.4-.2.6.3 0 .6-.2.8.3-.3.2-.4-.1-.7 0-.3.2-.1.4-.3.6-.3.1-.5.3-.7 0 .2-.2.3 0 .4 0 .3-.1-.1-.4 0-.5-.1-.1-.1.1-.3.2-.1-.3-.1-.6-.1-.8-.1 0-.1 0-.2-.1-.2.1-.2.3-.1.4-.2-.1-.4 0-.6-.2-.1.2-.3.4-.2.6.2-.1.7-.4 1-.1-.4.2-.4.5-.4.7-.9.1-1.7.9-2.5 1-.3-.5-.6 0-.7.3-.3.1-.7-.2-.5-.5-.3-.1-.2.2-.5.2-.2-.1-.3-.2-.5-.3.1 0 .2-.1.1-.2 0 .1-.1.1-.1.2 0 0 0 0-.1 0s-.2-.1-.3-.1c.1-.1.3-.2.5-.2.2-.3-.2-.2-.3-.4h.1c-.2.1-.4.2-.5.2 0 0 0 0-.1 0s0 0 0-.1h.1.2.2c0-.1-.1-.2-.1-.2.7 0 .3-.2.5-.6.2-.1-.2 0-.4.1-.2-.1-.3-.1-.4-.4.2 0 .7 0 .6-.1.4.3.4.7.5 1.2.1.1.2-.1.3-.1 0-.3-.3-.6-.3-.9.1 0 .2 0 .4.1 0-.5.4-1 .9-1.5-.1-.2-.1-.3-.1-.4.6-.5.7-.2.9-.4z" fill="#8b8384"/><path d="m32.2-91.2c-.2-.2-.4-.1-.7-.1 0 .3.4.5.7.1z" fill="#8b8384"/><path d="m35.6-94.8c.1-.1.3-.3.4.1.1-.1.2-.1.3 0 1.2-1.9-1.6-.8-.7-.1z" fill="#8b8384"/><path d="m25-83.9c.1-.1.2-.2.2-.3-.4-.6-.7.6-1-.1-.1.1-.3.2-.2.3.4 0 .2.5.6.6-.2.1-.3.3-.4.4.3.2.3.5.2.7.6-.4.8.1.9.3.2-.4-.3-.8-.7-.9.1-.1.3-.2.3-.3-.3-.1-.4-.4-.4-.7.2 0 .3.2.5 0z" fill="#8b8384"/><path d="m31.1-87.2c.2.3.1.5.5.4-.3-.1-.1-.7-.5-.4z" fill="#8b8384"/><path d="m30.7-93.6c.1-.3.3-.6-.1-.9-.5.1-.6.5-.8.8.3.2.6.2.9.1z" fill="#8b8384"/><path d="m22.2-88c-.2-.3-.4-.2-.5-.3-.3.2-.4.4-.6.5.3.4.5.7.9.3-.1-.1-.2-.3-.3-.4.2-.1.3.1.5-.1z" fill="#8b8384"/><path d="m20.9-93.9c-.1-.4-.5-1-1-.7-.1.4.3.9.3 1.4.4-.3.4-.6.7-.7z" fill="#8b8384"/><path d="m15.8-85.1c.4-.1 1.4-.5 1-1-.4 0-1.2.6-1 1z" fill="#8b8384"/><path d="m13-44.9c-.4-.1-.7.3-1 .7 0 .3.2.6.4.8.7-.2 1.3-1 .6-1.5z" fill="#8b8384"/><path d="m15.5-96.8c.2 0 .7-.1.7-.4-.4-.1-.8 0-.7.4z" fill="#8b8384"/><path d="m19.6-92c.1.4.4.9.8.5.1-.2.1-.5 0-.7-.3.1-.5-.1-.8.2z" fill="#8b8384"/><path d="m13.9-84.9c-.4 0-.8.5-.5.8.5-.2.4-.5.5-.8z" fill="#8b8384"/><path d="m18-91.1c.2.2.4.5.6.3-.1-.3-.3-.4-.6-.3z" fill="#8b8384"/><path d="m16.9-96c.2.3.4.4.7.5.6-.4.7-.8.3-1.3-.5 0-.9.4-1 .8z" fill="#8b8384"/><path d="m18.9-92c-.1.1-.5.3-.4.4.7-.3.4.6.8.7 0-.2.2-.4.1-.6-.2.1-.3-.3-.5-.5z" fill="#8b8384"/><path d="m19.5-99.4c.2.3.1.3.4.5.5-.2.1-.5.1-.7-.2.2-.3 0-.5.2z" fill="#8b8384"/><path d="m19-88.1c.3.4.8 0 .4-.4-.2.1-.3.3-.4.4z" fill="#8b8384"/><path d="m76.6-.6c-.2-.2-.3-.4-.6-.2 0 .1 0 .3.1.4.3.1.2-.3.5-.2z" fill="#8b8384"/><path d="m68.5-20.4c.2.2.2.7.6.4-.2-.2-.3-.5-.6-.4z" fill="#8b8384"/><path d="m66-17.3c-.1 0-.1.1-.2.1.1.1 0 .2 0 .2.2-.1.4 0 .6-.1-.1-.2 0-.4-.3-.3 0 .1 0 .2-.1.3-.3 0 .3.1 0-.2z" fill="#8b8384"/><path d="m54.6-21.2c-.1-.5.1-1.3-.3-1.5.1.1-.1.2-.2.3.6.3-.1 1.2.5 1.2z" fill="#8b8384"/><path d="m68.3-16.5c.1-.1.2.1.3 0 0-.2.2-.1.3-.3-.2-.3-.8.1-.6.3z" fill="#8b8384"/><path d="m71.4-32.2c-.2-.2.3-.3.4-.4-.6-.6-.8-.6-1.1-1.2.2-.2.4-.4.4-.6-.5.1-.3-.5-.8-.5.4 0-.7-.8-1.2-.2.2.5.8.5.7.9-.2 0-.5.3-.7-.1-.3.3.1.6-.2.9s-.5.2-.5.5c-.3 0-.1-.7-.7-.4.5.4.7.5 1 1-.1-.2.1-.4.3-.2 0 .4.3.8.4.6 0 .1 0 .2.1.3.2-.1.3-.1.4-.2 0-.2-.3-.5-.2-.8.9-.2 1.1.4 1.7.4z" fill="#8b8384"/><path d="m71.4-8.4c0-.3.6-.9.1-.9.1.3-.1.6-.1.9z" fill="#8b8384"/><path d="m67.1-22.9c-.3 0-.6 0-.8-.1.4-.4.4-.8.1-1.2-.6 0-.8.4-1.4.8.3.5 1.2.1 1.2.7-.6.2-1.1-.1-1.6-.3-.8.4-.5 1-.8 1.5.2.1.4.3.6.6.8-.4 1 .2 1.4.8.2-.1.4 0 .7-.2.1-.6-.1-.9 0-1.4 0 .2.1.3.2.3.2-.1.3-.2.4-.2.2-.5 0-.9 0-1.3z" fill="#8b8384"/><path d="m66.6-10.2c.1-.3-.1-.4-.4-.7-.1.1-.2.2-.3.3 0 .3.3.3.7.4z" fill="#8b8384"/><path d="m55.4-24c0-.2-.3-.7-.5-.5.1.1.2.3 0 .4-.3-.4-.2-1 .3-.9-.4-.7-.9-.2-1.3.3.2.8.7.8 1.4.9-.1-.1 0-.1.1-.2z" fill="#8b8384"/><path d="m61.9-6.2c.6-.6-.3-1.3 0-1.9-.2.2-.3.4-.4.6.5.4-.1.8.4 1.3z" fill="#8b8384"/><path d="m71.8-18.5c.1-.3-.4-.2 0-.3-.2-.4-.6.3-.5.4-.1-.2-.1-.3-.1-.4.9-.6.5.5.8.7-.1-.2.1-.1.3-.2-.1-.4 0-.7-.4-.9-.4.3-.8.2-1.3.7.3.2-.1.4-.1.6.3.3 1.2.5 1.2-.2-.2.2-.3.2-.5.1.1-.3.4-.5.6-.5z" fill="#8b8384"/><path d="m66-19.3c.2.4.5.3.8.3-.3-.4-.5-.6-.8-.3z" fill="#8b8384"/><path d="m69.8-26.3c0-.2.1-.4-.1-.7-.2 0-.6.3-.6.5.2.2.4.4.7.2z" fill="#8b8384"/><path d="m90.3-14.7c-.4-1.1-1.6-1.2-2.2-1.9-.5.4-.7.3-1.2.3 0 .2-.3.4-.5.6-.1-.1-.4-.6-.3-.2.6.8 1.3 1.4 1 2.4-.1.1-.2.1-.1.2.9-.7 1.6.3 2.4.3-.3-.3-.1-.5.2-.4-.1-.2-.3-.1-.2-.2.4-.4.7-.7.9-1.1z" fill="#8b8384"/><path d="m75.8-27.5c.3.2.6.7 1 .4.3-.2-.1-.4.3-.3-.2-.2-.4-.7-.7-.4s.3.3 0 .5c-.1-.3-.4-.2-.5-.5.1-.2.1-.3.3-.5-.2-.2-.5-.2-.7-.3-1 .5-1.5 2-2.4 2.3 0 .2 0 .5.3.8.3 0 .6-.1.8-.5-.2-.2-.3-.4-.2-.6.6-.1 1.6-.2 1.8-.9z" fill="#8b8384"/><path d="m88.6-12.7c.2.2.5.3.7.7.5-.4-.5-.5-.2-1-.2.3-.3.2-.5.3z" fill="#8b8384"/><path d="m100.1-17.1c-.2.1-.3-.1-.6.2.2.2.3.5.5.3-.2-.2.2-.3.1-.5z" fill="#8b8384"/><path d="m97.9-8.4c-.1-.1-.2-.2-.2-.3-.3.1-.3.7 0 .6-.1-.1 0-.2.2-.3z" fill="#8b8384"/><path d="m85.8-8.6c-.1 0-.2 0-.2-.1-.2.2-.4.3-.5.5.1.3.7.3.7 0-.5.3.3-.3 0-.4z" fill="#8b8384"/><path d="m76.8-21.8c-.7-.4-1.7.4-1.6 1.2.5.1.9.2 1.5-.2-.1-.4.2-.7.1-1z" fill="#8b8384"/><path d="m75.5-17.8c.2 0 .4.3.7 0 .2-.6-.9-.4-.7 0z" fill="#8b8384"/><path d="m36-96.6c.3-.2.3-.5.1-.7-.3 0-.7.4-.4.7.1-.1.2 0 .3 0z" fill="#8b8384"/><path d="m81.6-12c-1.4-.6-.7 1.8.1.8-.6 0 .2-.5-.1-.8z" fill="#8b8384"/><path d="m79.2-6.3c-.1 0-.5.1-.4.3.1 0 .1-.1.2-.1.1.1.2 4 .2 4.2.3-.2.2-4.2 0-4.4z" fill="#8b8384"/><path d="m52.6-34.3c-.4-.1-.4.6 0 .4 0-.2.1-.3 0-.4z" fill="#8b8384"/><path d="m19.3-10.6c.1 0 .4-.1.9-.1-.3-.1-.7 0-.9.1z" fill="#8b8384"/><path d="m20-9.6c-.1 0-.1 0 0 0z" fill="#8b8384"/><path d="m35.7-11.7c-.2-.2-.3-.3-.6 0 0 .1.1.1.1.2-.2 0-.4.1-.8.1-.2-.3-.4-.5-.6-.4.1.2.2.3.3.4-.5 0-1.2.1-1.9.1-.2-.4-.6-.6-1 0-3.7.2-8.9.4-11 .6.1 0 .1.1.2.1-.4.1 0 .3-.3.5-.2-.4-.5 0-.7-.4-.3.4.4.4.6.8.4-.1 6.9-.7 11.3-1.2-.1.2-.2.4.1.6.3 0 .6 0 1-.4 0-.1 0-.3 0-.4.8-.1 1.5-.2 2-.3.2.2.4.3.5.2-.1 0-.2-.1-.3-.2.3-.1.6-.1.7-.2.1.1.2.1.4-.1z" fill="#8b8384"/><path d="m36.9-11.3c-.1-.1-.2-.3-.3-.4-.1.1-.2.1-.3.2.2.2.3.4.6.2z" fill="#8b8384"/><path d="m38-27c-.5-.1-1.1.7-1.1 1.1.4.2.9-.3 1.3-.3-.1-.3.2-.5-.2-.8z" fill="#8b8384"/><path d="m37.5-14.9c0-.1-.3-.1-.5-.2-.1-.2-.2-.5-.3-.9-.1.1-.2-.1-.4-.1-.3.6-.5-.4-.7-.1 0 .6.7 1 .9 1.4s0 .1.1.1v-.1c.2 0 .9-.1.9-.1z" fill="#8b8384"/><path d="m16.3-1.7c.1-.3 0-4.4-.3-4.8-.2.3-.5 4.3-.9 4.6.1.4.7.9.9.3-.2.1-.2-.3-.2-.4.2.2.3.3.5.3z" fill="#8b8384"/><path d="m14.7-40c-.2.1-.3.2-.4.3 0 .2.2.4.3.6.5-.3.5-.6.1-.9z" fill="#8b8384"/><path d="m31.9-9c.2.2.5.2.7.2-.3-.2-.1-.7-.5-.5 0 .2-.1.3-.2.3z" fill="#8b8384"/><path d="m33.3-7.8c.2.1.4.6.7.4 0-.4-.3-.7-.7-.4z" fill="#8b8384"/><path d="m25.7-9.5s-.1-.1-.1 0c.2.2.4.5.7.5-.2-.3.1-.5.1-.7-.2-.1-.5.4-.7.2z" fill="#8b8384"/><path d="m53.9-13.9c-.6.3-1.4.5-.9 1.3.4-.5.8-.2.8-.7-.3-.1-.2.3-.4.2.1-.1 0-.2.1-.3.3-.2.7-.1.4-.5z" fill="#8b8384"/><path d="m51-20.8c-.3.1-.6.1-.9.3.3.3.4.5.3.8.3-.4.5-.7.6-1.1z" fill="#8b8384"/><path d="m49.3-12.5c.3.3.6.1.9.3 0-.1 0-.2 0-.4 0 0 .1.1.1 0-.1-.1-.1-.2-.1-.3-.3.1-.7 0-.7-.3-.1.3-.5 0-.4.3h.4c0 .1 0 .3-.2.4z" fill="#8b8384"/><path d="m52.2-35.4c0-.3-.6-1-1.2-.6.4.3.4.6.3.9.3-.3.8.2.9-.3z" fill="#8b8384"/><path d="m53.1-38.8c-.4-.7-1.1-.2-1.7 0 .1.4.1.4.5.9.9-.1.7-.6 1.2-.9z" fill="#8b8384"/><path d="m13.8-8.3c.3.1.6 0 .6-.3-.2.2-.7 0-.6.3z" fill="#8b8384"/><path d="m42.5-11.6c.2.2.4.4.7.2-.1-.2-.3-.1-.2-.2s.2 0 .2-.1c-.1-.3-.3-.2-.5-.1.1-.2.2-.3.4-.3-.2-.4-.6-.5-.9-.3-.1.2 0 .5.3.7.1 0 .1 0 0 .1z" fill="#8b8384"/><path d="m47.7-14.6c-.4-.2-.4-.3-.7-.6.2-.2.3 0 .5-.3 0-.2 0-.4-.2-.7-.3 0-.2.5-.4.3.2-.2-.2-.4 0-.5.1.1.2.2.2 0-.1-.1-.2-.1-.4-.1-.1.4.4.8.2 1.2-.8-.6-1.2-1.3-2.2-1.1.2.2.3.4.5.6-.6.9.2 2-.6 2.7.5.1 1.2-.3 1.7 0 .4-.2.4-.5.5-.8.5.3.9-.2.9-.7z" fill="#8b8384"/><path d="m40.3-15.9c-.1-.1 0-.2-.2-.4-.1 0-.6.1-.4.3.3 0 0 0-.2.1.1.1.2.3.3.2-.1-.3.3 0 .5-.2z" fill="#8b8384"/><path d="m47-1.3c-.3-.3-.1-.5-.3-.8-.5.3 0 .9.3.8z" fill="#8b8384"/><path d="m45.3-7c.3.3.7.3.5.7.5-.2-.2-1-.5-.7z" fill="#8b8384"/><path d="m46.6-1.1c-.3-.6-1-.6-1.6-.9 0 .6.7.4 1 .7-.4.3-.7.5-1 .2-.6.4.2.7.6.8-.1-.2-.1-.3-.1-.4.1.3.4.2.5.5.4-.5 0-.7 0-.9.2.1.4.1.6 0z" fill="#8b8384"/><path d="m30.8-27.3c.9-.1 1-.7 1.7-1.3-.4-.4.3-.9.1-.8-.1.1 0 .2-.2.3-.1-.3-.4-.4-.7-.3-.2.2 0 .5 0 .7-.1.1-.2.1-.3.2-.2-.2-.3-.4-.3-.5 0 .3-.5.6-.1.8-.5.3-.3.6-.2.9z" fill="#8b8384"/><path d="m21.7-45.4c-.1-.2-.3-.2-.5 0 .1.2.3.2.5 0z" fill="#8b8384"/><path d="m22.1-39.8c-.1-.3-.3-.3-.5-.6-.1-.4.1.7.5.6z" fill="#8b8384"/><path d="m22.6-56.9c0 .2.2.5.4.6.2-.2.4-.4.3-.6-.3-.2-.5-.1-.7 0z" fill="#8b8384"/><path d="m21.9-63.8c.2.2.2.8.6.6-.3-.2.1-.3.2-.3-.2-.3-.5-.4-.8-.3z" fill="#8b8384"/><path d="m22-59.4c-.1-.4-.5-.7-.9-.4.2.3.5.7.9.4z" fill="#8b8384"/><path d="m23.6-86.1c.2.2.3.6.6.4-.2-.1-.4-.5-.6-.4z" fill="#8b8384"/><path d="m22.6-82c-.3 0-.8.4-.6.7.3 0 .5 0 .8-.2.1-.2 0-.3-.2-.5z" fill="#8b8384"/><path d="m20.8-70.9c-.9.6.2.8.2 1.2.4-.3.7-1.1.2-1.2.1.3-.2 0-.4 0z" fill="#8b8384"/><path d="m22.7-68.4c-.2-.3-.5-.5-.8-.3 0 .2.4.8.8.3z" fill="#8b8384"/><path d="m22.4-73.8c0-.6-.7-.9-1.2-1.1.1.6.7 1.4 1.2 1.1z" fill="#8b8384"/><path d="m23.1-39.9c-1.9.6-.5 2.5.8 1.4-.4-.6-.3-1-.8-1.4z" fill="#8b8384"/><path d="m21.6-76.4c.2-.2.5-.5.4-.7-.2.3-.4.2-.6.3.2.1.3.3.2.4z" fill="#8b8384"/><path d="m21.3-66.5c-.2.2-.3-.3-.5 0 .1.2 0 .3.1.5.2-.1.5-.3.4-.5z" fill="#8b8384"/><path d="m29-34.6c0-.4-.2-.7-.7-.4-.1.3.4.6.7.4z" fill="#8b8384"/><path d="m25.2-44.7c-.3-.5-.6-.3-.9.1.2.4.8.4.9-.1z" fill="#8b8384"/><path d="m28.3-33c.1.3.3.3.6 0-.2-.2-.4-.2-.6 0z" fill="#8b8384"/><path d="m25.9-84.5c.1.2.7.2.6-.1-.2.3-.3-.2-.6.1z" fill="#8b8384"/><path d="m27.3-88c.1-.3-.2-.7-.5-1-.8.2-.1 1.3.5 1z" fill="#8b8384"/><path d="m25.8-35.7h3v-.1c.3-.1.5-.4.7-.2-.1.1-.1 0-.1 0-.1.1 0 .2 0 .3h3.1c.1 0 .1 0 .2-.1v.1h.2s.1-.1.1-.1v.1c1.5 0 2.4.1 2.3.2 0 .1-.9.1-2.3.2 0 0-.1.1-.1.1.1.1.3.1.5.3v.3c.5-.1.8-.1.9-.1-.1.1-.4.1-.9.2-.1.6-.5 1.2-1.3 1.6-.2 0-.5-.2-.7-.2-.2-.4 0-.8.2-1.2-.3 0-.5 0-.8.1 0 .1-.1.2-.2.2-.1-.1-.2-.1-.2-.2-1.2.1-2.6.2-4 .3.4 0 .7.1.8.1 0 .4-4.1.5-4.6.7-.2-.2-.3-.3-.2-.5-2.1.2-3.5.3-3.4.4-.1-.2 1.4-.3 3.5-.5v-.1c-.5.1-.9-.1-.7-.8.5.3.3-.4.8-.2.1-.1-.1-.3-.2-.2 0 0 0 0 0-.1-1.9 0-3.2 0-3.1-.1 0-.1 1.5-.2 3.6-.2 0 0-.1-.1-.1-.1.3-.3.4.2.6 0v.1h2c0-.1-.1-.2 0-.2.2-.5.3-.3.4-.1zm-1.7.4c.1.1.2.3.3.4-.2 0-.4-.1-.3-.2-.4.2-.2.4-.2.6-.2.1-.4.2-.6.3.4 0 1.2.1 1.9.1 1.8-.1 3.7-.3 5.3-.4 0 0 0-.1 0-.2.2-.3.3.1.5 0 0 .1 0 .2-.1.2.3 0 .6 0 .8-.1.1-.3.2-.5.3-.8-.9 0-1.9 0-2.9 0 0 0-.1.1-.1.1v-.1c-1 0-2 0-3 0v.1c-.1 0-.1 0-.2-.1-.7.1-1.2.1-1.7.1z" fill="#8b8384"/><path d="m20.4-50.4c.7-.8.6.3 1 .1-.1-.4-.7-.8-1.3-.8.2.2-.1.4.3.7z" fill="#8b8384"/><path d="m23.6-62.9c.2.3.4.1.7 0 0-.1 0-.2-.2-.4-.2 0-.1.2-.5.4z" fill="#8b8384"/><path d="m20.2-49.5c-.6-.2-.2-1-.7-.9.1.3.3.9.7.9z" fill="#8b8384"/><path d="m19.3-55.1c.5.1.9-.5.6-.9-.6.1-.8.6-.6.9z" fill="#8b8384"/><path d="m20.4-68.5c-.2-.2-.4-.3-.6-.3-.3.4 0 .8.5.9.2-.2-.2-.5.1-.6z" fill="#8b8384"/><path d="m30.1-25.3c.2-.1.1-.2.3-.3-.1-.3-.3-.3-.5-.5-.1.1-.2.1-.3.2 0 .2.3.6.5.6z" fill="#8b8384"/><path d="m22.8-24.7c-.2-.5-.6-.4-.9-.4-.1.5.3.6.7.9.4-.2-.1-.4.2-.5z" fill="#8b8384"/><path d="m31.1-23.3c-.2.1-.3.3-.4.4.1.2.2.3.4.2-.1-.2.2-.4 0-.6z" fill="#8b8384"/><path d="m30.8-21.2c.1.1.2.2.3 0 .4.4.7 1.3 1.2.8-.4-.6-.9-1-1.5-.8z" fill="#8b8384"/><path d="m30.3-28.3c.3.1.6-.2.4-.6-.2.2-.5.4-.4.6z" fill="#8b8384"/><path d="m32.1-18c.3-.2.2-.3 0-.5-.1.1-.2.1-.3.2.2 0 .3.2.3.3z" fill="#8b8384"/><path d="m30.9-19.2c-.2 0-.7.3-.6.5.2-.1.4.2.7 0 0-.2.2-.4-.1-.5z" fill="#8b8384"/><path d="m29.1-24.5c-.2-.2-.4-.7-.6-.6.1.2.3.8.6.6z" fill="#8b8384"/><path d="m33.2-19.2c.2-.1.1-.2.3-.3-.2-.3-.4-.2-.6-.3 0 .3-.1.6.3.6z" fill="#8b8384"/><path d="m30.3-27.7c-.2 0-.4.1-.6.3.2.4.8 0 .6-.3z" fill="#8b8384"/><path d="m27.6-97c-.9.4-.7 1.6.4 1.2.2-.2-.1-.5.1-.7.1.3.1.2.4.5.3-.3-.1-.7.2-1-.6.3-.7-.2-1.1 0z" fill="#8b8384"/><path d="m32.5-22.6c0-.1 0-.2.1-.3.1 0 .2.1.3.1-.1-.1.1-.2.2-.3-.1-.1-.3-.2-.4-.3 0-.1 0-.2 0-.3-.1.1-.1.1-.2.1-.4-.2-.7-.4-1.2-.1.2.2 0 .3.1.5h.1c.1.1.2.3.3.4.3 0 .6-.1.7.2z" fill="#8b8384"/><path d="m22.7-89.2c.1.3.3.1.5.3.3-.2.3-.5 0-.7-.5 0-.2.1-.5.4z" fill="#8b8384"/><path d="m35.8-23.6c-.2-.2-.4-.2-.7 0 .2.4.6.3.7 0z" fill="#8b8384"/><path d="m34.9-30.2c.3-.2.3-.4.1-.6.2-.1-2.8 0-6.2.1.2-.5-.1-1-.5-1.4-.2 0-.4.2-.6.2.2.2.1.9.5 1.2-1.9.1-4 .1-5.7.2-.1 0-.1 0-.2-.1.2-.3.3-.3.7-.6-.1-.2-.5-.4-.3-.5.3-.1 1.4.2 2.5.4 0 0-.1.1-.2.1.2.1.1.6.4.5-.2-.2-.1-.4.2-.5 0 0-.1-.1-.1-.1.9.2 1.7.3 2 .3-.1-.2-.2-.3-.4-.5.2-.1.5-.1.3-.5-.2.1-1 .1-1.9 0 .1-.1.2-.2 0-.4-.2.1-.3.2-.3.4-.2 0-.3 0-.5 0 .2 0 .3-.1.3-.3-.1-.4-.7 0-.6.3-1-.1-2-.1-2.2 0-.1.3.4.2.1.5-.6.4-1.1-.2-1.7 0 0 0 0-.1-.1-.1 0 .2-.1.4-.1.6.2 0 .5.2.7.2-.1.1-.1.2-.1.3-1.5.1-2.5.2-2.4.2.1.4 16.5.3 16.3.1z" fill="#8b8384"/><path d="m20.3-36.9c-.5-.2-1.2.5-1.6.2.4.4.8.7 1.2 1 .5-.4.4-.8.4-1.2z" fill="#8b8384"/><path d="m33.9-22.1c.1.1.2.3.3.4.4-.1-.1-.8-.3-.4z" fill="#8b8384"/><path d="m23.2-84.4c.1.3.4.2.6.2-.1-.1-.2-.3-.3-.4-.1 0-.2.1-.3.2z" fill="#8b8384"/><path d="m19.3-63.5c-.3-.3-.7 0-1 .1.2.2.4.4.6.4-.1-.2.2-.1.4-.5z" fill="#8b8384"/><path d="m33.8-23.5c.2-.1.2.5.6.2-.1-.3-.6-.4-.6-.2z" fill="#8b8384"/><path d="m34.5-18.9c-.1-.2-.2-.1-.3-.3-.2.1-.4.3-.4.4 0-.1-.1-.1-.2 0 0 .2-.1.6.3.4v-.1c.1.2.6-.2.6-.4z" fill="#8b8384"/><path d="m35-21.4c0 .1 0 .3.2.5.2-.1.3-.2.3-.3-.1-.3-.3-.2-.5-.2z" fill="#8b8384"/><path d="m35-22.1c.2-.2.3-.4.1-.7-.4.2-.2.5-.1.7z" fill="#8b8384"/><path d="m34.5-19c.5.1.2.9.6 1-.2-.6-.1-1.1.4-1.7-.5-.5-.6-.6-1-.6-.1.6.3.8 0 1.3z" fill="#8b8384"/><path d="m31.7-62.1c.6.1 1.1.8 1.7 1-.4-.7-1.3-1.3-1.7-1z" fill="#8b8384"/><path d="m30.8-68.1c.4.2 1 .9 1.3.1-.3-.4-.8-.5-1.3-.1z" fill="#8b8384"/><path d="m33.9-38.9c-.2-.4-.6-.2-.6-.6-.4.4-.7.8-.2 1.3.5 0 .6-.2.8-.7z" fill="#8b8384"/><path d="m36.8-81.8c.3-.1.6.1.9.2-.1-.1.1-.2.2-.3-.4-.3-.2-.5-.3-.8-.3.3-.5 0-.8.4 0 .2-.3.4 0 .5z" fill="#8b8384"/><path d="m31.1-56.2c-.2-.2 0-.3-.2-.5-.4.3-.1.7.2.5z" fill="#8b8384"/><path d="m33-73c-.8.2-.8.9-1.2 1.3.4.3.3 1.1.9.8.2-.4-.5-.9-.3-1.4.1-.3.9-.2.6-.7z" fill="#8b8384"/><path d="m33-82.3c0-.2-.5-.4-.8-.3 0 .5-.7.4-.4.9.3-.1.4.1.5.4.1 0 .2-.1.2-.1.3-.2 0-.4.4-.6-.1-.1-.2-.3-.3-.4-.2.1-.3.6-.5.4.2-.2.2-.3.5-.6.1.2.3.3.4.3z" fill="#8b8384"/><path d="m32.2-51.4c-.1-.3-.4-.1-.6.1.1.4.4.1.6-.1z" fill="#8b8384"/><path d="m36.7-56.5c.2.3.5.1.8-.1-.2-.4-.5-.2-.8.1z" fill="#8b8384"/><path d="m36.2-45.1c.4.2 1.1 0 1.2-.6-.1-.2-.3-.4-.4-.5-.2 0-.5.3-.5 0-.6.3-.1.7-.3 1.1z" fill="#8b8384"/><path d="m35.6-75.3c.2-.3.1-.4-.2-.7-.4.2-.5.1-.9.5.2.2.1.5.2.7.8-.1.2-.7.4-1.1.4.4.3.6.5.6z" fill="#8b8384"/><path d="m33.6-65.5c.4 0 .7.3 1.2-.1-.2-.6-.6-.8-1.1-.8 0 .4-.2.6-.1.9z" fill="#8b8384"/><path d="m33.8-59.5c-.2-.2 0-.8-.2-.8.2.3-.3 1 .2.8z" fill="#8b8384"/><path d="m36.7-37.6c.3-.2.2-.4 0-.6-.2.1-.3.1-.4.2 0 .3.2.2.4.4z" fill="#8b8384"/><path d="m37.5-40.3c.1-.3-.3 0-.4-.3.2-.1.3-.2.4-.2-1.1-1.3-2.1 1.1-.5 1.2-.3-.5.5-.3.5-.7z" fill="#8b8384"/><path d="m36.9-52c-.3.2-.3.5 0 .7.2-.2.3-.1.4-.2-.2-.3-.3-.1-.4-.5z" fill="#8b8384"/><path d="m35.9-43.4c-.1-.4.2-.8.2-1.2-.7-.1-.6.7-.7 1.1.2 0 .3.3.5.1z" fill="#8b8384"/><path d="m37.5-39c-.5.2-.5 1.2.1.9-.2-.4.3-.5-.1-.9z" fill="#8b8384"/><path d="m31.3-57.8c-.2-.4-.7-.1-.7.2.2.1.7 0 .7-.2z" fill="#8b8384"/><path d="m37.8-78.7c-.9-.1-1.2 1.6-.1.9-.5-.5.6-.2.1-.9z" fill="#8b8384"/><path d="m34.9-28.9c0 .2.1.4.1.5.4-.1.8-.2.5-.6-.1-.2-.3-.1-.6.1z" fill="#8b8384"/><path d="m33.9-39.5c.1-.1.2-.1.3-.2-.2-.3-.5-.3-.8-.2 0 .3.1.2.3.4.2-.1.1-.5.4-.3-.1.1-.2.2-.2.3z" fill="#8b8384"/><path d="m32.3-43.3c-.2-.3-.4-.3-.6-.4-.3.2-.4.5-.6.7.2.2.4.3.6.3-.1-.6.1.2.4-.2.2-.1 0-.3.2-.4z" fill="#8b8384"/><path d="m36.4-57.6c-.4-.2-.9-.3-1.3-.8.4-.1.4-.6.1-.6-.1-.1-.4.1-.3.2h.2c-.2.1-.2.1-.2 0-.2 0-.4-.2-.4.2.6.2 1.4 1.4 1.9 1z" fill="#8b8384"/><path d="m34.8-53.1c-.4 0-.4-.5-.9-.3 0 .4.4 1.2.9.8-.3-.2.2-.3 0-.5z" fill="#8b8384"/><path d="m29.2-40.9c.2.2.4.2.6.3 1.2-.8.2-1.8-.6-2-.1.4.4 1 .8 1.2-.1.5-.7.2-.8.5z" fill="#8b8384"/><path d="m26.8-63c.1.3.3.1.5.4.3-.2.3-.4.3-.6-.3 0-.5-.1-.8.2z" fill="#8b8384"/><path d="m26-36.1c.7-.3 1.3-.3 1.9-.4 0-.3.1-.7-.1-1-.8-.3-2.4.4-1.8 1.4z" fill="#8b8384"/><path d="m26.9-41.2c.1 0 .3 0 .4.1.1-.5.6-.2 1-.7-.1-.4-.4-.7-.4-1.1-.2.1-.4.3-.5.4.1.3.3.1.5.4-.3.4-.9.4-1 .9z" fill="#8b8384"/><path d="m27.9-65.1c-.1-.1.1-.2.1-.3-.2.1-.2-.1-.2-.2-.1.1-.2.2-.4.3.2.1.4.3.5.2z" fill="#8b8384"/><path d="m27.5-53c.5.2.7.5.9 1 .9-.6-.3-1.4-.9-1z" fill="#8b8384"/><path d="m27.2-70.9c0 .2.2.5.4.3-.2-.1-.1-.4-.4-.3z" fill="#8b8384"/><path d="m38.2-51.4c-.2-.1-.3-.3-.5-.3 0 .2.2.7.5.3z" fill="#8b8384"/><path d="m29.1-88.1c-.1.5-.8.1-.6 1 .2.2.4-.1.6.2.5-.2.3-.5.6-.7-.2-.2-.4-.5-.6-.5z" fill="#8b8384"/><path d="m29.7-73.2c.1.1.1.2.2.2.9-.1.1-1.1-.2-.2z" fill="#8b8384"/><path d="m29.2-56c.1.1.2.2.1 0-.3 0-.1-.3-.2-.5-.4.2-.5.4-.4.7.1 0 .1 0 .2.1.2-.1.2-.2.3-.3z" fill="#8b8384"/><path d="m29.6-58c.3-.1.4-.3.4-.6-.2 0-.4 0-.7 0 0 .2.2.4.3.6z" fill="#8b8384"/><path d="m29-38.6c-.4-.2-.3 0-.2-.4-.4.4-.6-.4-1.1.2.3.2.6.5.8.7.5-.1.2-.3.5-.5z" fill="#8b8384"/><path d="m36.8-70c.3-.3.5-.6.2-1-1.1-.4-1.3 1.1-.2 1z" fill="#8b8384"/><path d="m37.6-89.7c0 .4.1.5.5.6.3-.2.4-.4.4-.6-.4.1-.6-.1-.9 0z" fill="#8b8384"/><path d="m35.8-90.7c-.2 0-.4.1-.6.3.1.4.8-.1.6-.3z" fill="#8b8384"/><path d="m38.4-37.9c-.3.2-.6.4-.3.7.4-.2.5-.5.3-.7z" fill="#8b8384"/><path d="m38.4-35.3c0-.1-.2-.8-.5-.5 0 .2.2.5.5.5z" fill="#8b8384"/><path d="m28.8-80.9c.1-.3-.1-.2-.3-.4-.1.1-.2.2-.4.3.2.3.4.3.7.1z" fill="#8b8384"/><path d="m26.5-47.2c-.3.3-.3.6 0 .7.3-.2.7-.4.4-.7-.4.1.1.3-.2.4-.1-.2.1-.4-.2-.4z" fill="#8b8384"/><path d="m28.4-68.2c.3-.1.1-.3.2-.4-.2-.4-.5-.2-.8-.1 0 .3.4.5.6.5z" fill="#8b8384"/><path d="m34.8-83.3c-.3.3-.5.3-.8.5-.1.5.9.9 1 .4-.4.2-.2-.2-.2-.4.3 0 0 .3.3.2 0-.1-.1-.1 0-.1s.1.2.2.1c-.1-.5-.2-.5-.5-.7z" fill="#8b8384"/><path d="m34-94.3c.2.3.5.2.7.2.2-.5-.6-.8-.7-.2z" fill="#8b8384"/><path d="m27.7-93.1c.2.4.6 0 .8.5.5-.6.5-.8.3-1.3-.3.1-.9.2-1.1.8z" fill="#8b8384"/><path d="m78.2-35.9c0 .2.2.5.5.3-.2-.2-.2-.6-.5-.3z" fill="#8b8384"/><path d="m66-42.4c0-.2-.1-.4-.3-.5-.2.2-.4.3-.3.5.2-.2.3.2.6 0z" fill="#8b8384"/><path d="m65.9-47.3c-.5.7-1.3.3-2 .6.4.2.5.4 1.1.3-.1.3.3.2.5.4-.2.1-.1.2-.3.3-.2-.2-.4-.3-.7-.1.1.2.3.1.2.2 0 0-.1-.1-.2 0 .4.3.9.3 1.3.4-.1-.3-.3-.1-.4-.3.4-.6 1.3-1.1.5-1.8z" fill="#8b8384"/><path d="m63.4-27c0 .3-.4.5-.1.8.1.1.3 0 .5-.1.3-.2 0-.9-.4-.7z" fill="#8b8384"/><path d="m65.1-47.9c0 .3.1.2.3.4.4-.2 0-.7-.3-.4z" fill="#8b8384"/><path d="m64.1-23.8c.2-.3-.3-.8-.6-.6-.2.3.2.8.6.6z" fill="#8b8384"/><path d="m65.4-43.3c-.2-.2 0-.3-.2-.5-.2.1-.3.3-.4.4.1.3.4.1.6.1z" fill="#8b8384"/><path d="m65.5-38.5c-.3-.3 0-.7-.5-.6.4.3 0 .8.5.6z" fill="#8b8384"/><path d="m58.9-32.9c-.3.2-.3.3-.9.5.1.1.1.2.1.3.5-.2.5-.3.9-.6 0 0 0-.1-.1-.2z" fill="#8b8384"/><path d="m59.9-46.8c-.1-.2.3-.3.1-.4-.4.3-.1-.3-.4-.2-1.1 1.1-2.2 2.6-1 3.8.8-.4 1.1.3 1.8 0 .9-.5 1.2-2 .4-2.8-.2-.2-.8.1-.9-.4z" fill="#8b8384"/><path d="m66.1-63c-.2-.2-.4-.3-.7-.4.3.4.2.9.7.4z" fill="#8b8384"/><path d="m63-81c.3-.2.6 0 .9.1-.1-.1.1-.2.2-.3 0-.2-.2-.5-.2-.7-.4 0-1.4.5-.9.9z" fill="#8b8384"/><path d="m66.1-42.9c.2-.1.4 0 .7-.2-.1-.4-.7 0-.7.2z" fill="#8b8384"/><path d="m63-37.9c-.2-.2-.7-.5-.8-.1.5-.2 0 .6.6.6.3-.2-.2-.4.2-.5z" fill="#8b8384"/><path d="m62.9-50.3c-.2.2-.3-.5-.5-.1 0 .3.5.5.5.1z" fill="#8b8384"/><path d="m63-45.2c.2.3.4.4.7.2 0-.5-.3-.5-.6-.8 0 .1 0 .2-.2.4-.6-.1-1-.9-1.6-.9 0 .3.1.7.2 1 .5-.1.9.4 1.5.1z" fill="#8b8384"/><path d="m58.2-25.1c.2.1.4.5.7.4.2-.5-.3-.4-.7-.4z" fill="#8b8384"/><path d="m62-56.7c.1-.2.6-.4.6-.7-.2 0-.4.2-.5 0 .2-.2-.2-.5-.2-.7-.5.4-.2.9.1 1.4z" fill="#8b8384"/><path d="m62-59.3c0 .4.4.7.8.3 0-.1-.1-.2 0-.2-.2-.2-.5-.3-.8-.1z" fill="#8b8384"/><path d="m61.7-41.8c0 .4-.1.8.2 1.2.2-.2.4-.1.6-.3-.1-.6-.2-.9-.8-.9z" fill="#8b8384"/><path d="m63.4-32.2c.2-.4-.1-.7-.6-.4 0 .3.3.5.6.4z" fill="#8b8384"/><path d="m62.5-27.3c-.1.1-.2 0-.4 0 .2.4.1.7.7.5-.3-.1 0-.3-.3-.5z" fill="#8b8384"/><path d="m62.1-38.9c0-.2-.3-.8-.6-.4.1.3.3.5.6.4z" fill="#8b8384"/><path d="m63.1-29.6c.2.4.6.2.7 0-.2-.3-.4-.3-.7 0z" fill="#8b8384"/><path d="m62.3-31.2c.4-.3.2-.6-.1-.9-.2.1-.4 0-.5.1 0 .3.3.4.6.8z" fill="#8b8384"/><path d="m59-10.9c-.5-.5-.7.6-1.2.4.3.5.8-.3 1.2-.4z" fill="#8b8384"/><path d="m68.2-9c-.1-.2.1-.4-.2-.6-.2 0-.7.3-.6.5.4-.2.5.3.8.1z" fill="#8b8384"/><path d="m67.1-41.8c-.3.4-.4-.2-.6.1.4.4.8.7 1.2.7-.1-.4-.6-.4-.6-.8z" fill="#8b8384"/><path d="m70.9-26.4c.3 0 .3 0 .5-.3-.1-.2-.2-.3-.4-.2.1.3-.3.4-.1.5z" fill="#8b8384"/><path d="m68.2-13.3c-.2.1-.4 0-.7.2.1.1 0 .3.2.4.1-.1.2 0 .3 0 .3-.2.2-.4.2-.6z" fill="#8b8384"/><path d="m65.4-8.8c-.6-.3-2-.4-2.1-.5.3.5 1.4.6 2.1.5z" fill="#8b8384"/><path d="m59.7-48.6c.1.3.2.3.5.3-.1-.1-.1-.3.1-.4-.2-.2-.4-.1-.6.1z" fill="#8b8384"/><path d="m63.2-17.1c-.2-.1-.6.1-.6.3.1.1.1.2.2.2.2.1.7-.3.4-.5z" fill="#8b8384"/><path d="m70.7-22.8c.2.2.7.3.8-.1-.3.2-.5.1-.8.1z" fill="#8b8384"/><path d="m77.4-7.4c-.2.1 0-.1 0-.2-.1 0-.2 0-.2-.1-.1.1-.2.2-.4.3.2.2 0 .3.2.7.4-.3.2-.5.4-.7z" fill="#8b8384"/><path d="m73.2-19.2c0-.3-.4-.4-.6-.3.1.2.3.3.6.3z" fill="#8b8384"/><path d="m72.6-29.8c-.5-.4-.5-1.4-1.3-1.5-.3.2-.1.4-.4.6.5.4 1.4 1 1.7.9z" fill="#8b8384"/><path d="m72.4-6.8c-.2-.3-.4-.5-.6-.2-.1.4.3.6.6.2z" fill="#8b8384"/><path d="m63-9.4c-.2-.3-.8 0-.8.1.2 0 .3 0 .4.2.2-.1.3-.2.4-.3z" fill="#8b8384"/><path d="m64.7-63.8c-.4 0-.4.4-.4.6.2-.1.1-.2.1-.4.3.2.4-.1.3-.2z" fill="#8b8384"/><path d="m58.1-27c-.1-.3-.3-.1-.4-.3 0-.4.4 0 .4-.3-.2.1-.3-.2-.5 0-.1.4-.2 1.1.5.6z" fill="#8b8384"/><path d="m57.9-20.1c-.3.2-.2.3 0 .5.3-.2.2-.4 0-.5z" fill="#8b8384"/><path d="m61.8-10.4c.2.3.4.5.6.4-.1-.2-.2-.6-.6-.4z" fill="#8b8384"/><path d="m58.3-40.5c-.3-.2-.8-.9-.8-.7.3.1.4.9.8.7z" fill="#8b8384"/><path d="m59.6-56.8c.1.2.3.4.5.3-.1-.3-.1-.5-.5-.3z" fill="#8b8384"/><path d="m60.9-15.9c-.2-1.6-1.6.5 0 0z" fill="#8b8384"/><path d="m59.3-16c-.3.1-.5.2-.5.4.1-.1.2 0 .3.2.2-.2.1-.5.2-.6z" fill="#8b8384"/><path d="m61.6-1.8c.3-.4-.7-4.2-.1-4.6-.7 0-.1-1.1-1-.8.1.6.6 5 .6 5.6.2-.2.3-.2.5-.2z" fill="#8b8384"/><path d="m60-33c.3-.2.3-.4.7-.6-.2-.6-.8-.9-1.4-.7.3.4.1 1.1.7 1.3z" fill="#8b8384"/><path d="m59.6-40.4c.1-.3.4-.7.2-1-.2 0-.4-.2-.7 0 .3.4.6.7.5 1z" fill="#8b8384"/><path d="m64.3-49.5c.1-.4-.1-.4-.3-.8-.4.3-.1 1 .3.8z" fill="#8b8384"/><path d="m82.5-26c-.2-.2 0-.3-.2-.5-.1.1-.3 0-.4.2.2.4.4.4.6.3z" fill="#8b8384"/><path d="m80.7-58.5c.2.3.5.5.8.4-.2-.2-.1-.4.2-.5-.3-.2-.6-.2-1 .1z" fill="#8b8384"/><path d="m81.5-66.7c-.2-.3-.4-.6-.7-.5 0 .3.4.7.7.5z" fill="#8b8384"/><path d="m80.7-77.2c.4-.5.6-.1 1-.5.1-1.4-2-.5-1 .5z" fill="#8b8384"/><path d="m82.2-47.3c-.1-.3-.3-.6-.6-.4 0 .2.3.4.6.4z" fill="#8b8384"/><path d="m81.1-57.2c0-.3-.1-.6-.5-.8-.6.3.1 1.1.5.8z" fill="#8b8384"/><path d="m81.7-35.3c-.1.1-.2 0-.3.1 0 .1 0 .3.2.5.3-.2 0-.4.1-.6z" fill="#8b8384"/><path d="m80.3-81c.1.1.2.2.2.3.1-.1.2-.1.3-.2-.1-.3-.3-.3-.5-.1z" fill="#8b8384"/><path d="m77.9-100h-.3c.1 1.1.3 2.6.4 2.6 0-.1 0-1.5-.1-2.6z" fill="#8b8384"/><path d="m78.8-87.5c0 .3.5.8.8.8 0-.3.4-.7.1-1-.3-.1-.6 0-.9.2z" fill="#8b8384"/><path d="m79.5-86.4c0 .3.2 1.2.7.8-.1-.3-.3-1-.7-.8z" fill="#8b8384"/><path d="m80.7-40.2c0-.2.1-.4-.2-.6-.1.1-.2.1-.3.1 0 .3.2.7.5.5z" fill="#8b8384"/><path d="m76.6-28.6c-.1-.1-.2-.3-.3-.4-.1.1-.2.2-.4.3.2.2.4.4.7.1z" fill="#8b8384"/><path d="m77.8-29.3c.1-.4-.7-.1-.6-.6-.2.3-.3.4-.6.5.3 0 .7.3 1.2.1z" fill="#8b8384"/><path d="m77.6-27c0 .4.4.7.8.3-.3-.4-.3-.7-.8-.3z" fill="#8b8384"/><path d="m76-56.6c-.2.2 0 .3 0 .5.4-.3.4-1 0-1.1.1.1.1.2-.1.3-.1-.1 0-.2-.2-.4-1.3-.2-1.2 1.8 0 1.4.2-.2-.1-.5 0-.7.2.4.1-.2.3 0z" fill="#8b8384"/><path d="m77.4-45.4c.4-.8-.8-.9-1.6-.9.2.8 1.4.2 1.6.9z" fill="#8b8384"/><path d="m78.1-30.3c.1.3-.4.1-.4.4.2.1.4.3.6.6.2-.1.3-.1.4-.2-.3-.4-.1-.8-.6-.8z" fill="#8b8384"/><path d="m79.3-26.5c.1-.2-.1-.5-.1-.7-.2 0-.4.2-.7.4.2.3.5.5.8.3z" fill="#8b8384"/><path d="m80.4-38c-.2.2-.2.5-.4.7-.2 0-.3-.2-.5-.1.1.1 0 .2.1.4.6-.2.6-.2 1.2-.4-.2-.3-.1-.6-.4-.6z" fill="#8b8384"/><path d="m80.6-34.1c-.1-.1-.1-.2-.2-.2-.2.2-.5.4-.3.6.2-.3.5-.1.5-.4z" fill="#8b8384"/><path d="m80.6-52.8c.3-.1.5-.2.7-.2 0 0 .1.1.1 0-.1-.2-.2-.1-.3-.2-.3.5-.7-.2-.7.2.2-.3-.1.1.2.2z" fill="#8b8384"/><path d="m79.6-31.1c-.3-.2-.1-.4-.1-.7-.4-.1-.3.7.1.7z" fill="#8b8384"/><path d="m80-26.7c.4-.3.3-.6.2-.9-.3.2-.4-.2-.7.2.3.1 0 .5.5.7z" fill="#8b8384"/><path d="m76.5-70c.3-.4.7.4.7.1-.1-.5-.4-.7-.9-1 .2.4 0 .6.2.9z" fill="#8b8384"/><path d="m60.6-62.8c.4.2 0 .6.3.5-.1-.1.1-.2.2-.3-.3-.2-.2-.4-.1-.5-.2.1-.3.2-.4.3z" fill="#8b8384"/><path d="m61.3-60.9c.7-.4-.6-.7-.3-.2.2-.2.3.1.3.2z" fill="#8b8384"/><path d="m62.6-63.3c0-.2 1.1-.4.9-1.2-.2.1-.4-.2-.7 0 .4.2.1.8-.3.7 0-.1.3-.3.1-.4-.1.1-.2.1-.3.1 0 .1 0 .3-.1.4.1.1.2.5.4.4z" fill="#8b8384"/><path d="m61.4-61.7c.1.3.4.2.5.5-.3.3-.4.7-.1 1.1.5-.5.7.1 1.1-.4-.2-.4-1.3-.4-.6-1 .3.1-.3.4.1.3.2-.2.1-.5.4-.7-.1-.2-.3 0-.4-.3-.2.1-.1.2-.1.4-.1-.2-.3.1-.4-.2.1-.1.2-.1.3-.2-.2-.3-.4-.1-.6.1.1.2.5.4.3.5-.3 0-.4-.1-.5-.1z" fill="#8b8384"/><path d="m93.7-19.2c.1 0 .1 0 .2.1.1-.1.2-.2.4-.3 0-.1-.1-.6-.4-.5 0 .2-.3.4-.2.7z" fill="#8b8384"/><path d="m61.1-57.4c-.2 0-.3 0-.4 0 0 .2-.3.4-.1.7.4-.1.7-.3.5-.7z" fill="#8b8384"/><path d="m77.5-16.2c.2-.1.1-.2.3-.3-.5-.1-.3-.2-.7.2.1.2.3 0 .4.1z" fill="#8b8384"/><path d="m59.7-38.1c0 .6.8 1.3 1.5.5-.2-.7-.7-1-1.5-.5z" fill="#8b8384"/><path d="m63.3-63c.1.3.3.3.5.7.4-.3.4-.7.3-1-.3.1 0 .5-.3.4 0-.2.2-.9-.3-.6.3.2-.3.3-.2.5z" fill="#8b8384"/><path d="m63.2-71.6c-.3.2-.5.4-.2.6.3-.2.4-.4.2-.6z" fill="#8b8384"/><path d="m64-67.5c.2-.1.1-.2.3-.3-.1-.3-.3-.2-.5-.4-.2.1-.6.3-.7.5.3.3.6.4.9.2z" fill="#8b8384"/><path d="m71.4-94.9c.1-.4 0-.5.5-.4 0-.4.1-1-.5-1.2-.7.4-.5.8-.8 1.2.4.1.6.4.8.4z" fill="#8b8384"/><path d="m63.6-64.6c.4-.3.5.5.7.7.6-.6-.2-.7-.2-1.5-.3.1-.5-.1-.9.1.4.4.3.4.4.7z" fill="#8b8384"/><path d="m68.6-77.1c.2.5-.4.8-.1 1.3 1.3.3 1.5-2.1.1-1.3z" fill="#8b8384"/><path d="m65-31.4c-.3-.1-.6 0-.7.3.2.2.3.5.6.2-.1-.3-.5-.2-.2-.5-.1.4.4.3.3 0z" fill="#8b8384"/><path d="m71-93.5c-.1-.3 0 .9.6.6-.4-.4-.3-.3-.6-.6z" fill="#8b8384"/><path d="m69.1-73.3c.3 0 .2-.2.4-.4.2.4.5.1.8 0-.2-.2 0-.3-.3-.5-.5-.2-.9.3-.9.9z" fill="#8b8384"/><path d="m64.4-28.8c.2.1.3.6.5.5-.2-.2-.1-.8-.5-.5z" fill="#8b8384"/><path d="m62.7-13.3c-.2 0-.4.1-.6.3.1.6.8-.1.6-.3z" fill="#8b8384"/><path d="m61.1-43.3c.2.2.3.4.5.6.3-.3-.2-.7-.5-.6z" fill="#8b8384"/><path d="m62.2-23.5c-.2.3-.3.1-.5.3.1.5.4.6.9.4.1-.3-.1-.4-.4-.7z" fill="#8b8384"/><path d="m64-9.7c.4.2.8.5 1.3.4-.2-.5-.8-1.1-1.3-.4z" fill="#8b8384"/><path d="m63.5-42.7c-.2-.3.3-.5-.2-.8-.2.2-.3.1-.4.2.2.6-.2 1 .6 1.5-.9.8-.3 1.8-.3 2.7.2.1.3.1.5.1.5-.9.8-1.8 1.4-2.7 0-.9-.9-1-1.6-1z" fill="#8b8384"/><path d="m63-19.4c.2.2.4.4.6.4-.1-.2-.3-.5-.2-.7.5.2.7 1 .6 1.4.8-.1.1-.8.6-1.2-.4-.8-1.4-.7-1.6.1z" fill="#8b8384"/><path d="m64-62c.2.2.3.3.5.3.1-.2-.2-.5-.5-.3z" fill="#8b8384"/><path d="m2.8-88.6c.1.2-.1.4.2.5.5-.2.1-.8-.2-.5z" fill="#8b8384"/><path d="m2.6-54.4c-.4.1-.1-.5-.5-.3 0 .5.1.9 0 1.4.4-.3.5-.7.5-1.1z" fill="#8b8384"/><path d="m3.2-68.9c-.1-.5.1-.3.3-.9-.2-.1-.4-.4-.7-.2-.1.1.1.3-.2.4-.1-.1-.2-.1-.3-.2-.4.2-.2.4-.5.6.4.6.8.6 1.4.3z" fill="#8b8384"/><path d="m2.3-93.9c.1-.1.2 0 .3 0 .5-.2.3-.5.5-.8-.2-.2-.5-.2-.7-.4-.5.5-.3.8-.1 1.2z" fill="#8b8384"/><path d="m2.9-65.7c.2 0 .4.2.6-.1-.1-.4-.7-.2-.6.1z" fill="#8b8384"/><path d="m3.8-70.8c-.3 0-.6.1-.9.2.1.2.8.1.9-.2z" fill="#8b8384"/><path d="m3.8-72.7c-.1.3-.2.8.2.8.5-.2.1-1-.2-.8z" fill="#8b8384"/><path d="m1.4-27.1c.3-.2.2-.5-.1-.8-.2 0-.3.1-.5.2.2.4.2.5.6.6z" fill="#8b8384"/><path d="m.8-29.5c.5-.2.3-.5.4-.8-.5.1-.6.4-.4.8z" fill="#8b8384"/><path d="m2.1-56.5c.3 0 .4-.3.3-.5-.2.1-.4.3-.3.5z" fill="#8b8384"/><path d="m1.6-75.9c-.1.1-.2.1-.3.2.2.3.4.4.7.1-.1-.1-.2-.2-.4-.3z" fill="#8b8384"/><path d="m2.1-36.5c.2-.1.4-.3.5-.4-.2-.6-.9.1-.5.4z" fill="#8b8384"/><path d="m3.4-22.1c-.1.1-.2.1-.3.2 0 .5.6.8 1 .5-.2-.3-.5-.6-.7-.7z" fill="#8b8384"/><path d="m3.8-16.8c.1-.2 0-.5-.3-.8-.6 0-.9.6-.6 1.1.3.1.6-.1.9-.3z" fill="#8b8384"/><path d="m3-18.1c.3-.2.2-.8-.2-.8.2.2-.3.4 0 .7.1-.1.1 0 .2.1z" fill="#8b8384"/><path d="m3.6-61c.2-.1.3-.2.4-.2.1-.2-.2-.9-.6-.6.2.3-.1.5.2.8z" fill="#8b8384"/><path d="m3.1-22.5c0-.1 0-.2.1-.2-.1-.1-.2-.2-.2-.3-.2 0-.4-.1-.7.2-.1.3.4.5.8.3z" fill="#8b8384"/><path d="m3.3-25.9c-.2-.3-.4 0-.7.2.1.2.6.1.7-.2z" fill="#8b8384"/><path d="m1.5-51.9c.5-.7-.8-.8-.7-.2.2 0 .4.4.7.2z" fill="#8b8384"/><path d="m4.5-68.8c.4.1.4-.6 0-.4.1.1 0 .2 0 .4z" fill="#8b8384"/><path d="m6.4-17.5c.2.2.3.4.5.3-.1-.1-.2-.6-.5-.3z" fill="#8b8384"/><path d="m3.8-67.4c.2.2.4.3.7 0-.1-.1-.2-.2-.2-.3-.2-.1-.5.1-.5.3z" fill="#8b8384"/><path d="m4.6-91.7c.2-.3.1-.2.4-.2.1-.2-.2-.9-.6-.6.1.3-.1.5.2.8z" fill="#8b8384"/><path d="m.8-87.5c.2.2.1.5.2.7.4-.1 1.2-.9.6-1.1-.1.1.2.3.1.4-.4.4-.6-.2-.9 0z" fill="#8b8384"/><path d="m5.4-32.3c-.3-.7-.8-1.7-.3-2.2-.2.1-.3-.1-.5.1-.2.1.1.3-.1.4-1 0-1.3-1.5-2.5-1 0 .2 0 .3.2.5-.3.1-.2.3-.5.5 0-.1-.1-.5-.3-.4.3.3-.1.7.2.7-.3.1-.3.3-.5.5.5.3-.2.6.1.9 1.2 0 2.1.3 3.3-.2.4.1.5.5.9.2z" fill="#8b8384"/><path d="m.7-57.5c.2 0 .4-.1.5-.4-.2-.1-.4-.2-.5-.2z" fill="#8b8384"/><path d="m.7-65.6c.1 0 .3-.1.4-.3-.2-.2 0-.3-.3-.5h-.1z" fill="#8b8384"/><path d="m.8-1.4c.6 1.4.4.2 0 0z" fill="#8b8384"/><path d="m.7-6.3v1.5c.1 1.2.4 2.6.6 2.8-.2-.3-.4-3.5-.6-4.3z" fill="#8b8384"/><path d="m9-44c-.1.1-.2 0-.4 0-.1.3.1.7.5.4 0-.1 0-.2-.1-.4z" fill="#8b8384"/><path d="m7-61c0 .2-.1.4.2.6.2-.1.3.1.6-.2-.2-.2-.5-.5-.8-.4z" fill="#8b8384"/><path d="m6.8-80.2c.1.1 0 .2.2.4.1-.1.2-.2.2-.2-.1-.2-.2-.3-.4-.2z" fill="#8b8384"/><path d="m100.7-17.9c-.1 0-.2 0-.3 0 .3-.2.2-.5-.1-.3 0 .3-.2.5.2.8.1 0 .1-.1.2-.1z" fill="#8b8384"/><path d="m100-.6c.1.1 0 .2.2.4.3-.1.1-.3.4-.4-.2-.3-.4-.2-.6 0z" fill="#8b8384"/><path d="m71.1-.2c-.2-.2-.5-.2-.7-.1.1.1.1.2.1.3h.5c-.2-.2-.4-.2.1-.2z" fill="#8b8384"/><path d="m56.7 0h.3c-.1 0-.2-.1-.3-.2.1.1 0 .2 0 .2z" fill="#8b8384"/><path d="m97.9-.4c.1.1.1.3.1.4h.2c0-.2 0-.6-.3-.4z" fill="#8b8384"/><path d="m1.2-9.6c-.2-.2-.4-.4-.5-.4v.1c.1.3.2.6.5.3z" fill="#8b8384"/><path d="m5.6-28.9c-.3-.3-.7-.4-1.1 0 .3.3.7.2 1.1 0z" fill="#8b8384"/><path d="m1.9-19.4c-.3-.4.2-.5-.3-.8-1.6 0-.7 2 .3.8z" fill="#8b8384"/><path d="m.7-29.6v.2c0-.1 0-.1 0-.2z" fill="#8b8384"/><path d="m4.7-54.4c0 .3.7.4 1.1 0-.2-.7-.9-.5-1.1 0z" fill="#8b8384"/><path d="m.7-53.6v.1s0 0 0-.1z" fill="#8b8384"/><path d="m6.5-56.5c-.1-.2.4-.4.1-.6-.2.1-.4.3-.5.4.1.2.2.2.4.2z" fill="#8b8384"/><path d="m8.8-66.9c0-.4.3-.8-.1-.9-.2.5-.4-.1-.5-.4-.2.2-.2.4-.5.5-.1.6.6.9 1.1.8z" fill="#8b8384"/><path d="m8.5-79.3c.1-.7-1.1-.7-.8 0 .2.3.5.2.8 0z" fill="#8b8384"/><path d="m6.2-65.4c.3-.1.4-.2.5-.5-.1.1-.2 0-.4 0 .2.3-.2.4-.1.5z" fill="#8b8384"/><path d="m7.1-47.2c.2.6.3 1.2 1 1.3.2-.2.4-.3.6-.5-.1-.5-.3-.7-.5-1-.4.3-.8.4-1.1.2z" fill="#8b8384"/><path d="m6.4-50.8c-.2-.2-.3-.6-.6-.3.1.2.3.5.6.3z" fill="#8b8384"/><path d="m82.7-23.4c-.1-.1-.3.1-.4.2 0 .4.7 0 .4-.2z" fill="#8b8384"/><path d="m91-24.8c.1-.5-.8-.6-.9-.1.2.5.6.1.9.1z" fill="#8b8384"/><path d="m92.5-28.5c.3.1.9-.7.7-.6-.3.4-.4.1-.6.1 0 .2-.2.3-.1.5z" fill="#8b8384"/><path d="m86.9-19.4c-.2-.4-.7-.2-.6-.6-.2.1-.3-.1-.5.1.5.3.6.8 1.1.5z" fill="#8b8384"/><path d="m91.5-29c-.1.2.5.5.7.6-.2-.4-.5-.6-.2-1.1.5.1.4-.4.4-.7.5-.1.6-.6 1-.1.4-.4-.3-.4.1-.8.2.3.4-.2.6-.3.1.1.2.2.3.2.4-.2.2-.5.5-.8-.2-.5-.7-.1-.4-.6-.5.2-.9-.2-1.3-.3-.3.3-.6.5-.8.8.1 0 .3-.1.4 0-.2.5-.6.3-.9.7-.4-.1-.7-.5-1.1-.4.2.3.4.4.6.6-.2.3 0 .6-.4.9.1-.3-.5-.6-.5-.3.2-.1-.1.4-.1.6-.3-.2-.2-.4-.2-.6-.5.4.2.9-.3 1.2.5.5 1.1.5 1.6.4z" fill="#8b8384"/><path d="m84.2-16.8c.4-.3.3-.4.6-.5-.3-.5-.7-.5-1.1 0 .1.2.3.5.5.5z" fill="#8b8384"/><path d="m85.4-22.1c-.1-.3 0-.6-.4-.5.2-.3.2-.5.2-.8-.2.4-.6 0-1 .2 0 .5.2.5 0 1 .4-.1.4 0 .5.3.4-.2.5 0 .7-.2z" fill="#8b8384"/><path d="m91.9-13.3c-.1-.2-.3.2-.5.3 0 .3.8 0 .5-.3z" fill="#8b8384"/><path d="m91.9-21.6c-.1-.3-.5-.2-.1-.3-.1-.3-.4-.1-.6.1.1.1.2.3.3.4.1-.1.3-.1.4-.2z" fill="#8b8384"/><path d="m84.5-21.2c-.4-.2-.3-.7-.9-.7.2.3.5.7.9.7z" fill="#8b8384"/><path d="m8.7-38.9c-.3.1-.1.3-.2.4-.3-.2-.7-.5-1-.8-.5.2-1 .3-1.5.6.2.4.3.5.6.8.7-.6 1.1 0 1.7 0 .4-.3.9-.8.4-1z" fill="#8b8384"/><path d="m91.7-27.4c-.3-.1-.8.2-.4.5.2-.1.5-.3.4-.5z" fill="#8b8384"/><path d="m91.6-10.7c.1.2.3.3.5.3.1-.3-.2-.6-.5-.3z" fill="#8b8384"/><path d="m93.1-26.2c0-.1.1-.2.2-.3-.2-.2-.3-.4-.6-.2.2.1.1.6.4.5z" fill="#8b8384"/><path d="m80-10.9c-.2.2-.6.4-.4.6.3-.1.5.1.8.1 0-.3-.3-.5-.4-.7z" fill="#8b8384"/><path d="m79.6-8.3c-.3.1 0 .3-.3.5.1.2.3.1.5.3.3-.4.2-.8-.2-.8z" fill="#8b8384"/><path d="m78.3-1.2c-.2-.1-.5.3-.4.4s.7-.1.4-.4z" fill="#8b8384"/><path d="m80-23.5c-.1-.1-.2-.2-.2-.3-.3.1-.6.6-.8.5-.1-.3-.3-.6-.7-.3.2.4-.2.7.2 1.1.6-.3.8-.9 1.5-1z" fill="#8b8384"/><path d="m81.1-25.7c-.4-.4-.5-.5-.7-.9-.3.2-.3.4-.4.6.3.2.4.4.5.7.2-.1.6-.1.6-.4z" fill="#8b8384"/><path d="m83.3-19.1c-.2-.3-.4-1-.8-.9.3.4.4.6.8.9z" fill="#8b8384"/><path d="m84.2-40c-.2-.2 0-.3-.3-.5-.2 0-.4.2-.6.3.3.2.5.3.9.2z" fill="#8b8384"/><path d="m77.7-18.6c-.2 0-.3.1-.5.3.2.3.4.3.7.1-.1-.1 0-.2-.2-.4z" fill="#8b8384"/><path d="m83.1-23.9c-.1-.4-.7-.4-1.1-.5.4.1.6 1 1.1.5z" fill="#8b8384"/><path d="m81.8-14.8c-.3.2-.2.4-.5.4.1.1.2.3.3.4.2-.2.3-.5.2-.8z" fill="#8b8384"/><path d="m82-11.9c.1.1-.1.2-.2.3.2.1.3.3.5.3 0-.2 0-.7-.3-.6z" fill="#8b8384"/><path d="m93.3-23.9c.1-.3-.6-.3-.6 0 .3-.1.4.1.6 0z" fill="#8b8384"/><path d="m99.5-38.6c-.1.1-.2.1-.3.2.5.5.2.7.7 1.1.1-.1.2-.1.3-.1-.3-.9-.3-.8-.7-1.2z" fill="#8b8384"/><path d="m100.7-29.6v-.4-.1c-.1.1-.2 0-.3.1 0 .1 0 .3.2.5 0 0 0-.1.1-.1z" fill="#8b8384"/><path d="m99.8-13.1c-.2-.3-.6 0-.8 0 .2.3.6-.1.8 0z" fill="#8b8384"/><path d="m99.3-9.4c-.1-.2-.2-.1-.3-.2-.2 0-.1.5-.4.3.1-.1.2-.1.1-.2-.4.2-.2.4-.2.6.3 0 .8-.2.8-.5z" fill="#8b8384"/><path d="m92.8-11c-.2-.2-.4-.4-.7-.2.2.2.4.4.7.2z" fill="#8b8384"/><path d="m8.2-32.2c-.2.1-.3-.1-.5.1.1.1-.1.2-.1.4.2.2.3.5.5.3-.1-.4.4-.4.1-.8z" fill="#8b8384"/><path d="m76.2-99.5c.1-.1.2-.1.3 0 .2-.2.2-.3.3-.5h-.6z" fill="#8b8384"/><path d="m100-92.8c.2.3.4.6.7.6v-1.2c-.2.2-.3.4-.7.6z" fill="#8b8384"/><path d="m98.8-7.6c-.3 0-.6.1-.5.4.1 0 .6-.1.5-.4z" fill="#8b8384"/><path d="m79.2-99.6c.6 1.3 2.2.7 2.5-.4 0 0 0 0 0-.1h-2.3c-.1.2-.2.4-.2.5z" fill="#8b8384"/><path d="m100.6-94.5c-.1.1-.2.1-.3.2.2.2 0 .3.2.5l.2-.2v-.2c-.1-.1-.1-.2-.1-.3z" fill="#8b8384"/><path d="m100.7-24c-.2.2-.1.4 0 .6z" fill="#8b8384"/><path d="m96.1-14.8c0-.3.2-.6.2-.9-.4.4-.7 0-1.1.4 0 .5.6.7.9.5z" fill="#8b8384"/><path d="m95.3-14.2c-.2-.2 0-.3-.1-.4-.8.1-2.1-.4-1.8.9.6.3 1.3-.2 1.9-.5z" fill="#8b8384"/><path d="m95.8-31.7c.2.2.4.5.6.3 0-.3-.1-.6-.6-.3z" fill="#8b8384"/><path d="m93.4-16.2c0-.2-.3-.4-.5-.3.1.2-.1.3 0 .5.1-.2.3 0 .5-.2z" fill="#8b8384"/><path d="m94-21c-.2-.4-.7-.1-.7.2.1.1.2.2.2.3.2-.2.2-.4.5-.5z" fill="#8b8384"/><path d="m96.8-42c0-.1.4-.6.5-.5 0 0-.1.1 0 .1.3-.1 0-.3-.1-.4-.4.2-.1.4-.5.6-.1-.2-.3-.7-.4-.5 0 .3.3.8.5.7z" fill="#8b8384"/><path d="m97.4-12.8c-.2-.3-.4-.1-.6.1.1.4.6.2.6-.1z" fill="#8b8384"/><path d="m97.7-10.9c.2-.1.3-.1.4-.2.3-.7-.8-.4-.4.2z" fill="#8b8384"/><path d="m98.5-27c-.5-.9-1.3-.1-1 .5.3.3.8-.2 1-.5z" fill="#8b8384"/><path d="m96.9-26.2c.1.3.4-.1.5 0-.1-.1-.2-.2-.2-.3-.2.1-.3.2-.3.3z" fill="#8b8384"/><path d="m97.9-20.1c-.2-.3-.4-.2-.6-.2.2.3.4.3.6.2z" fill="#8b8384"/><path d="m60.7-47.9c-.6.3-.1 1 .4.7 0-.4-.4-.3-.4-.7z" fill="#8b8384"/><path d="m92-57.9c.2-.2.3-.5.3-.7-.3-.1-.4.4-.3.7z" fill="#8b8384"/><path d="m93.9-65.2c-.2-.3-.4-.1-.6.1.1.1.2.2.2.3.3-.1.2-.2.4-.4z" fill="#8b8384"/><path d="m91.6-64.7c-.3-.1-.5.6-.2.5-.1-.2.4-.3.2-.5z" fill="#8b8384"/><path d="m92.4-52.4c.4.5.8 0 .9-.3-.1-.1-.3-.2-.4-.2 0 .3-.2.5-.5.5z" fill="#8b8384"/><path d="m92.9-59c.2.2.4.3.6.2-.2-.3-.4-.5-.6-.2z" fill="#8b8384"/><path d="m93.6-59.9c.1.2 0 .8.3.8 0-.2 0-.8-.3-.8z" fill="#8b8384"/><path d="m89.1-49.2c.1.3.3.2.5.4.4-.2.3-.5.3-.7-.3.4-.5 0-.8.3z" fill="#8b8384"/><path d="m89.4-23.3c-.3.2-.2.4 0 .6.3-.2.2-.4 0-.6z" fill="#8b8384"/><path d="m91.8-35.8c-.2-.3-.4-.3-.7-.2.3.2 0 .4.2.7.2-.1.4-.3.5-.5z" fill="#8b8384"/><path d="m90.4-39.1c-.1.1-.2.2-.4.3.1.1.2.2.2.3.4-.2.5-.4.2-.6z" fill="#8b8384"/><path d="m89.7-55.4c.3-.2 0-.5.1-.7-.2-.2-.5-.3-.8-.1.4.1.5.3.7.8z" fill="#8b8384"/><path d="m90.4-59.5c-.5-.2 0-.6-.5-.5.2.2-.1.8.5.5z" fill="#8b8384"/><path d="m94.9-51.4c.2-.3.3.1.6-.2-.1-.1 0-.2-.2-.4-.3.3-.5.4-.4.6z" fill="#8b8384"/><path d="m96.4-51.4c.1-.1.3 0 .4 0-.2-.1-.4-.5-.7-.3.1.1-.1.2-.1.3.3-.5.2-.3.4 0z" fill="#8b8384"/><path d="m97.1-53.3c-.1-.2-.1-.5-.4-.3.1.2-.2.3.1.4.1-.1.2-.1.3-.1z" fill="#8b8384"/><path d="m93.1-49.1c-.6.5-.5 1-.8 1.6.1.3.4 0 .5.3 0 .2-.4.4-.4.6.1.2.2.3.4.5.2-.2.7 0 .7-.4-.3-.1-.5-1.1.1-1.5.3.3.7.1 1 .1.6-.9-.9-1.2-.7-2.1-.6-.4-1 .5-.8.9z" fill="#8b8384"/><path d="m95.5-60.9c.2.2.3.4.6.2-.2-.3-.4-.2-.6-.2z" fill="#8b8384"/><path d="m96.3-55.8c0 .3.2.2.3.6.2 0 .3-.1.5-.3-.1-.4-.5.1-.8-.3.1 0 .2-.1 0 0z" fill="#8b8384"/><path d="m97.4-58.5c-.5 0-.6-.7-.7-1.1-.7.4.3.5 0 .9.2 0 .4.6.7.2z" fill="#8b8384"/><path d="m94.7-46.4c.2.2.5.2.7.2.2-.4-.6-.7-.7-.2z" fill="#8b8384"/><path d="m90.8-57.2c.3.4.6.8.9.8-.3-.3.3-.6.3-.9-.4.1-.8.1-1.2.1z" fill="#8b8384"/><path d="m95.5-41.7c.1.1.2.3.2.4.2-.2.6.2.5-.3-.2.1-.2-.6-.5-.3 0 0-.1.1-.2.2z" fill="#8b8384"/><path d="m95.7-52.8c.1.3.2.7.5.8.3-.1.1-.3.2-.4-.2-.2-.7-.1-.4-.5.1.2.3.2.4 0-.1-.1-.2-.2-.2-.3-.2.1-.3.2-.5.4z" fill="#8b8384"/><path d="m95.4-50.3c.1.2-.1.4-.1.6.2-.2.3.2.5 0-.1-.1.1-.2.1-.4-.2 0-.3-.2-.5-.2z" fill="#8b8384"/><path d="m91.5-90.7c.2.2.3.5.5.3-.1-.1-.3-.4-.5-.3z" fill="#8b8384"/><path d="m93.8-88.9c.2.3.5.2.8-.1-.2-.5-.7-.3-.8.1z" fill="#8b8384"/><path d="m93.1-80.9c.2.3.2.5.5.6.5-.3.4-.6.3-.9-.3.4-.5 0-.8.3z" fill="#8b8384"/><path d="m96.1-65.7c-.2.1-.1.2-.3.3.3.2.3.3.4.6.1-.1.2-.1.3-.2-.4-.2-.2-.4-.4-.7z" fill="#8b8384"/><path d="m95.1-56.3c-.3-.3-.7-.7-1.1-.7-.1.6.7.9 1.1.7z" fill="#8b8384"/><path d="m95.6-75.9c.1.1.2.3.3.4.1-.1.2-.2.4-.3-.2-.2-.4-.4-.7-.1z" fill="#8b8384"/><path d="m94.9-57.3c.2.4.7.4.5.8.2 0 .5-.3.7-.2-.4-.6-.8-.8-1.2-.6z" fill="#8b8384"/><path d="m92.1-52.9c-.1-.1-.2-.2-.1-.3.1.1.2-.1.3-.2-.1-.2-.3-.2-.5 0 .3.2-.1.7.3.5z" fill="#8b8384"/><path d="m90.5-87c.1.1-.1.2-.2.3.1.2 0 .6.3.4 0-.5.1-.2.6-.5-.2-.4-.5-.4-.7-.2z" fill="#8b8384"/><path d="m93.4-90.9c.2-.2.3-.4.1-.6-.3 0-.5.6-.1.6z" fill="#8b8384"/><path d="m95.8-54.7c-.2.1-.4.3-.5.5.3.2.6.4.9.4-.1-.5-.8-.2-.7-.5.3-.2.5.1.8-.1.1-.4-.4.1-.5-.3z" fill="#8b8384"/><path d="m92-88.9c.1.3.3.7.7.5-.1-.1.1-.2.1-.4-.2-.2-.5-.2-.8-.1z" fill="#8b8384"/><path d="m92.7-84.9c.2.3.4.4.7.4.1-.4-.4-.4-.7-.4z" fill="#8b8384"/><path d="m93.2-84.4c-.2.1-.4.3-.5.4.1.3.4.3.5.3.2-.1.1-.3.4-.4-.1-.2-.3-.1-.4-.3z" fill="#8b8384"/><path d="m92.7-34.6c-.2-.3-.5-.7-.8-.4.2.2.5.5.8.4z" fill="#8b8384"/><path d="m93.3-39.3c-.1-.4-.6-1-.2-1.6-.4 0-.4.2-.8.4.3.4.6.4 0 .6.3.6.4.9 1 .6z" fill="#8b8384"/><path d="m93.3-41.8c-.3 0-.6.4-.5.6.1-.1.3-.1.4 0 0 0-.1.1.1.1-.2-.2.1-.4 0-.7z" fill="#8b8384"/><path d="m93.7-50.9c-.7-.9-1.1.3-1.8.4.3.3.8.1 1.2.2-.2-.3.4-.4.6-.6z" fill="#8b8384"/><path d="m92.4-39.5c-.1-.1-.1-.2-.2-.2-.2.1-.3.3-.2.4.1 0 .3 0 .4-.2z" fill="#8b8384"/><path d="m96.1-63.7c-.2-.3-.4-.6-.7-.2.4.5.8.8.7 1.3.3-.2-.1-.5.1-.8.2-.1.3-.2.3-.3.3.1.1.2.4.3 0 .3-.3.1-.4.4.1.3.4.1.6.1 0-.4-.2-1 .4-1.1-.5-.5-1-.3-1.3-.6.2.3-.1.6-.1.9z" fill="#8b8384"/><path d="m96.6-50c-.1-.2.4-.4.1-.6-.2.1-.3.1-.4.2 0 .1.1.5.3.4z" fill="#8b8384"/><path d="m93.9-43.8c-.4 0-.2-.7-.7-.4 0 .2.2.4.3.6.2-.3.5 0 .4-.2z" fill="#8b8384"/><path d="m97.4-63.5c.1.2-.3.3 0 .5.1-.1.2-.2.4-.3-.2-.1-.3-.3-.4-.2z" fill="#8b8384"/><path d="m96.4-42.3c-.2.1-.2-.6-.5-.3 0 .1 0 .1-.1.2.1.1.2.3.2.4 0-.3.4.1.4-.3z" fill="#8b8384"/><path d="m96.2-40.7c-.2-.2 0-.3-.2-.5-.2.1-.3.3-.2.4.2-.1.2.2.4.1z" fill="#8b8384"/><path d="m91-95.6c0 .2.2.5.5.3 0-.4-.3-.4-.5-.3z" fill="#8b8384"/><path d="m83.6-54.9c0 .2 0 .3.2.5.3-.2.1-.7-.2-.5z" fill="#8b8384"/><path d="m87.8-19.7c-.2-.1-.4-.2-.7 0 .1.4.4.3.4.7-.1-.2-.3-.3-.4-.2.1.1.2.3.3.4.2-.1.4-.3.5-.4-.3-.2.1-.3-.1-.5z" fill="#8b8384"/><path d="m85.3-27.3c0 .2.1.4.1.5.4 0 .6-.6.9-.4-.2-.2 0-.3-.2-.5-.4 0-.5 0-.8.4z" fill="#8b8384"/><path d="m84.5-50.1c0-.1-.3-.8-.7-.9 0 .3.3 1.1.7.9z" fill="#8b8384"/><path d="m86.9-17.4c.1.2.2.1.3.3.3-.2.2-.3 0-.5-.1 0-.2.1-.3.2z" fill="#8b8384"/><path d="m93.9-75.5c-.2-.2-.3-.4-.5-.3.1.1 0 .2.2.4.1-.2.2-.1.3-.1z" fill="#8b8384"/><path d="m83.3-54.4c0 .2.3.9.7.5-.4-.2-.2-.6-.7-.5z" fill="#8b8384"/><path d="m84.1-44.3c-.2-.2 0-.3-.2-.5-.3.4-.6.1-.9.2.3.3.7.4 1.1.3z" fill="#8b8384"/><path d="m83.1-60.7c0 .3.1 1.1.6 1-.3-.3-.2-.9-.6-1z" fill="#8b8384"/><path d="m83-27.5c-.1.1-.2.2-.4.3.2.4.7-.1.4-.3z" fill="#8b8384"/><path d="m82.6-51.7c.3.3.3.6.5.9.3 0 .3-.5.8-.7-.3-.3.2-.5-.2-.8-.7-.3-.7.5-1.1.6z" fill="#8b8384"/><path d="m83.8-41.1c.1-.3-.2-.2-.4-.5-.3.3-.6.1-.6.5.2.4.6.3 1 0z" fill="#8b8384"/><path d="m90.1-26.8c-.1.1-.2.2-.4.3.1.1.1.2.1.3.3 0 .7-.4.3-.6z" fill="#8b8384"/><path d="m95.4-23.8c.1-.1.2-.2.4-.3-.3-.4-.2-.6-.7-.4 0 .4 0 .4.3.7z" fill="#8b8384"/><path d="m95.6-40.8c-.4.2.3.4-.3.6.1.1.1.2.2.2.1-.1.2-.1.3-.2-.3-.4-.1-.4-.2-.6z" fill="#8b8384"/><path d="m94.1-39.7c.4 0 .8-.4 1.3-.7-.1-.3-.1-1-.6-1.2-.6.3-.2.7-.8 1 .3.3.1.6.1.9 0-.2-.3.1 0 0z" fill="#8b8384"/><path d="m94.5-16.4c-.1-.2-.2-.3-.4-.5-.2.3-.3-.1-.6.2.1.6.8.1 1 .3z" fill="#8b8384"/><path d="m94.3-20.3c.2.3.5.1.9-.2.2-.8-1.2-.5-.9.2z" fill="#8b8384"/><path d="m84.1-48.1c.1-.1.2-.2.3-.3-.2-.3-.4-.6-.7-.5-.1.3.1.9.5 1 .1 0 0-.1-.1-.2z" fill="#8b8384"/><path d="m88.6-17c.4 0 .3-.4.3-.6-.4.2-.3.4-.3.6z" fill="#8b8384"/><path d="m89.4-24.8c.6-.7-.6-1.2-1.1-1.1 0 .4.6.6.8 1.1.2 0 .3-.1.3 0z" fill="#8b8384"/><path d="m90.8-32.7c-.4.1.1-.3 0-.4-.6-.2-.5.4-1.3.3.4.3.9.1 1.3.4 0-.1-.1-.1 0-.2 0 0 .1 0 0-.1z" fill="#8b8384"/><path d="m90.2-31.3c-.4 0-.6.5-.3.9.2-.2.3 0 .5-.3-.1-.2 0-.4-.2-.6z" fill="#8b8384"/><path d="m90.9-33c.5-.2.3-1.1-.2-.7.4.2.1.4.2.7z" fill="#8b8384"/><path d="m87.6-43.9c-.5-.3 0-.5-.5-.7.3.1.2-.4.1-.3 0 .4-.5.4-.7.5-.4-.5-.9-.5-1.3-.8-1.2.8-.6 1.9-.4 2.6.5-.6.8-.1 1.2.1-.2-.2-.2-.3-.1-.4.3.5.4.6.3 1.1.2-.2.4-.3.6-.3-.1-.7.5-1.4.8-1.8z" fill="#8b8384"/><path d="m88.7-29.6c-.3-.1-.5-.4-.5-.7-.2.2-.3 0-.5.1.3.2.6.7 1 .6z" fill="#8b8384"/><path d="m89.6-77.2c.2-.1.3.2.4.2.1-.8.9-.2 1.1-.7-.2-.4-.6.3-.8 0-.3-.4-.5-.7-.9-.4-.1.4.4.4.5.7 0 .1-.4-.1-.3.2z" fill="#8b8384"/><path d="m89.6-90.2c.4-.2.4-.5.1-.7-.1.1-.2 0-.3.1 0 .2-.1.4.2.6z" fill="#8b8384"/><path d="m87.8-20.9c-.1.1-.2 0-.3.1.1.2.3.4.5.3-.1-.2 0-.3-.2-.4z" fill="#8b8384"/><path d="m83.9-36c.2.1.2.5.5.4 0 0-.1-.1 0-.1s.1-.1 0-.1c-.2.1-.3-.6-.5-.2z" fill="#8b8384"/><path d="m88.1-44.5c-.1-.2-.3-.1-.5-.1-.1.2.2 1.1.2.8 0-.2.1-.4.3-.7z" fill="#8b8384"/><path d="m87.6-59c.5-.2.1.6.6.6.3-.3-.5-1.1-.6-.6z" fill="#8b8384"/><path d="m91.5-85.9c-.3-.1-.7.1-1 .1.1.1.2.2.2.3.3-.3.6-.3.8-.2-.3.4.2.9.3 1.1.4-.4.7-.8.6-1.2-.2-.2-.8.1-.7.4-.1-.1-.1 0-.2-.1 0-.1.3-.2 0-.4z" fill="#8b8384"/><path d="m91.9-65.3c.2.2.9.3.9.1-.3 0-.5-.1-.9-.3.4 0 .7-.1 1.1-.2 0-.3 0-.4.3-.5-.2-.2-.3-.4-.2-.6 1.6-.7.9-1-.1-1.3-.4.4-.5.4-.9.3.3.1.2.3.2.6-.4.1-.7 0-1.1.1.2-.2.3-1 .1-.7.1.3-.2.6-.5.5.6.1-.3.8-.5.8.2-.3.2-.6.3-.9-.5.1-1.1.6-1.5.5.3 1.1 1.7 2.5 2.8 1.6z" fill="#8b8384"/><path d="m90.4-70.1c.1-.4-.1.4.1.2 0-.1 0-.2.1-.2-.1-.1-.2-.3-.3-.2 0 0 .1.1 0 .1-.1-.1-.2-.2-.3-.2.1.1.2.5.4.3z" fill="#8b8384"/><path d="m90.8-84.7c-.2-.2-.6 0-.8 0 .2.3.5.2.8 0z" fill="#8b8384"/><path d="m91.4-80.6c.1.4.3.4.4.7.2 0 .5-.3.7-.2.1-.5-.6-1.2-1.1-.5z" fill="#8b8384"/><path d="m87.1-28.3c-.1.1-.2 0-.4 0 .1.1-.2.2-.1.4.2 0 .7-.1.5-.4z" fill="#8b8384"/><path d="m85-48.3c.3.4.7.5 1.2.2-.3-.4-.5-.7-.9-.6.1.1-.1.2-.3.4z" fill="#8b8384"/><path d="m84.3-28.9c0 .3.3.6.6.2 0-.3-.3-.4-.6-.2z" fill="#8b8384"/><path d="m84.8-46.3c.3.4 1 .9 1.2.5-.5-.1-.8-.6-.6-1-.5.2-.2.4-.6.5z" fill="#8b8384"/><path d="m84.6-27.3c-.2-.2-.4-.2-.6-.2 0 .3.3.5.6.2z" fill="#8b8384"/><path d="m84.1-25c.3-.2 0-.7-.3-.5 0 .1.1.3.3.5z" fill="#8b8384"/><path d="m85.7-56c-.1.3.3.4.6.2-.1-.2-.3-.4-.6-.2z" fill="#8b8384"/><path d="m88.2-35.8c-.4 0-1.2.5-.8 1.1.2-.1.4 0 .7-.2.1-.3.2-.6.1-.9z" fill="#8b8384"/><path d="m85.4-82.2c-.3.6.7 1.4 1.4.8-.4-.4.1-1-.5-1.5-.4.2-.1.5-.1.7-.3.2-.5-.2-.8 0z" fill="#8b8384"/><path d="m88-72.4c-.2-.3-.7-.6-.1-.9-.3-.6-.8-.6-1.2-.8.2-.2.2-.3.5-.5-.3-.4-.7-.1-1-.4.2-.4-.4-.5-.7-.7-.6.7.4 1.4 1.1 1.6-.4.3-.3.6-.6.9.2.2.4.5.5.7.7-.4.9.7 1.5.1z" fill="#8b8384"/><path d="m86.8-31.7c.2.2.3.4.5.6.5-.3-.2-.7-.5-.6z" fill="#8b8384"/><path d="m87.4-56.1c-.4-.5-1-.5-1.2-1.2-1 .6.6 1.2.9 1.6.2-.2.2-.3.3-.4z" fill="#8b8384"/><path d="m69.4-68.3c.2.2.4.7.7.3-.1-.2-.3-.6-.7-.3z" fill="#8b8384"/><path d="m74.1-70.1c-.2-.2-.2-.3-.2-.5-.3 0-.9.1-1.1.4.2.3.5.3.8.5.4-.1.2-.3.5-.4z" fill="#8b8384"/><path d="m79.2-70.2c-.1-.2-.2-.3-.4-.5-.2.1-.3 0-.6.2.4.3.7.4 1 .3z" fill="#8b8384"/><path d="m76-65.3c-.5 0-.7.7-.1.7-.1.2-.1.4-.4.6.2.4.5.2.8 0-.7-.5.3-.9-.3-1.3z" fill="#8b8384"/><path d="m77.7-61.3c0 .2.2.4.3.6.2-.2.3 0 .5-.3 0-.4-.4-.8-.8-.3z" fill="#8b8384"/><path d="m75-80.8c-.1.1-.2.1-.3.2.1.1.2.2.2.3.3-.1.3-.3.1-.5z" fill="#8b8384"/><path d="m75.2-75.6c-.1-.1-.2-.3-.3-.4-.1.1-.2.2-.4.3.2.2.4.4.7.1z" fill="#8b8384"/><path d="m77.5-98.9c.4-.2-.2-.4 0-.6-.4.2-.2.4 0 .6z" fill="#8b8384"/><path d="m73.2-50.7c-.1-.1-.2-.2-.2-.3-.1.1-.4.2-.3.3.2-.1.3.3.5 0z" fill="#8b8384"/><path d="m78.1-37.8c-.1-.1-.2-.2-.1-.3.1.1.2 0 .2-.1-.3.4-.7-.5-.7-.2.2.2.1.8.6.6z" fill="#8b8384"/><path d="m77.6-67c.1.3.4 0 .5.3.2-.2.2-.5.1-.7-.3-.3-.5.2-.6.4z" fill="#8b8384"/><path d="m78.4-36.4c-.1-.3-.6-.4-.5-.1.2-.2.2.5.5.1z" fill="#8b8384"/><path d="m77.8-45.6c-.3.2-.3.5 0 .8.3-.2.2-.5 0-.8z" fill="#8b8384"/><path d="m77.9-39.5c.4-.2.1-.7-.2-.5.1.2-.1.3.2.5z" fill="#8b8384"/><path d="m70.8-61.3c.2-.2.1-.3 0-.5-.1.1-.2 0-.3.1.1.2.2.3.3.4z" fill="#8b8384"/><path d="m71.1-69.6c-.1-.2-.3-.1-.5 0 .1.1.1.2.1.3.1 0 .2-.1.4-.3z" fill="#8b8384"/><path d="m73.3-46c-.2-.2-.3-.4-.6-.2-.1.3.3.4.6.2z" fill="#8b8384"/><path d="m71.6-63.1c-.1-.2.4-.3.4-.2-.5.3-1.3.6-1.4 1.3.5-.3 1-.3 1.5-.5.1-.2.3-.5.3-.7-.2-.6-1.4-.2-.8.1z" fill="#8b8384"/><path d="m72.2-68.1c.3-.5.4.2.6-.1.1-.2.1-.4-.1-.7-.4 0-.8.5-.5.8z" fill="#8b8384"/><path d="m71.7-69.9c.2-.6-.4-.1-.6-.6.6-.4.8-1.1.6-1.3-.6-.9-1.2.4-1.4 1.1.6-.2.8 1.1 1.4.8z" fill="#8b8384"/><path d="m72.8-43.9c-.2-.2.1-.4-.2-.6-.1.1-.3 0-.4.2.2.2.3.6.6.4z" fill="#8b8384"/><path d="m89.3-97.2c0 .4.6.7 1 .9.6-.4.2-.8 0-1.2-.3 0-.6.1-1 .3z" fill="#8b8384"/><path d="m72.9-45.5c-.2-.1-.3-.3-.5-.1.2.2 0 .3.2.5.2-.2.3-.3.3-.4z" fill="#8b8384"/><path d="m71.5-36.3c-.3-.7-1.5-.1-.9.5.3-.1.6-.3.9-.5z" fill="#8b8384"/><path d="m70.3-38.2c.1.2.2.3.4.5.4-.2-.1-.9-.4-.5z" fill="#8b8384"/><path d="m76.6-44.4c-.2.5.6.7.8 1.2.8-.6-.1-1.5-.8-1.2z" fill="#8b8384"/><path d="m73.8-45.9c-.2.2.2.8.5.5 0-.2-.3-.7-.5-.5z" fill="#8b8384"/><path d="m74.2-49.5c-.1-.2.2-.3-.1-.4-.4-.3-1 .4-.7.7.3-.2.5 0 .8-.3z" fill="#8b8384"/><path d="m74.7-40.1c-.1-.3-.4-.2-.6-.2 0 .3.3.5.6.2z" fill="#8b8384"/><path d="m74.5-46.8c-.2.1-.3-.2-.4 0-.2.3.4.4.4 0z" fill="#8b8384"/><path d="m74.7-51.9c-.3 0-.5-.6-.9-.6.1.3.8 1 .9.6z" fill="#8b8384"/><path d="m74.2-59.2c.2.2.3.4.6.2-.2-.3-.4-.3-.6-.2z" fill="#8b8384"/><path d="m75.2-39.5c-.1-.1-.2-.2-.2-.3-.1.1-.2.2-.3.3 0 .2.2.2.5 0z" fill="#8b8384"/><path d="m75.1-48.5c-.1.1-.2.2-.4.3.2.2 0 .3.2.5.4-.1.5-.5.2-.8z" fill="#8b8384"/><path d="m75.8-50.6c-.3-.2-.1-.8-.5-.9.1.3.1.9.5.9z" fill="#8b8384"/><path d="m78.6-34.9c-.1-.4-.4 0-.6 0 .2.3.4.3.6 0z" fill="#8b8384"/><path d="m75-68.1c-.1.3.2.6.6.3-.1-.2-.3-.5-.6-.3z" fill="#8b8384"/><path d="m74.7-38.5c-.3 0-.6.4-.6.7.2-.2.3 0 .4 0 .4-.2.2-.5.2-.7z" fill="#8b8384"/><path d="m74.3-28.3c.1-.3-.3-.5-.6-.3.2.3.3.6.6.3z" fill="#8b8384"/><path d="m77.6-94.9c0-.1 0-.2-.1-.3.2.6.3 2.3.5 2.9-.1-1-.2-2.7-.4-2.6z" fill="#8b8384"/><path d="m77.7-74.5c.3 1.3 1.8.9 1.7-.1-.6-.5-.9-.6-1.7.1z" fill="#8b8384"/><path d="m77.4-95.3c.1.1.1.1.1.2 0-.2-.1-.3-.1-.2z" fill="#8b8384"/><path d="m79.5-45.7c-.1-.2-.2-.6-.5-.3.1.2.3.3.5.3z" fill="#8b8384"/><path d="m78.3-59.8c.1.3.1.2.3.4.1-.1.3-.2.4-.3-.1-.4-.4-.4-.7-.1z" fill="#8b8384"/><path d="m75.2-79.2c.2.1.3.8.7.5-.3-.1-.4-.6-.7-.5z" fill="#8b8384"/><path d="m76.9-60.7c.2.2 0 .3.2.5.3-.2.1-.9-.2-.5z" fill="#8b8384"/><path d="m77.3-48.6c-.4-.5-1-.2-1.4-.6.4.5.9.6 1.4.6z" fill="#8b8384"/><path d="m77.5-94.1c.2 1 .4 3.3.6 3.4 0 .3-.4-3.1-.6-3.4z" fill="#8b8384"/><path d="m77.2-94.3c.2-.1.3 0 .3.2 0-.2-.1-.4-.1-.5-.1.1-.3.2-.2.3z" fill="#8b8384"/><path d="m78.1-92s-.1-.1-.1-.2c.1.6.1 1 .2 1-.1.1-.2.2 0 .1.2-.2.2-.4.3-.6-.2-.2-.4 0-.4-.3z" fill="#8b8384"/><path d="m70.7-55.1c-.1-.1-.2-.2-.2-.3-.2.1-.1.2-.3.3.1.2.3.1.5 0z" fill="#8b8384"/><path d="m80.6-64.4c.4.7 1.5 1 1 2.1.3.2.6.5.9.6-.2-.3-.4-.5-.6-.8.3-.3.2-.7.1-1.1-.5.1-.7-.9-1.4-.8z" fill="#8b8384"/><path d="m81.7-22.4c.3-.1 0 .3-.2.4.1.2.2.3.4.5.5-.3-.1-.6.3-.9-.3.1-.6-.4-.5 0z" fill="#8b8384"/><path d="m81.2-39.9c-.5.3-.4.6-.2 1 .2-.1.3-.1.4-.2.1-.3.2-.5-.2-.8z" fill="#8b8384"/><path d="m84-87.8c-.4-1.3-1.4.8 0 0z" fill="#8b8384"/><path d="m81.8-85.2c.1.2 0 .4.2.7.2 0 .7-.3.7-.5-.2-.4-.5-.3-.9-.2z" fill="#8b8384"/><path d="m81.8-79.7c.1.1 0 .2.2.4.1-.1.3 0 .4-.2-.1-.3-.3-.3-.6-.2z" fill="#8b8384"/><path d="m80.8-19.9c.1.1 0 .2.2.4.1-.1.2-.2.4-.3-.2-.2-.4-.3-.6-.1z" fill="#8b8384"/><path d="m68.9-42.9c.1.2.2.5.4.7.1-.1.3-.2.4-.3-.3-.3-.4-.3-.8-.4z" fill="#8b8384"/><path d="m72.1-34.6c-.2-.2-.5-.1-.7-.2 0 .1.1.6.4.5-.3-.4.2 0 .3-.3z" fill="#8b8384"/><path d="m69.5-39.3c.3-.2.4-.5.1-.7-.2.3-.3.1-.5.3-.1.2.2.1.4.4z" fill="#8b8384"/><path d="m77.8-26.5c-.3.2-.8.6-.8.9.4 0 .6.3 1.2 0-.3-.3 0-.6-.4-.9z" fill="#8b8384"/><path d="m76.4-22.9c.1.3.3.2.3.5.7-.1.9-.2 1.5-.8-.2-.2 0-.4-.2-.6-.9.2-1 .2-1.6.9z" fill="#8b8384"/><path d="m72.5-45.8c-.1-.2-.3-.4-.5-.4-.2.1-.3.3-.4.4.3.3.3.2.5.3 0-.1.2-.2.4-.3z" fill="#8b8384"/><path d="m88.3-94.6c.3-.2.2-.4 0-.6-.3.3-.3.5 0 .6z" fill="#8b8384"/><path d="m88.2-59.1c.1.1.2.2.2.3.4-.2.1-.7-.2-.3z" fill="#8b8384"/><path d="m89.5-69.6c.4-.1.5-.3.2-.6-.2 0-.3.1-.5.3.1.1.2.2.3.3z" fill="#8b8384"/><path d="m87.5-87.2c.1.3.1.7.6.6.1-.4.1-1.1-.6-.6z" fill="#8b8384"/><path d="m88.6-73.3c.4-.2.2.4.7.1 0-.2-.1-.4-.3-.5-.3.2-.5 0-.4.4z" fill="#8b8384"/><path d="m86.5-90.9c-.4-.3-.1-.5-.2-.7-.1.1-.2.1-.3.2 0 0-.1.1 0 .1.3.1-.3.8-.4 1.1.4.2.8.3.9.8.2-.6 1.6-1.2.4-1.8 0 .1-.3.5-.4.3z" fill="#8b8384"/><path d="m85-98.1c.1.2.3.4.4.6.2-.3.2-.5.1-.8-.2.2-.3 0-.5.2z" fill="#8b8384"/><path d="m84.6-54.5c.3.3.6.8 1 .5-.4-.1-.6-.8-1-.5z" fill="#8b8384"/><path d="m72.3-60.5c.3.2.1.8.5.5.1-.2-.3-.9-.5-.5z" fill="#8b8384"/><path d="m85.8-94.9c-.1 0-.5.1-.4.3.1-.1.2.1.3.2.3-.4.3-.1.7-.4-.2-.3-.1-.6-.3-.9-.5 0-.8.7-.3.8z" fill="#8b8384"/><path d="m85.8-51.5c.2 0 .1-.5.4-.3.2.4.9 1.1 1.1 1.9.1 0 .1-.1.2-.1 0 0 .1.1.2 0 .1-.3-.3-.3-.5-.6.5-1.5-1.8-1.2-1.9-1.9.1.1.4.1.6.3.1-.1-.4-.6-.5-.8.1.6-.8 0-.8.7.2.6 1.1.2 1.2.8z" fill="#8b8384"/><path d="m86.7-95.3c0 .4.6.6 1 .2-.3-.3-.7-.3-1-.2z" fill="#8b8384"/><path d="m70.6-59.1c0-.1-.1-.2 0-.2-.2-.3-.5 0-.7-.1.1.3.3.7.7.3z" fill="#8b8384"/><path d="m69-43.2c.2-.3 0-.5.6-.7-.2-.4-.8-.3-.8-.1.3 0-.1.6.2.8z" fill="#8b8384"/><path d="m69.2-44.4c.9 0 0-1.2-.4-1.1.4.4.4.7.4 1.1z" fill="#8b8384"/><path d="m70.8-81.7c.2.2.3.4.5.3-.3-.6.5-.3.7-.8-.2-.3-.5 0-.7-.1.1.2-.5.4-.5.6z" fill="#8b8384"/><path d="m69.1-49.2c.3-.1.7-.8.5-1.2-.5-.1-.8.2-1 .7.3.2.6 0 .5.5z" fill="#8b8384"/><path d="m72.1-57.8c-.2-.3-.1-.6-.5-.3 0 .2.3.5.5.3z" fill="#8b8384"/><path d="m72.2-54.8c0 .2.1.3-.2.5.2.2.3.5.5.3-.3-.2 0-.3 0-.5 0 0-.1-.4-.3-.3z" fill="#8b8384"/><path d="m68.6-55.9c.4-.2-.1-.8-.4-.5 0 .3.2.3.4.5z" fill="#8b8384"/><path d="m72.1-46.9c-.1-.2-.7-.1-.7 0 .3-.1.5.4.7 0z" fill="#8b8384"/><path d="m71.2-60.1c-.1-.1-.2 0-.3 0 0 .3 0 1 .5.9-.4-.4 0-.6-.2-.9z" fill="#8b8384"/><path d="m71.4-45.3c.1.2-.1.4-.3.6.3.4.6.2 1 .2-.1-.4-.5-.2-.2-.7-.2 0-.3-.3-.5-.1z" fill="#8b8384"/><path d="m70-47.3c0-.1.1-.7-.3-.4.2.1 0 .5.3.4z" fill="#8b8384"/><path d="m68-67c.4 0 1-.2.7-.7-.3 0-.3.3-.5.3-.1-.4-.5-.6-.9-.8.1.4.6.8.7 1.2z" fill="#8b8384"/><path d="m67.3-70.6c0 .7.8-.1 1.1.4.3-.3.1-.6.4-.9-.3-.2-.6-.5-.9-.3.4.3-.2.7-.6.8z" fill="#8b8384"/><path d="m67.2-58.6c.1.2.3.2.5 0-.1-.4-.3-.2-.5 0z" fill="#8b8384"/><path d="m68.3-62c-.7.2-.7-.7-1.3-.6.1.6.6.6 1 .9.1-.3.5-.1.3-.3z" fill="#8b8384"/><path d="m69.9-70.5c.1.2 0 .3.3.5.3-.1-.2-.6-.3-.5z" fill="#8b8384"/><path d="m69.3-69.5c.3.2.5.7 1 .8 0-.5-.9-1.2-1-.8z" fill="#8b8384"/><path d="m68.9-68.4c-.2.1-.3-.3-.5-.1 0 .1 0 .3-.1.2-.1-.3-.2-.4-.6-.2 0 .6.7.2.6.8.2-.3.4-.1.6-.2-.4-.2.1-.3 0-.5z" fill="#8b8384"/><path d="m68.6-57.3c.1.1.1.8.4.5.1-.1-.2-.6-.4-.5z" fill="#8b8384"/><path d="m68.9-53.7c.3.3.6.4 1.1-.1 0-.3-.1-.4-.2-.6-.3 0-.2.3-.4-.1-.4.3-.4.6-.5.8z" fill="#8b8384"/><path d="m69.7-56.6c.1.2 0 .3.1.5.2-.2.3-.7-.1-.5z" fill="#8b8384"/><path d="m75.8-44.5c0-.2-.2-.5-.4-.3 0 .1.2.4.4.3z" fill="#8b8384"/></pattern><pattern id="u" height="80.3" overflow="visible" patternUnits="userSpaceOnUse" viewBox="0 -80.3 80.3 80.3" width="80.3" x="-463" y="-18"><path d="m0-80.3h80.3v80.3h-80.3z" fill="none"/><path d="m0-80.3h80.3v80.3h-80.3z" fill="url(#v)"/><path d="m9.4-80.3h.8v80.3h-.8z" fill="#215e8e"/><path d="m25.6-80.3h.8v80.3h-.8z" fill="#215e8e"/><path d="m41.8-80.3h.8v80.3h-.8z" fill="#215e8e"/><path d="m58-80.3h.8v80.3h-.8z" fill="#215e8e"/><path d="m74.1-80.3h.8v80.3h-.8z" fill="#215e8e"/><path d="m0-74.4h80.3v.8h-80.3z" fill="#215e8e"/><path d="m0-61.1h80.3v.8h-80.3z" fill="#215e8e"/><path d="m0-47.7h80.3v.8h-80.3z" fill="#215e8e"/><path d="m0-34.4h80.3v.8h-80.3z" fill="#215e8e"/><path d="m0-21.1h80.3v.8h-80.3z" fill="#215e8e"/><path d="m0-7.7h80.3v.8h-80.3z" fill="#215e8e"/><path d="m8.7-75.1h2.3v2.3h-2.3z" fill="#6eb2c3" transform="matrix(.7069 -.7073 .7073 .7069 55.2077 -14.7493)"/><path d="m24.8-75.1h2.3v2.3h-2.3z" fill="#6eb2c3" transform="matrix(.7069 -.7073 .7073 .7069 59.9501 -3.3047)"/><path d="m41-75.1h2.3v2.3h-2.3z" fill="#6eb2c3" transform="matrix(.7069 -.7073 .7073 .7069 64.6925 8.14)"/><path d="m57.2-75.1h2.3v2.3h-2.3z" fill="#6eb2c3" transform="matrix(.7069 -.7073 .7073 .7069 69.4349 19.5846)"/><path d="m73.4-75.1h2.3v2.3h-2.3z" fill="#6eb2c3" transform="matrix(.7069 -.7073 .7073 .7069 74.1773 31.0293)"/><path d="m8.7-61.8h2.3v2.3h-2.3z" fill="#6eb2c3" transform="matrix(.7071 -.7071 .7071 .7071 45.7621 -10.831)"/><path d="m24.8-61.8h2.3v2.3h-2.3z" fill="#6eb2c3" transform="matrix(.7071 -.7071 .7071 .7071 50.5014 .6104)"/><path d="m41-61.8h2.3v2.3h-2.3z" fill="#6eb2c3" transform="matrix(.7071 -.7071 .7071 .7071 55.2406 12.0519)"/><path d="m57.2-61.8h2.3v2.3h-2.3z" fill="#6eb2c3" transform="matrix(.7071 -.7071 .7071 .7071 59.9798 23.4933)"/><path d="m73.4-61.8h2.3v2.3h-2.3z" fill="#6eb2c3" transform="matrix(.7071 -.7071 .7071 .7071 64.719 34.9348)"/><path d="m8.7-48.5h2.3v2.3h-2.3z" fill="#6eb2c3" transform="matrix(.7071 -.7071 .7071 .7071 36.333 -6.9254)"/><path d="m24.8-48.5h2.3v2.3h-2.3z" fill="#6eb2c3" transform="matrix(.7071 -.7071 .7071 .7071 41.0723 4.5161)"/><path d="m41-48.5h2.3v2.3h-2.3z" fill="#6eb2c3" transform="matrix(.7071 -.7071 .7071 .7071 45.8115 15.9576)"/><path d="m57.2-48.5h2.3v2.3h-2.3z" fill="#6eb2c3" transform="matrix(.7071 -.7071 .7071 .7071 50.5507 27.399)"/><path d="m73.4-48.5h2.3v2.3h-2.3z" fill="#6eb2c3" transform="matrix(.7071 -.7071 .7071 .7071 55.2899 38.8405)"/><path d="m8.7-35.1h2.3v2.3h-2.3z" fill="#6eb2c3" transform="matrix(.7069 -.7073 .7073 .7069 26.9139 -3.0251)"/><path d="m24.8-35.1h2.3v2.3h-2.3z" fill="#6eb2c3" transform="matrix(.7069 -.7073 .7073 .7069 31.6567 8.4199)"/><path d="m41-35.1h2.3v2.3h-2.3z" fill="#6eb2c3" transform="matrix(.7069 -.7073 .7073 .7069 36.3994 19.8649)"/><path d="m57.2-35.1h2.3v2.3h-2.3z" fill="#6eb2c3" transform="matrix(.7069 -.7073 .7073 .7069 41.1422 31.3098)"/><path d="m73.4-35.1h2.3v2.3h-2.3z" fill="#6eb2c3" transform="matrix(.7069 -.7073 .7073 .7069 45.8849 42.7549)"/><path d="m8.7-21.8h2.3v2.3h-2.3z" fill="#6eb2c3" transform="matrix(.7069 -.7073 .7073 .7069 17.4816 .8835)"/><path d="m24.8-21.8h2.3v2.3h-2.3z" fill="#6eb2c3" transform="matrix(.7069 -.7073 .7073 .7069 22.224 12.3282)"/><path d="m41-21.8h2.3v2.3h-2.3z" fill="#6eb2c3" transform="matrix(.7069 -.7073 .7073 .7069 26.9664 23.7728)"/><path d="m57.2-21.8h2.3v2.3h-2.3z" fill="#6eb2c3" transform="matrix(.7069 -.7073 .7073 .7069 31.7088 35.2174)"/><path d="m73.4-21.8h2.3v2.3h-2.3z" fill="#6eb2c3" transform="matrix(.7069 -.7073 .7073 .7069 36.4512 46.6621)"/><path d="m8.7-8.5h2.3v2.3h-2.3z" fill="#6eb2c3" transform="matrix(.7071 -.7071 .7071 .7071 8.0465 4.7913)"/><path d="m24.8-8.5h2.3v2.3h-2.3z" fill="#6eb2c3" transform="matrix(.7071 -.7071 .7071 .7071 12.7857 16.2328)"/><path d="m41-8.5h2.3v2.3h-2.3z" fill="#6eb2c3" transform="matrix(.7071 -.7071 .7071 .7071 17.525 27.6742)"/><path d="m57.2-8.5h2.3v2.3h-2.3z" fill="#6eb2c3" transform="matrix(.7071 -.7071 .7071 .7071 22.2642 39.1157)"/><path d="m73.4-8.5h2.3v2.3h-2.3z" fill="#6eb2c3" transform="matrix(.7071 -.7071 .7071 .7071 27.0034 50.5571)"/></pattern><linearGradient id="v" gradientTransform="matrix(1 0 0 -1 -9911.2178 -8405.9512)" gradientUnits="userSpaceOnUse" x1="9951.3467" x2="9951.3467" y1="-8326.6641" y2="-8405.6328"><stop offset="0" stop-color="#183353"/><stop offset=".5132" stop-color="#214986"/><stop offset="1" stop-color="#183353"/></linearGradient><pattern id="w" patternTransform="matrix(.162 .093554 -.162 .093554 -7112.6729 -4205.2212)" xlink:href="#t"/><pattern id="x" patternTransform="matrix(.9372 0 0 .9372 85.6065 684.8859)" xlink:href="#t"/><pattern id="y" patternTransform="matrix(.2204 .1273 0 .2545 -5492.668 -2724.4116)" xlink:href="#t"/><pattern id="z" patternTransform="matrix(.162 .093554 -.162 .093554 -7112.6729 -4205.2212)" xlink:href="#t"/><pattern id="A" patternTransform="matrix(.2204 .1273 0 .2545 -5492.668 -2724.4116)" xlink:href="#t"/><pattern id="B" patternTransform="matrix(.2204 .1273 0 .2545 -5492.668 -2724.4116)" xlink:href="#t"/><pattern id="C" patternTransform="matrix(-.3018 .177 .2263 .1914 -8281.2734 -2831.3967)" xlink:href="#u"/><radialGradient id="D" cx="266.2594" cy="237.2213" gradientUnits="userSpaceOnUse" r="2.8678"><stop offset=".172" stop-color="#fcfcfc"/><stop offset=".4839" stop-color="#ccc"/></radialGradient><linearGradient id="E" gradientUnits="userSpaceOnUse" x1="241.267" x2="242.5984" xlink:href="#i" y1="245.53799" y2="248.4209"/><g transform="translate(-62.435061 -220.99392)"><path d="m80.3 272.2 20.8 12 1.1-.6-20.9-12z" fill="url(#w)"/><path d="m102.2 284.7v-1.1l-1.1.6v1.2z" fill="#9e9e8e"/><path d="m102.8 284.9-1.3.7v-9.8l1.3-.7z" fill="url(#x)"/><path d="m100.3 284.9 1.2.7v-9.8l-1.2-.7z" fill="url(#y)"/><path d="m100.3 282.5v1.3l-20.1-11.6 1.1-.6z" fill="#b3b3b3"/><path d="m82.7 273.3-1.2.7v-8.9l1.2-.7z" fill="url(#z)"/><path d="m102.8 284.9-1.3.7v-9.8l1.3-.7z" fill="#b3b3b3"/><path d="m82.7 273.3-1.2.7v-8.9l1.2-.7z" fill="#b3b3b3"/><path d="m80.2 273.3 1.3.7v-8.9l-1.3-.7z" fill="url(#A)"/><path d="m80.3 273.4 20.8 12v-1.2l-20.8-12z" fill="url(#B)"/><path d="m75.4 261.8 39.3-22.6 28.2 23.3-39.3 22.7z" fill="#959596"/><path d="m142 262.5-27.3-22.9-38.4 22.2 27.3 22.9z" fill="#c0c1c2"/><path d="m78.3 261.9 36.2-20.9 25.8 21.3-36.7 21.2z" fill="url(#C)"/></g><g transform="translate(-216.5722 -92.633837)"><path d="m264 297.7c1.5.8 1.5 2.2 0 3.1-1.5.8-3.8.8-5.3 0s-1.5-2.2 0-3.1c1.4-.9 3.8-.9 5.3 0z" fill="url(#b)"/><path d="m260.3 299.7-2.8-.6v-2.5l2.6.1 4.1-.2.8.3v2.5l-3.4.5z" fill="url(#c)"/><path d="m264 295.1c1.5.8 1.5 2.2 0 3.1-1.5.8-3.8.8-5.3 0s-1.5-2.2 0-3.1c1.4-.8 3.8-.8 5.3 0z" fill="url(#d)"/><path d="m263.3 294.8c1.1.6 1.1 1.7 0 2.4-1.1.6-3 .6-4.1 0-1.1-.7-1.1-1.7 0-2.4 1.2-.7 3-.7 4.1 0z" fill="url(#e)"/><path d="m260.5 296.4-2.1-.5v-15.3h2l3.2-.1.6.2v15.4l-2.6.3z" fill="url(#f)"/><path d="m263.3 279.4c1.1.7 1.1 1.7 0 2.4-1.1.6-3 .6-4.1 0-1.1-.7-1.1-1.7 0-2.4 1.2-.6 3-.6 4.1 0z" fill="url(#g)"/><path d="m263.3 235.3.2 44.9s.4 1.6-2.2 1.6c-2.1 0-2-1.4-2-1.4v-45.1l2 1.6z" fill="url(#h)"/><path d="m264.6 237.7.6.7.9-1.1 19 24.7-1.4-.3-17-19-2-4.1z" fill="url(#j)"/><path d="m258.5 229.7 7.1 4.1-4.7 2.7-7.2-4.1z" fill="#ebebeb"/><path d="m260.9 236.5v5.3l-7.2-4.1v-5.3z" fill="#a1a1a1"/><path d="m260.9 236.5 4.7-2.7v5.3l-4.7 2.7z" fill="#d1d1d1"/><path d="m265.8 238.5-.7-1 .8-5.3 16.5-33.7-.2 2.2z" fill="url(#k)"/><path d="m264.9 236.6c0 .8-.6 1.8-1.3 2.2s-1.3.1-1.3-.7.6-1.8 1.3-2.2 1.3-.1 1.3.7z" fill="url(#m)"/><path d="m265.1 240 1.3-1.1.3-2-2.3-1.1-1.6 3.2z" fill="url(#n)"/><path d="m264.9 236s-2 .4-1.8 3.2l2.1.9s-.1-1.9 1.7-2.8v-.3z" fill="url(#o)"/><path d="m267.2 237.7c0 .8-.6 1.8-1.3 2.2s-1.3.1-1.3-.7.6-1.8 1.3-2.2 1.3-.1 1.3.7z" fill="url(#r)"/><path d="m263.6 239.1-41.7 18.9-1.3-.4 34.3-17.8 8.4-2.4c.8-.2.8 1.4.3 1.7z" fill="url(#s)"/></g><g transform="translate(-139.16956 -855.42887)"><g transform="translate(162.96042 631.01088)"><g><path d="m264 297.7c1.5.8 1.5 2.2 0 3.1-1.5.8-3.8.8-5.3 0s-1.5-2.2 0-3.1c1.4-.9 3.8-.9 5.3 0z" fill="url(#b)"/><path d="m265 299.3-3.4.5-1.3-.1-2.8-.6v-2.5l2.6.1 4.1-.2.8.3z" fill="url(#c)"/><path d="m264 295.1c1.5.8 1.5 2.2 0 3.1-1.5.8-3.8.8-5.3 0s-1.5-2.2 0-3.1c1.4-.8 3.8-.8 5.3 0z" fill="url(#d)"/></g><g><path d="m263.3 294.8c1.1.6 1.1 1.7 0 2.4-1.1.6-3 .6-4.1 0-1.1-.7-1.1-1.7 0-2.4 1.2-.7 3-.7 4.1 0z" fill="url(#e)"/><path d="m264.2 296.1-2.6.3h-1.1l-2.1-.5v-15.3h2l3.2-.1.6.2z" fill="url(#f)"/><path d="m263.3 279.4c1.1.7 1.1 1.7 0 2.4-1.1.6-3 .6-4.1 0-1.1-.7-1.1-1.7 0-2.4 1.2-.6 3-.6 4.1 0z" fill="url(#g)"/></g><path d="m263.3 235.3.2 44.9s.4 1.6-2.2 1.6c-2.1 0-2-1.4-2-1.4v-45.1l2 1.6z" fill="url(#h)"/><g><path d="m260.9 236.5-7.2-4.1 4.8-2.7 7.1 4.1z" fill="#ebebeb"/><path d="m253.7 237.7v-5.3l7.2 4.1v5.3z" fill="#a1a1a1"/><path d="m265.6 239.1-4.7 2.7v-5.3l4.7-2.7z" fill="#d1d1d1"/></g><g><path d="m264.9 236.6c0 .8-.6 1.8-1.3 2.2s-1.3.1-1.3-.7.6-1.8 1.3-2.2 1.3-.1 1.3.7z" fill="url(#m)"/><path d="m262.8 239 2.3 1 1.3-1.1.3-2-2.3-1.1z" fill="url(#n)"/><path d="m264.9 236s-2 .4-1.8 3.2l2.1.9s-.1-1.9 1.7-2.8v-.3z" fill="url(#o)"/></g></g><path d="m430.16042 868.71088c0 .8-.6 1.8-1.3 2.2s-1.3.1-1.3-.7.6-1.8 1.3-2.2 1.3-.1 1.3.7z" fill="url(#p)"/></g><g transform="translate(-259.57346 -821.60146)"><path d="m264.6 237.7.6.7.9-1.1 19 24.7-1.4-.3-17-19-2-4.1z" fill="url(#j)" transform="translate(162.96042 631.01088)"/><path d="m282.2 200.7-16.4 37.8-.7-1 .8-5.3 16.5-33.7z" fill="url(#k)" transform="translate(162.96042 631.01088)"/><path d="m426.56042 870.11088-41.7 18.9-1.3-.4 34.3-17.8 8.4-2.4c.8-.2.8 1.4.3 1.7z" fill="url(#q)"/></g><g transform="matrix(1 .26794919 .26794919 1 -466.51598 -842.06719)"><path d="m266.1 237.3 19 24.7-1.4-.3-17-19-2-4.1-.1-.9.6.7z" fill="url(#j)" transform="translate(162.96042 631.01088)"/><path d="m282.4 198.5-.2 2.2-16.4 37.8-.7-1 .8-5.3z" fill="url(#k)" transform="translate(162.96042 631.01088)"/><path d="m426.56042 870.11088-41.7 18.9-1.3-.4 34.3-17.8 8.4-2.4c.8-.2.8 1.4.3 1.7z" fill="url(#q)"/></g></svg>