<svg enable-background="new 0 0 623 320" viewBox="0 0 623 320" xmlns="http://www.w3.org/2000/svg" xmlns:xlink="http://www.w3.org/1999/xlink">
<view id="left-house" viewBox="70 80 230 170" />
<pattern id="a" height="27.4" overflow="visible" patternUnits="userSpaceOnUse" viewBox="0 -27.4 27.4 27.4" width="27.4"><path d="m0-27.4h27.4v27.4h-27.4z" fill="none"/><path d="m0-27.4h27.4v27.4h-27.4z" fill="#bea289"/><path d="m0-22.9h27.4v.8h-27.4z" fill="#d5af92"/><path d="m0-22.5h27.4v.8h-27.4z" fill="#98826e"/><path d="m0-17.6h27.4v.8h-27.4z" fill="#d5af92"/><path d="m0-17.2h27.4v.8h-27.4z" fill="#98826e"/><path d="m0-11.9h27.4v.8h-27.4z" fill="#d5af92"/><path d="m0-11.5h27.4v.8h-27.4z" fill="#98826e"/><path d="m0-6.2h27.4v.8h-27.4z" fill="#d5af92"/><path d="m0-5.8h27.4v.8h-27.4z" fill="#98826e"/><path d="m0-1.2h27.4v.8h-27.4z" fill="#d5af92"/><path d="m0-.8h27.4v.8h-27.4z" fill="#98826e"/></pattern><pattern id="b" height="118.9" overflow="visible" patternUnits="userSpaceOnUse" viewBox="0 -118.9 118.7 118.9" width="118.7"><path d="m0-118.9h118.7v118.9h-118.7z" fill="none"/><path d="m0-118.9h118.7v118.7h-118.7z" fill="#a34f38"/><path d="m0-118.9h8.7v118.7h-8.7z" fill="#c35e43"/><path d="m15-118.9h17.4v118.7h-17.4z" fill="#c35e43"/><path d="m38.8-118.9h17.4v118.7h-17.4z" fill="#c35e43"/><path d="m62.5-118.9h17.4v118.7h-17.4z" fill="#c35e43"/><path d="m86.3-118.9h17.4v118.7h-17.4z" fill="#c35e43"/><path d="m109.3-118.9h9.4v118.7h-9.4z" fill="#c35e43"/><path d="m109.1-101.7h-5.5l-.5-.7c-.1-.1-2.2-3-8.3-3s-8.2 2.9-8.3 3l-.5.7h-.8-5.4l-.5-.7c-.1-.1-2.2-3-8.3-3s-8.3 3-8.3 3l-.5.7h-6.2l-.5-.7c-.1-.1-2.2-3-8.3-3s-8.2 2.9-8.3 3l-.5.7h-.8-5.4l-.5-.7c-.1-.1-2.2-3-8.3-3s-8.2 2.9-8.3 3l-.5.7h-.8-5.1l-.5-.7c-.1-.1-2.2-3-8.3-3v-2c6 0 9.1 2.4 10.3 3.7h3.2c1.2-1.2 4.3-3.7 10.3-3.7s9.1 2.4 10.3 3.7h3.2c1.2-1.2 4.3-3.7 10.3-3.7s9.1 2.4 10.3 3.7h3.2c1.2-1.2 4.3-3.7 10.3-3.7s9.1 2.4 10.3 3.7h3.2c1.2-1.2 4.3-3.7 10.3-3.7s9.1 2.4 10.3 3.7h3.2c1.2-1.2 4.3-3.7 10.3-3.7v2c-6.1 0-8.2 2.9-8.3 3l-.5.7z" fill="#673223"/><path d="m109.1-84.8h-5.5l-.5-.7c-.1-.1-2.2-3-8.3-3s-8.2 2.9-8.3 3l-.5.7h-.8-5.4l-.5-.7c-.1-.1-2.2-3-8.3-3s-8.3 3-8.3 3l-.5.7h-6.2l-.5-.7c-.1-.1-2.2-3-8.3-3s-8.2 2.9-8.3 3l-.5.7h-.8-5.4l-.2-.7c-.1-.1-2.2-3-8.3-3s-8.2 2.9-8.3 3l-.4.7h-.8-5.5l-.5-.7c-.1-.1-2.2-3-8.3-3v-2c6 0 9.1 2.4 10.3 3.7h3.2c1.2-1.2 4.3-3.7 10.3-3.7s9.1 2.4 10.3 3.7h3.2c1.2-1.2 4.3-3.7 10.3-3.7s9.1 2.4 10.3 3.7h3.2c1.2-1.2 4.3-3.7 10.3-3.7s9.1 2.4 10.3 3.7h3.2c1.2-1.2 4.3-3.7 10.3-3.7s9.1 2.4 10.3 3.7h3.2c1.2-1.2 4.3-3.7 10.3-3.7v2c-6.1 0-8.2 2.9-8.3 3l-.5.7z" fill="#673223"/><path d="m109.1-67.8h-5.5l-.5-.7c-.1-.1-2.2-3-8.3-3s-8.2 2.9-8.3 3l-.5.7h-.8-5.4l-.5-.7c-.1-.1-2.2-3-8.3-3s-8.3 3-8.3 3l-.5.7h-6.2l-.5-.7c-.1-.1-2.2-3-8.3-3s-8.2 2.9-8.3 3l-.5.7h-.8-5.4l-.2-.7c-.1-.1-2.2-3-8.3-3s-8.2 2.9-8.3 3l-.4.7h-.8-5.5l-.5-.7c-.1-.1-2.2-3-8.3-3v-2c6 0 9.1 2.4 10.3 3.7h3.2c1.2-1.2 4.3-3.7 10.3-3.7s9.1 2.4 10.3 3.7h3.2c1.2-1.2 4.3-3.7 10.3-3.7s9.1 2.4 10.3 3.7h3.2c1.2-1.2 4.3-3.7 10.3-3.7s9.1 2.4 10.3 3.7h3.2c1.2-1.2 4.3-3.7 10.3-3.7s9.1 2.4 10.3 3.7h3.2c1.2-1.2 4.3-3.7 10.3-3.7v2c-6.1 0-8.2 2.9-8.3 3l-.5.7z" fill="#673223"/><path d="m109.1-50.9h-5.5l-.5-.7c-.1-.1-2.2-3-8.3-3s-8.2 2.9-8.3 3l-.5.7h-.8-5.4l-.5-.7c-.1-.1-2.2-3-8.3-3s-8.3 3-8.3 3l-.5.7h-6.2l-.5-.7c-.1-.1-2.2-3-8.3-3s-8.2 2.9-8.3 3l-.5.7h-.8-5.4l-.2-.7c-.1-.1-2.2-3-8.3-3s-8.2 2.9-8.3 3l-.4.7h-.8-5.5l-.5-.7c-.1-.1-2.2-3-8.3-3v-2c6 0 9.1 2.4 10.3 3.7h3.2c1.2-1.2 4.3-3.7 10.3-3.7s9.1 2.4 10.3 3.7h3.2c1.2-1.2 4.3-3.7 10.3-3.7s9.1 2.4 10.3 3.7h3.2c1.2-1.2 4.3-3.7 10.3-3.7s9.1 2.4 10.3 3.7h3.2c1.2-1.2 4.3-3.7 10.3-3.7s9.1 2.4 10.3 3.7h3.2c1.2-1.2 4.3-3.7 10.3-3.7v2c-6.1 0-8.2 2.9-8.3 3l-.5.7z" fill="#673223"/><path d="m109.1-33.9h-5.5l-.5-.7c-.1-.1-2.2-3-8.3-3s-8.2 2.9-8.3 3l-.5.7h-.8-5.4l-.5-.7c-.1-.1-2.2-3-8.3-3s-8.3 3-8.3 3l-.5.7h-6.2l-.5-.7c-.1-.1-2.2-3-8.3-3s-8.2 2.9-8.3 3l-.5.7h-.8-5.4l-.2-.7c-.1-.1-2.2-3-8.3-3s-8.2 2.9-8.3 3l-.4.7h-.8-5.5l-.5-.7c-.1-.1-2.2-3-8.3-3v-2c6 0 9.1 2.4 10.3 3.7h3.2c1.2-1.2 4.3-3.7 10.3-3.7s9.1 2.4 10.3 3.7h3.2c1.2-1.2 4.3-3.7 10.3-3.7s9.1 2.4 10.3 3.7h3.2c1.2-1.2 4.3-3.7 10.3-3.7s9.1 2.4 10.3 3.7h3.2c1.2-1.2 4.3-3.7 10.3-3.7s9.1 2.4 10.3 3.7h3.2c1.2-1.2 4.3-3.7 10.3-3.7v2c-6.1 0-8.2 2.9-8.3 3l-.5.7z" fill="#673223"/><path d="m109.1-17h-5.5l-.5-.7c-.1-.1-2.2-3-8.3-3s-8.2 2.9-8.3 3l-.3.7h-.8-5.4l-.5-.7c-.1-.1-2.2-3-8.3-3s-8.3 3-8.3 3l-.4.7h-6.2l-.5-.7c-.1-.1-2.2-3-8.3-3s-8.2 2.9-8.3 3l-.4.7h-.8-5.4l-.6-.6c-.1-.1-2.2-3-8.3-3s-8.2 2.9-8.3 3l-.4.6h-.8-5.5l-.5-.7c-.1-.1-2.2-3-8.3-3v-2c6 0 9.1 2.4 10.3 3.7h3.2c1.2-1.2 4.3-3.7 10.3-3.7s9.1 2.4 10.3 3.7h3.2c1.2-1.2 4.3-3.7 10.3-3.7s9.1 2.4 10.3 3.7h3.2c1.2-1.2 4.3-3.7 10.3-3.7s9.1 2.4 10.3 3.7h3.2c1.2-1.2 4.3-3.7 10.3-3.7s9.1 2.4 10.3 3.7h3.2c1.2-1.2 4.3-3.7 10.3-3.7v2c-6.1 0-8.2 2.9-8.3 3l-.5.7z" fill="#673223"/><path d="m109.1 0h-5.5l-.5-.7c-.1-.1-2.2-3-8.3-3s-8.2 2.9-8.3 3l-.3.7h-.8-5.4l-.5-.7c-.1-.1-2.2-3-8.3-3s-8.3 3-8.3 3l-.4.7h-6.2l-.5-.7c-.1-.1-2.2-3-8.3-3s-8.2 2.9-8.3 3l-.4.7h-.8-5.4l-.6-.7c-.1-.1-2.2-3-8.3-3s-8.2 2.9-8.3 3l-.4.7h-.8-5.5l-.4-.7c-.1-.1-2.2-3-8.3-3v-2c6 0 9.1 2.4 10.3 3.7h3.2c1.2-1.2 4.3-3.7 10.3-3.7s9.1 2.4 10.3 3.7h3.2c1.2-1.2 4.3-3.7 10.3-3.7s9.1 2.4 10.3 3.7h3.2c1.2-1.2 4.3-3.7 10.3-3.7s9.1 2.4 10.3 3.7h3.2c1.2-1.2 4.3-3.7 10.3-3.7s9.1 2.4 10.3 3.7h3.2c1.2-1.2 4.3-3.7 10.3-3.7v2c-6.1 0-8.2 2.9-8.3 3l-.8.7z" fill="#673223"/></pattern><pattern id="c" height="27.4" overflow="visible" patternUnits="userSpaceOnUse" viewBox="0 -27.4 27.4 27.4" width="27.4"><path d="m0-27.4h27.4v27.4h-27.4z" fill="none"/><path d="m0-27.4h27.4v27.4h-27.4z" fill="#7a6d60"/><path d="m6.8-27.4h1.2v27.4h-1.2z" fill="#8f7f70"/><path d="m20.6-27.4h1.2v27.4h-1.2z" fill="#8f7f70"/><path d="m0-20.6h27.4v1.2h-27.4z" fill="#8f7f70"/><path d="m0-6.8h27.4v1.2h-27.4z" fill="#8f7f70"/><path d="m6.4-27.4h.9v27.4h-.9z" fill="#60554c"/><path d="m20.2-27.4h.9v27.4h-.9z" fill="#60554c"/><path d="m0-21.1h27.4v.9h-27.4z" fill="#60554c"/><path d="m0-7.3h27.4v.9h-27.4z" fill="#60554c"/></pattern><pattern id="d" height="100" overflow="visible" patternUnits="userSpaceOnUse" viewBox="0 -100 100 100" width="100"><path d="m0-100h100v100h-100z" fill="none"/><path d="m0-100h100v100h-100z" fill="#8c8d8b"/><path d="m5-100h10v100h-10z" fill="#6e6b6c"/><path d="m24.9-100h10v100h-10z" fill="#626060"/><path d="m34.9-100h10v100h-10z" fill="#848182"/><path d="m54.8-100h10v100h-10z" fill="#6e6b6c"/><path d="m64.8-100h10v100h-10z" fill="#626060"/><path d="m84.7-100h10v100h-10z" fill="#848182"/></pattern><pattern id="e" height="118.7" overflow="visible" patternUnits="userSpaceOnUse" viewBox="0 -118.7 118.7 118.7" width="118.7"><path d="m0-118.7h118.7v118.7h-118.7z" fill="none"/><path d="m0-118.7h118.7v118.7h-118.7z" fill="#944833"/><path d="m0-118.7h8.7v118.7h-8.7z" fill="#c35e43"/><path d="m15-118.7h17.4v118.7h-17.4z" fill="#c35e43"/><path d="m38.8-118.7h17.4v118.7h-17.4z" fill="#c35e43"/><path d="m62.5-118.7h17.4v118.7h-17.4z" fill="#c35e43"/><path d="m86.3-118.7h17.4v118.7h-17.4z" fill="#c35e43"/><path d="m109.3-118.7h9.4v118.7h-9.4z" fill="#c35e43"/><path d="m109.1-100.4h-5.5l-.5-.7c-.1-.1-2.2-3-8.3-3s-8.2 2.9-8.3 3l-.5.7h-.8-5.5l-.5-.7c-.1-.1-2.2-3-8.3-3s-8.3 3-8.3 3l-.5.7h-6.2l-.5-.7c-.1-.1-2.2-3-8.3-3s-8.2 2.9-8.3 3l-.5.7h-.8-5.5l-.5-.7c-.1-.1-2.2-3-8.3-3s-8.2 2.9-8.3 3l-.5.7h-.8-4.9l-.5-.7c-.1-.1-2.2-3-8.3-3v-3.1c6 0 9.1 2.4 10.3 3.7h3.2c1.2-1.2 4.3-3.7 10.3-3.7s9.1 2.4 10.3 3.7h3.2c1.2-1.2 4.3-3.7 10.3-3.7s9.1 2.4 10.3 3.7h3.2c1.2-1.2 4.3-3.7 10.3-3.7s9.1 2.4 10.3 3.7h3.2c1.2-1.2 4.3-3.7 10.3-3.7s9.1 2.4 10.3 3.7h3.2c1.2-1.2 4.3-3.7 10.3-3.7v3.1c-6.1 0-8.2 2.9-8.3 3l-.5.7z" fill="#4e261b"/><path d="m109.1-83.7h-5.5l-.5-.7c-.1-.1-2.2-3-8.3-3s-8.2 2.9-8.3 3l-.5.7h-.8-5.5l-.5-.7c-.1-.1-2.2-3-8.3-3s-8.3 3-8.3 3l-.5.7h-6.2l-.5-.7c-.1-.1-2.2-3-8.3-3s-8.2 2.9-8.3 3l-.5.7h-.8-5.5v-.7c-.1-.1-2.2-3-8.3-3s-8.2 2.9-8.3 3l-.4.7h-.8-5.5l-.5-.7c-.1-.1-2.2-3-8.3-3v-3.1c6 0 9.1 2.4 10.3 3.7h3.2c1.2-1.2 4.3-3.7 10.3-3.7s9.1 2.4 10.3 3.7h3.2c1.2-1.2 4.3-3.7 10.3-3.7s9.1 2.4 10.3 3.7h3.2c1.2-1.2 4.3-3.7 10.3-3.7s9.1 2.4 10.3 3.7h3.2c1.2-1.2 4.3-3.7 10.3-3.7s9.1 2.4 10.3 3.7h3.2c1.2-1.2 4.3-3.7 10.3-3.7v3.1c-6.1 0-8.2 2.9-8.3 3l-.5.7z" fill="#4e261b"/><path d="m109.1-66.9h-5.5l-.5-.7c-.1-.1-2.2-3-8.3-3s-8.2 2.9-8.3 3l-.5.7h-.8-5.5l-.5-.7c-.1-.1-2.2-3-8.3-3s-8.3 3-8.3 3l-.5.7h-6.2l-.5-.7c-.1-.1-2.2-3-8.3-3s-8.2 2.9-8.3 3l-.5.7h-.8-5.5v-.7c-.1-.1-2.2-3-8.3-3s-8.2 2.9-8.3 3l-.4.7h-.8-5.5l-.5-.7c-.1-.1-2.2-3-8.3-3v-3.1c6 0 9.1 2.4 10.3 3.7h3.2c1.2-1.2 4.3-3.7 10.3-3.7s9.1 2.4 10.3 3.7h3.2c1.2-1.2 4.3-3.7 10.3-3.7s9.1 2.4 10.3 3.7h3.2c1.2-1.2 4.3-3.7 10.3-3.7s9.1 2.4 10.3 3.7h3.2c1.2-1.2 4.3-3.7 10.3-3.7s9.1 2.4 10.3 3.7h3.2c1.2-1.2 4.3-3.7 10.3-3.7v3.1c-6.1 0-8.2 2.9-8.3 3l-.5.7z" fill="#4e261b"/><path d="m109.1-50.2h-5.5l-.5-.7c-.1-.1-2.2-3-8.3-3s-8.2 2.9-8.3 3l-.5.7h-.8-5.5l-.5-.7c-.1-.1-2.2-3-8.3-3s-8.3 3-8.3 3l-.5.7h-6.2l-.5-.7c-.1-.1-2.2-3-8.3-3s-8.2 2.9-8.3 3l-.5.7h-.8-5.5v-.7c-.1-.1-2.2-3-8.3-3s-8.2 2.9-8.3 3l-.4.7h-.8-5.5l-.5-.7c-.1-.1-2.2-3-8.3-3v-3.1c6 0 9.1 2.4 10.3 3.7h3.2c1.2-1.2 4.3-3.7 10.3-3.7s9.1 2.4 10.3 3.7h3.2c1.2-1.2 4.3-3.7 10.3-3.7s9.1 2.4 10.3 3.7h3.2c1.2-1.2 4.3-3.7 10.3-3.7s9.1 2.4 10.3 3.7h3.2c1.2-1.2 4.3-3.7 10.3-3.7s9.1 2.4 10.3 3.7h3.2c1.2-1.2 4.3-3.7 10.3-3.7v3.1c-6.1 0-8.2 2.9-8.3 3l-.5.7z" fill="#4e261b"/><path d="m109.1-33.5h-5.5l-.5-.7c-.1-.1-2.2-3-8.3-3s-8.2 2.9-8.3 3l-.5.7h-.8-5.5l-.5-.7c-.1-.1-2.2-3-8.3-3s-8.3 3-8.3 3l-.5.7h-6.2l-.5-.7c-.1-.1-2.2-3-8.3-3s-8.2 2.9-8.3 3l-.5.7h-.8-5.5v-.7c-.1-.1-2.2-3-8.3-3s-8.2 2.9-8.3 3l-.4.7h-.8-5.5l-.5-.7c-.1-.1-2.2-3-8.3-3v-3.1c6 0 9.1 2.4 10.3 3.7h3.2c1.2-1.2 4.3-3.7 10.3-3.7s9.1 2.4 10.3 3.7h3.2c1.2-1.2 4.3-3.7 10.3-3.7s9.1 2.4 10.3 3.7h3.2c1.2-1.2 4.3-3.7 10.3-3.7s9.1 2.4 10.3 3.7h3.2c1.2-1.2 4.3-3.7 10.3-3.7s9.1 2.4 10.3 3.7h3.2c1.2-1.2 4.3-3.7 10.3-3.7v3.1c-6.1 0-8.2 2.9-8.3 3l-.5.7z" fill="#4e261b"/><path d="m109.1-16.7h-5.5l-.5-.7c-.1-.1-2.2-3-8.3-3s-8.2 2.9-8.3 3l-.5.7h-.8-5.5l-.5-.7c-.1-.1-2.2-3-8.3-3s-8.3 3-8.3 3l-.5.7h-6.2l-.5-.7c-.1-.1-2.2-3-8.3-3s-8.2 2.9-8.3 3l-.5.7h-.8-5.5v-.7c-.1-.1-2.2-3-8.3-3s-8.2 2.9-8.3 3l-.4.6h-.8-5.5l-.5-.7c-.1-.1-2.2-3-8.3-3v-3.1c6 0 9.1 2.4 10.3 3.7h3.2c1.2-1.2 4.3-3.7 10.3-3.7s9.1 2.4 10.3 3.7h3.2c1.2-1.2 4.3-3.7 10.3-3.7s9.1 2.4 10.3 3.7h3.2c1.2-1.2 4.3-3.7 10.3-3.7s9.1 2.4 10.3 3.7h3.2c1.2-1.2 4.3-3.7 10.3-3.7s9.1 2.4 10.3 3.7h3.2c1.2-1.2 4.3-3.7 10.3-3.7v3.1c-6.1 0-8.2 2.9-8.3 3l-.5.7z" fill="#4e261b"/><path d="m109.1 0h-5.5l-.5-.7c-.1-.1-2.2-3-8.3-3s-8.2 2.9-8.3 3l-.3.7h-.8-5.5l-.5-.7c-.1-.1-2.2-3-8.3-3s-8.3 3-8.3 3l-.3.7h-6.2l-.5-.7c-.1-.1-2.2-3-8.3-3s-8.2 2.9-8.3 3l-.4.7h-.8-5.5l-.5-.7c-.1-.1-2.2-3-8.3-3s-8.2 2.9-8.3 3l-.4.7h-.8-5.5l-.4-.7c-.1-.1-2.2-3-8.3-3v-3.1c6 0 9.1 2.4 10.3 3.7h3.2c1.2-1.2 4.3-3.7 10.3-3.7s9.1 2.4 10.3 3.7h3.2c1.2-1.2 4.3-3.7 10.3-3.7s9.1 2.4 10.3 3.7h3.2c1.2-1.2 4.3-3.7 10.3-3.7s9.1 2.4 10.3 3.7h3.2c1.2-1.2 4.3-3.7 10.3-3.7s9.1 2.4 10.3 3.7h3.2c1.2-1.2 4.3-3.7 10.3-3.7v3.1c-6.1 0-8.2 2.9-8.3 3l-.8.7z" fill="#4e261b"/></pattern><pattern id="f" patternTransform="matrix(-.6577 -.3797 0 .7594 -11932.3008 -4359.5591)" xlink:href="#a"/><pattern id="g" patternTransform="matrix(-.080214 -.046311 0 .092621 -6648.8135 -6692.8237)" xlink:href="#d"/><pattern id="h" patternTransform="matrix(-.080214 -.046311 0 .092621 -6674.5791 -6707.626)" xlink:href="#d"/><pattern id="i" patternTransform="matrix(.6577 -.3797 0 .7594 -2438.7107 -4426.5444)" xlink:href="#a"/><pattern id="j" patternTransform="matrix(.1914 -.1105 .1914 .1105 -4409.4858 -7291.5928)" xlink:href="#c"/><pattern id="k" patternTransform="matrix(.1497 -.086014 .086014 .1497 -5808.4565 -7069.2417)" xlink:href="#e"/><pattern id="l" patternTransform="matrix(.1624 -.093722 .1513 .097388 -5200.6982 -7395.4453)" xlink:href="#e"/><pattern id="m" patternTransform="matrix(-.6577 -.3797 0 .7594 -11927.4414 -4339.2485)" xlink:href="#a"/><pattern id="n" patternTransform="matrix(.1551 .089303 -.089303 .1551 -6972.5176 -5584.4565)" xlink:href="#e"/><pattern id="o" patternTransform="matrix(.6577 -.3797 0 .7594 -2438.7107 -4426.5444)" xlink:href="#a"/><pattern id="p" patternTransform="matrix(.070874 -.040919 0 .081837 -7757.6035 -6771.8389)" xlink:href="#d"/><pattern id="q" patternTransform="matrix(.6577 -.3797 0 .7594 -2579.072 -4336.1304)" xlink:href="#a"/><pattern id="r" patternTransform="matrix(.078841 -.045519 0 .091038 -5970.7183 -6722.0156)" xlink:href="#d"/><pattern id="s" patternTransform="matrix(.078841 -.045519 0 .091038 -5944.897 -6736.6592)" xlink:href="#d"/><pattern id="t" patternTransform="matrix(-.6577 -.3797 0 .7594 -12072.6621 -4415.085)" xlink:href="#a"/><pattern id="u" patternTransform="matrix(-.1914 -.1105 -.1914 .1105 -10018.4092 -7305.7065)" xlink:href="#c"/><pattern id="v" patternTransform="matrix(-.1497 -.086014 -.086014 .1497 -8981.832 -7048.6382)" xlink:href="#e"/><pattern id="w" patternTransform="matrix(-.1624 -.093722 -.1513 .097388 -9610.4766 -7397.5112)" xlink:href="#e"/><pattern id="x" patternTransform="matrix(.6577 -.3797 0 .7594 -2583.9304 -4315.8198)" xlink:href="#a"/><pattern id="y" patternTransform="matrix(.1756 -.1014 .1014 .1756 -5327.562 -6700.8076)" xlink:href="#b"/><pattern id="z" patternTransform="matrix(-.6577 -.3797 0 .7594 -12072.6621 -4415.085)" xlink:href="#a"/><pattern id="A" patternTransform="matrix(-.070874 -.040919 0 .081837 -6727.4424 -6785.2891)" xlink:href="#d"/><pattern id="B" patternTransform="matrix(-.1551 .089303 .089303 .1551 -7781.0371 -5669.3286)" xlink:href="#e"/><g transform="translate(-8.881356 2.642373)"><path d="m217.6 246.3c-4.1.4-34.4-5.2-36.2.7-2.5-1.1-58.5-14.5-60.7-16.4l1.9-2.3-36.3-18.7c-1 1.1-2.2.7-3.3 0 39.8-22 43.9-32.7 92.8-29.5 9.1 15.9 30.8 51.8 41.8 66.2z" fill="#d3d0d1"/><path d="m127.8 150.2c1.2-.5 2.3-1.2 2.1-2.6-.9.5-2.1 1.5-2.1 2.6z"/><path d="m189.1 237c3.5-57.5-4.8-60-31.3-107.5l-28.5 18.8v53.7c.1-.1 59.8 35 59.8 35z" fill="url(#f)"/><path d="m175.5 179.3-10.1-5.8v17.6l10.1 5.8z" fill="#dad7bd"/><path d="m175.8 196.7-.3.2c.3-.2-.6-17.9.3-17.8z" fill="#f0e9dd"/><path d="m174.2 194.2-7.5-4.4v-13.6l7.5 4.4z" fill="url(#g)"/><path d="m168.5 177.3v11.7c.3.4 6.5 3.1 5.7 4l-6.5-3.7v-12.5z" fill="#fefefe"/><path d="m173.5 186.2v.4c.3-.2.9-.3.7-.8z" fill="#fff"/><path d="m167.7 182.9c-.6.5 5.7 3.5 5.8 3.7.6-.5-5.7-3.5-5.8-3.7z" fill="#a9a792"/><path d="m167.7 182.9c.6.1 6 4.1 6.5 3-.6-.2-6-4.1-6.5-3z" fill="#f6f5f0"/><path d="m169.5 183.9.4.2c-.1-.3.4-6.5-.4-6.3z" fill="#fefefe"/><path d="m170.5 183.8-.7.4v-6.1c1.3-.2.6 5.2.7 5.7z" fill="#c6c7c7"/><path d="m171.7 185.2.4.2c-.1-.3.4-6.5-.4-6.3z" fill="#fefefe"/><path d="m172.8 185-.7.4v-6.1c1.2-.1.5 5.3.7 5.7z" fill="#c6c7c7"/><path d="m165.7 173.3 10 5.8c-.1.9-10.1-5.7-10.4-5.6z" fill="#e7e3d3"/><path d="m173.2 194.3v.4c.2-.2 1.9-.8 1.6-1.3z" fill="#b2b1ad"/><path d="m166.1 190.2c-.6.5 7 4.2 7.1 4.5.6-.5-7-4.2-7.1-4.5z" fill="#adaca8"/><path d="m166.1 190.2c1.3.4 7.4 5.5 8.6 3.2-1.3-.4-7.3-5.5-8.6-3.2z" fill="#edece7"/><path d="m166.7 189.9v-13.7l1 .6c-.3.7.8 13.6-1 13.1z" fill="#a9a792"/><path d="m166.7 176.2c.1 1.8 6.3 4.6 7.5 5.4 1.1-1.3-7.1-4.8-7.5-5.4z" fill="#ccc"/><path d="m174.2 192.9c-.2.5.4.8.8 1 .1-.6-.3-.8-.8-1z" fill="#dad7bd"/><path d="m167.7 183.3c-.1 1.9 5.3 4 6.5 4.7v-1.8c-.5 1.2-6-2.8-6.5-2.9z" fill="#ccc"/><path d="m166.1 190.6c-.2.8 8.2 5.1 8.6 5.5v-2.3c-1.2 2.4-7.2-2.8-8.6-3.2z" fill="#b3b3b3"/><path d="m149.7 164.5-10-5.8v17.6l10 5.8z" fill="#dad7bd"/><path d="m150 181.9-.3.2c.3-.2-.6-17.9.3-17.8z" fill="#f0e9dd"/><path d="m148.4 179.4-7.5-4.4v-13.6l7.5 4.4z" fill="url(#h)"/><path d="m142.7 162.5v11.8c.3.4 6.5 3.1 5.7 4l-6.5-3.7v-12.6z" fill="#fefefe"/><path d="m147.7 171.4v.4c.3-.2.9-.3.7-.8z" fill="#fff"/><path d="m141.9 168.1c-.6.5 5.7 3.5 5.8 3.7.6-.5-5.7-3.5-5.8-3.7z" fill="#a9a792"/><path d="m141.9 168.1c.6.1 6 4.1 6.5 3-.5-.2-6-4.1-6.5-3z" fill="#f6f5f0"/><path d="m143.7 169.1.4.2c-.1-.3.4-6.5-.4-6.3z" fill="#fefefe"/><path d="m144.8 168.9-.7.4v-6.1c1.2-.1.5 5.3.7 5.7z" fill="#c6c7c7"/><path d="m146 170.4.4.2c-.1-.3.4-6.5-.4-6.3z" fill="#fefefe"/><path d="m147 170.2-.7.4v-6.1c1.3-.1.5 5.3.7 5.7z" fill="#c6c7c7"/><path d="m140 158.5 10 5.8c-.1.9-10.1-5.7-10.4-5.6z" fill="#e7e3d3"/><path d="m147.4 179.5v.4c.2-.2 1.9-.8 1.6-1.3z" fill="#b2b1ad"/><path d="m140.4 175.4c-.6.5 7 4.2 7.1 4.5.6-.5-7.1-4.2-7.1-4.5z" fill="#adaca8"/><path d="m140.4 175.4c1.3.4 7.4 5.5 8.6 3.2-1.3-.4-7.4-5.5-8.6-3.2z" fill="#edece7"/><path d="m140.9 175.1v-13.7l1 .6c-.3.7.9 13.6-1 13.1z" fill="#a9a792"/><path d="m140.9 161.4c.1 1.8 6.3 4.6 7.5 5.4 1.2-1.3-7-4.8-7.5-5.4z" fill="#ccc"/><path d="m148.4 178.1c-.2.5.4.8.8 1 .2-.6-.3-.8-.8-1z" fill="#dad7bd"/><path d="m141.9 168.5c-.1 1.9 5.3 4 6.5 4.7v-1.8c-.4 1.2-5.9-2.8-6.5-2.9z" fill="#ccc"/><path d="m140.4 175.8c-.2.8 8.2 5.1 8.6 5.5v-2.3c-1.2 2.4-7.3-2.8-8.6-3.2z" fill="#b3b3b3"/><path d="m185 175c1.3 2.5-3.7 64.3 4.1 61.8-1-4.3 2.8-61-4.1-61.8z" fill="#d5bba0"/><path d="m129.4 148.8c1.3 2.7-3.7 58.5 4.1 56.4v-60.6c-.1 0-2.7 5.8-4.1 4.2z" fill="#d5bba0"/><path d="m156.2 137.2 32.8 53.7c4.6-1-30.7-59.4-31.1-61.3l-28.6 18.8v4.6z" fill="#d4d4d4" fill-opacity=".1"/><path d="m277.4 134.1v53.8l-88.3 50.7-.1-52.9z" fill="url(#i)"/><path d="m277.4 134.1-3.9 2.3v28.2l3.9-2.2z" fill="#d5bba0"/><path d="m189.3 180.3c-.1-.2-.2-.3-.3-.5v56.9l4.1-2.3c-.7-4.1 2.3-52.9-3.8-54.1z" fill="#d5bba0"/><path d="m189 189.8v-3.6l88.4-51.4c7 5-87.9 53-88.4 55z" fill="#bababa"/><path d="m189.1 234.3c-.1-1.9-63-32.8-59.7-36.4l-2.9 1.3 3.1 3.8 59.5 34.2z" fill="#65665c"/><path d="m189.1 237.3c.2-2.8 93-48.2 88.3-53.6-.2 2.7-93 48.2-88.3 53.6z" fill="#65665c"/><path d="m126.5 199.2c-5 4.5 62.2 37.3 62.6 39.4v-3.3" fill="#958676"/><path d="m189.19999 239.2c1.8-3.3-76.39999-37.2-59.79999-41.3v2-51.7l28.5-18.7c27.8 49.1 34.59999 50.7 31.29999 109.7z" fill="#999" fill-opacity=".3"/><path d="m189.1 238.6c.3-3 93.5-48 88.3-54-.3 3.1-93.5 48-88.3 54z" fill="#958676"/><path d="m217.6 240.9v5.4l-21.2-12.2c.5-3.5-2.2-1.4-1.7-4.8z" fill="#655c51"/><path d="m300.1 198.4-82.5 47.9c-8.1-5.9 81.7-50.9 82.5-53.3z" fill="#958676"/><path d="m275.6 208.8 3.8 2-32.9 19.1-3.8-2-25.2 14.6s-22.9-13.3-22.9-13.3l81.7-47.9 23.8 13.2z" fill="url(#j)"/><path d="m218.3 217v2.8l11.1 5-19.1 10.8-1.3.7c-.2.3 1-.2.8.1 1.9 1.3 6.8 5.7 9.3 4.7.4-.2 21.3-12 21.7-12.2 0 0 1.3-.7 1.3-.7zm.3 22.5c-.3-.1-6.1-2.9-6.2-2.9 5.4-4.2 5.9-2.9 11.4-.2zm6.3-3.7-6.3-3c4.1-3.3 6.1-.7 10 1zm4.8-2.6-6.3-3c4.1-3.4 5.7-.6 9.5 1.2zm4.1-2.4-6.3-3c4.2-3.2 6.2-.7 10.1 1z" fill="#ccc"/><path d="m274.8 184.8c-2.1 3.2 11.7 5.8 12.9 6.9-20.7 9.8-13.8 15.4-34.5 2.7 0 0-1.2 1.3-1.2 1.3.9.4 23.8 13.7 23.9 13 5-2.7 18.7-13 24.2-14.1zm.8 22.3-5.7-3.2c4.8-3.9 5.8-1.7 10.5.4zm5.9-3.5-6.3-3c4.1-3.3 6.1-.7 10 1zm4.7-2.6-6.3-3c4.1-3.4 5.7-.6 9.5 1.2zm4.1-2.4-6.3-3c5.5-3.9 7.5-1.9 13.1 0z" fill="#ccc"/><path d="m216.4 230.1c-1.5-1.2-17.3-5.5-15.6-9l-5.5-3.2v10.5c-1.2 1.4 22.4 13 22.4 13.7-.4-2.1 1.3-11.7-1.3-12zm-9.5-4c6.5 2.6 4 5.2 4.5 10.8-6.5-2.6-4.1-5.2-4.5-10.8zm-.8 7.8c-6.5-2.6-4.1-5.2-4.5-10.8 6.6 2.6 4.1 5.2 4.5 10.8zm-5.3-3.1c-6.2-2.4-3.8-5.4-4.2-10.6 6.3 2.4 3.8 5.4 4.2 10.6zm15.6 9c-6.2-2.4-3.8-5.4-4.2-10.6 6.3 2.4 3.8 5.4 4.2 10.6z" fill="#dad7bd"/><g fill="#8d8c7b"><path d="m217.1 232.5c-.4-.8-24.5-12.6-22.4-14.5.3.9 24.5 12.7 22.4 14.5z"/><path d="m217.1 242.3c-.4-.8-24.5-12.6-22.4-14.5.3.8 24.5 12.6 22.4 14.5z"/><path d="m196 218.8v10.5c-2.4.4-1-10.3-1.3-11.3z"/><path d="m201 221.7v10.5c-1.5.4-.6-10.5-.8-11z"/><path d="m206.3 224.8v10.5c-1.5.4-.6-10.5-.8-11z"/><path d="m211.5 227.8v10.5c-1.5.4-.6-10.5-.8-11z"/><path d="m217.1 231v10.5c-2.4.4-1-10.3-1.3-11.3z"/></g><path d="m217.1 231-22.4-13c.4-2.1 22.7 12.7 23.3 12.4z" fill="#e7e3d3"/><path d="m240.2 229.5c-3.6 1.4-1.1-35-1.8-35.8 3.6-1.5 1.2 35 1.8 35.8z" fill="#8d8c7b"/><path d="m240.2 229.5c3.6 1.4 1.1-35 1.8-35.8-3.5-1.5-1.1 35-1.8 35.8z" fill="#dad7bd"/><path d="m217.4 230.8v11.3l22.2-12.8v-.8-10.5l-5.3 3.1c-.4.1-15.2 11-15.6 11.3zm10.8 3.6-4.5 2.6c.4-5.6-2-8.2 4.5-10.8zm.8-8.7 4.4-2.6c-.4 5.6 2 8.2-4.4 10.8zm5.3-3.1 5.1-3c-.3 6.4 1.9 8.1-5.1 11.2zm-15.6 9 4.2-2.4c-.4 5.3 2 8.2-4.2 10.6z" fill="#8d8c7b"/><path d="m218.1 232.5c.4-.8 24.3-12.5 22.2-14.4-.5.9-24.4 12.6-22.2 14.4z" fill="#dad7bd"/><path d="m218.1 242.3c.4-.8 24.3-12.5 22.2-14.4-.5.9-24.3 12.5-22.2 14.4z" fill="#dad7bd"/><path d="m234.1 221.7v10.5c1.5.4.6-10.5.8-11z" fill="#dad7bd"/><path d="m228.9 224.8v10.5c1.5.4.6-10.5.8-11z" fill="#dad7bd"/><path d="m223.6 227.8v10.5c1.5.4.6-10.5.8-11z" fill="#dad7bd"/><path d="m218.1 231v10.5c2.4.2 1-7.9 1.3-9 0 0-1.3-1.5-1.3-1.5z" fill="#8d8c7b"/><path d="m218 231 22.2-12.8c-.5-2.1-22.4 12.6-23.1 12.3z" fill="#e7e3d3"/><path d="m217.6 242.6c-3.6 1.4-1.1-35-1.8-35.8 3.5-1.5 1.1 34.9 1.8 35.8z" fill="#8d8c7b"/><path d="m217.6 242.6c3.6 1.4 1.1-35 1.8-35.8-3.6-1.5-1.2 34.9-1.8 35.8z" fill="#dad7bd"/><path d="m297.2 185.4c-.4-.2-15.1-11.1-15.6-11.3l-5.3-3.1v10.5c-1.2 1.3 22.1 12.9 22.2 13.6 0-2.2 0-9.1 0-11.3zm-9.5-6.2c6.5 2.6 4 5.2 4.5 10.8-6.5-2.6-4.1-5.3-4.5-10.8zm-.8 7.7c-6.5-2.6-4-5.2-4.5-10.8 6.5 2.6 4.1 5.3 4.5 10.8zm-5.3-3c-6-2.3-3.5-5.6-4-10.5 6.1 2.3 3.5 5.5 4 10.5zm15.6 9c-6.2-2.4-3.8-5.4-4.2-10.6 6.2 2.3 3.7 5.3 4.2 10.6z" fill="#8d8c7b"/><path d="m297.8 185.6c-.4-.8-24.3-12.5-22.2-14.4.4.9 24.3 12.5 22.2 14.4z" fill="#dad7bd"/><path d="m297.8 195.3c-.4-.8-24.3-12.5-22.2-14.3.4.8 24.3 12.5 22.2 14.3z" fill="#dad7bd"/><path d="m277 172v10.5c-2.4.4-1-10.3-1.3-11.3z" fill="#dad7bd"/><path d="m281.8 174.8v10.5c-1.5.4-.6-10.5-.8-11z" fill="#dad7bd"/><path d="m287 177.8v10.5c-1.5.4-.6-10.5-.8-11z" fill="#dad7bd"/><path d="m292.3 180.8v10.5c-1.5.4-.6-10.5-.8-11z" fill="#dad7bd"/><path d="m297.8 184v10.5c-2.3.2-1-7.9-1.3-9 0 0 1.3-1.5 1.3-1.5z" fill="#8d8c7b"/><path d="m297.8 184-22.2-12.8c.5-2.1 22.4 12.6 23.1 12.3z" fill="#e7e3d3"/><path d="m298.3 195.6c3.4 1.3 1.2-28.1 1.8-29-3.4-1.3-1.2 28.1-1.8 29z" fill="#dad7bd"/><path d="m298.3 195.6c-3.6 1.4-1.1-35-1.8-35.8 3.6-1.4 1.1 35 1.8 35.8z" fill="#8d8c7b"/><path d="m275.4 197v11.3c.1-.7 23.7-12.3 22.4-13.7v-10.5l-5.5 3.2c1.8 3.4-14.1 7.8-15.6 9zm10.8 3.5-4.5 2.6c.4-5.6-2-8.2 4.5-10.8zm.8-8.7 4.5-2.6c-.4 5.6 2 8.2-4.5 10.8zm5.3-3 4.2-2.4c-.4 5.3 2 8.2-4.2 10.6zm-15.6 9 4.2-2.4c-.4 5.3 2 8.2-4.2 10.6z" fill="#8d8c7b"/><path d="m276.1 198.7c.4-.8 24.5-12.6 22.4-14.5-.4.8-24.5 12.6-22.4 14.5z" fill="#dad7bd"/><path d="m276.1 208.5c.4-.8 24.5-12.7 22.4-14.6-.4 1-24.6 12.6-22.4 14.6z" fill="#dad7bd"/><path d="m292.1 187.9v10.5c1.5.4.6-10.5.8-11z" fill="#dad7bd"/><path d="m286.9 190.9v10.5c1.5.4.6-10.5.8-11z" fill="#dad7bd"/><path d="m281.6 194v10.5c1.5.4.6-10.5.8-11z" fill="#dad7bd"/><path d="m276.1 197.2v10.5c2.4.4 1-10.3 1.3-11.3z" fill="#dad7bd"/><path d="m276.1 197.2 22-12.7c-.5-2.1-22.3 12.5-22.9 12.2z" fill="#e7e3d3"/><path d="m275.6 208.8c-3.6 1.4-1.1-35-1.8-35.8 3.6-1.4 1.1 35 1.8 35.8z" fill="#8d8c7b"/><path d="m275.6 208.8c3.6 1.4 1.1-35 1.8-35.8-3.6-1.4-1.1 35-1.8 35.8z" fill="#dad7bd"/><polygon fill="#8f9086"/><path d="m246.5 229.9v3.6c1.4-2 37.1-18.3 32.9-22.7z" fill="#958676"/><path d="m246.5 233.5c.4-4.4-.3-3.6-3.8-5.6-.4 4.1.3 4.1 3.8 5.6z" fill="#655c51"/><path d="m191 187.1 88.6-51.6-32.7-57.3-89.4 51z" fill="url(#k)"/><path d="m160.2 132.2-1.8-3.5-.9.5 1.7 3.5z" fill="#c94f53"/><path d="m160.2 132.2 88.3-51.1-1.6-2.9-88.5 50.5z" fill="#9d4c36"/><path d="m191 187.1c-3.5 1.6-32.1-53.9-34-54.6l-29.2 17.7c-3-2 29.3-20.1 29.6-21 .1 0 33.6 57.9 33.6 57.9z" fill="#743828"/><path d="m217.2 213.8 86.2-49.7-26.2-17.2-86.5 49.6z" fill="url(#l)"/><path d="m215.1 214.3c2.8 3.7 82.6-47.7 85-47.3v11.8l-82.5 46.8-26.9-27.2z" fill="#ccc" fill-opacity=".15"/><path d="m217.2 213.8v2c.1-1.9 89.4-48 86.2-51.7z" fill="#9d4c36"/><path d="m190.7 196.5c-2.8 2 26.2 18.4 26.5 19.3 2.8-2-26.2-18.4-26.5-19.3z" fill="#7f3e2c"/><path d="m232.9 176v11.9l-16-9.2v-6.5l4.7-2.7z" fill="url(#m)"/><path d="m232.9 176-4.1-2.3v11.9l4.1 2.3z" fill="#d5bba0"/><path d="m232.9 176v11.9l-16-9.2v-6.5l4.7-2.7z" fill="#b3b3b3" fill-opacity=".2"/><path d="m257.3 134.1-35.7-20.9v56.3l11.3 6.5z" fill="url(#n)"/><path d="m221.6 113.2c.7.5-1.4 57.1.7 56.6-.7-.8 1.3-56.3-.7-56.6z" fill="#9d4c36"/><path d="m221.6 117.3c-.7.4 1.3 53-.7 52.6v-53.7l.7-2.9z" fill="#9d4c36"/><path d="m254.9 136.8 1.8-3-35.1-20.5c-4.7 5 31.7 21.3 33.3 23.5z" fill="#9d4c36"/><path d="m257.3 134.1-1.7 3.1-.7-.4 1.8-3z" fill="#c94f53"/><path d="m266.2 144.9-8.9-10.8c-4.3 9-29.2 43-24.5 53.8l33.4-19.4z" fill="url(#o)"/><path d="m257.3 134.1-35.7-20.9v56.3l11.3 6.5z" fill="#ccc" fill-opacity=".15"/><path d="m248.1 153.3 8.9-5.1v15.5l-8.9 5.1z" fill="#dad7bd"/><path d="m247.8 168.7.3.2c-.3-.2.5-15.8-.3-15.7z" fill="#f0e9dd"/><path d="m255.8 150.6c-10.2 4.7-5.8 6.3-6.6 15.8 10.2-4.6 5.8-6.3 6.6-15.8z" fill="url(#p)"/><path d="m254.3 151.5v10.4c-.3.3-5.8 2.8-5.1 3.6l5.7-3.3v-11.1z" fill="#fefefe"/><path d="m249.9 159.4v.4c-.3-.1-.8-.3-.6-.7z" fill="#fff"/><path d="m255 156.5c.5.5-5 3.1-5.1 3.3-.6-.5 5-3.1 5.1-3.3z" fill="#a9a792"/><path d="m255 156.5c-.5.1-5.3 3.6-5.7 2.6.4-.1 5.2-3.6 5.7-2.6z" fill="#f6f5f0"/><path d="m253.4 157.4-.4.2c.1-.3-.3-5.8.4-5.6z" fill="#fefefe"/><path d="m252.4 157.2.6.4v-5.4c-1-.1-.4 4.6-.6 5z" fill="#c6c7c7"/><path d="m251.4 158.5-.4.2c.1-.2-.3-5.8.4-5.6z" fill="#fefefe"/><path d="m250.5 158.4.6.4v-5.4c-1.1-.2-.5 4.5-.6 5z" fill="#c6c7c7"/><path d="m256.7 148-8.9 5.1c.1.8 8.9-5 9.1-4.9z" fill="#e7e3d3"/><path d="m250.1 166.6v.4c-.2-.2-1.7-.7-1.4-1.2z" fill="#b2b1ad"/><path d="m256.3 163c.5.5-6.2 3.7-6.2 4-.5-.6 6.2-3.8 6.2-4z" fill="#adaca8"/><path d="m256.3 163c-1.2.3-6.5 4.9-7.6 2.8 1.2-.4 6.5-4.9 7.6-2.8z" fill="#edece7"/><path d="m255.8 162.7v-12.1c-1.6-.5-.6 11-.9 11.6.1 0 .9.5.9.5z" fill="#a9a792"/><path d="m255.8 150.6c-.1 1.6-5.5 4.1-6.6 4.8-1-1.2 6.3-4.3 6.6-4.8z" fill="#ccc"/><path d="m249.2 165.3c.2.5-.3.7-.7.9-.1-.5.3-.7.7-.9z" fill="#dad7bd"/><path d="m255 156.8c.1 1.7-4.7 3.5-5.7 4.2v-1.6c.3 1 5.2-2.5 5.7-2.6z" fill="#ccc"/><path d="m256.3 163.3c.2.7-7.2 4.5-7.6 4.8v-2.1c1.1 2.2 6.5-2.3 7.6-2.7z" fill="#b3b3b3"/><path d="m262.3 140.2v30.6l3.9-2.3v-23.7c0 .1-3.7-4.7-3.9-4.6z" fill="#d5bba0"/><path d="m236.9 169.1c-4.9 6-4.2 11.8-4.1 18.9l4.1-2.4z" fill="#d5bba0"/><path d="m257.3 134.1c1.2 1.9 10.6 11 8.9 13.7-.4-1.5-12.3-12.1-8.9-13.7z" fill="#9d4c36"/><path d="m232.9 176 23.4-40.1 1.2 1.3-22.6 38z" fill="#9d4c36"/><path d="m266.2 147.8v4.4l-8.9-11.1c-1.6 2-19.8 34.3-22.4 34l22.5-38z" fill="#d3d0d1" fill-opacity=".1"/></g><path d="m445.4 245.7c-5.3 1-24.6 3.7-28.4 7.7 0 0-44.7-1.9-44.7-1.9-9.6-4.5-33-14.8-43.1-17.2 0 0-3.1-10.4-3.1-10.4l-22-15.4 12.5-16 55-22.7-1-17.7z" fill="#ccc"/><path d="m506.7 157.2c-1.2-.5-2.3-1.2-2.1-2.6.9.5 2.1 1.5 2.1 2.6z"/><path d="m445.4 244c-3.5-57.5 4.8-60 31.3-107.5 0 0 28.5 18.8 28.5 18.8v53.7c-.1-.1-59.8 35-59.8 35z" fill="url(#q)"/><path d="m469.2 197.9-9.9 5.7v-17.3l9.9-5.7z" fill="#dad7bd"/><path d="m458.7 203.1.6.4c-.3-.3.7-18.1-.6-17.7z" fill="#e9e5d9"/><path d="m467.9 183.3-7.3 4.2v13.4l7.3-4.3z" fill="url(#r)"/><path d="m466.2 184.3v11.6c-.3.4-6.4 3.1-5.6 4l6.4-3.7v-12.3z" fill="#fefefe"/><path d="m461.3 193v.4c-.3-.1-.9-.3-.7-.8z" fill="#fff"/><path d="m466.9 189.8c.6.5-5.6 3.4-5.7 3.7-.5-.5 5.7-3.5 5.7-3.7z" fill="#a9a792"/><path d="m466.9 189.8c-.6.1-5.9 4-6.4 2.9.6-.1 6-4 6.4-2.9z" fill="#f6f5f0"/><path d="m465.2 190.8-.4.2c.1-.3-.3-6.4.4-6.2z" fill="#fefefe"/><path d="m464.1 190.7.6.4v-6c-1.1-.2-.4 5.1-.6 5.6z" fill="#c6c7c7"/><path d="m463 192.1-.4.2c.1-.3-.3-6.4.4-6.2z" fill="#fefefe"/><path d="m461.9 191.9.6.4v-6c-1.1-.1-.4 5.1-.6 5.6z" fill="#c6c7c7"/><path d="m468.5 180.2-9.9 5.7c.2 1.4 10.1-5.3 10.5-5.3z" fill="#e7e3d3"/><path d="m461.5 201v.4c-.2-.2-1.9-.8-1.5-1.3z" fill="#b2b1ad"/><path d="m468.5 197c.6.5-6.9 4.2-7 4.4-.6-.5 6.9-4.1 7-4.4z" fill="#adaca8"/><path d="m468.5 197c-1.3.4-7.3 5.4-8.5 3.1 1.3-.3 7.2-5.4 8.5-3.1z" fill="#edece7"/><path d="m467.9 196.7v-13.4c-1.8-.5-.7 12.3-1 12.9 0-.1 1 .5 1 .5z" fill="#a9a792"/><path d="m467.9 183.3c-.1 1.8-6.1 4.5-7.3 5.3-1.2-1.3 6.8-4.8 7.3-5.3z" fill="#ccc"/><path d="m466.9 190.2c.1 1.9-5.2 3.9-6.4 4.6v-1.7c.5 1.1 5.9-2.8 6.4-2.9z" fill="#ccc"/><path d="m468.5 197.4c.2.8-8 5-8.5 5.4v-2.3c1.2 2.4 7.2-2.7 8.5-3.1z" fill="#b3b3b3"/><path d="m449.6 182.1c-1.3 2.5 3.7 64.3-4.1 61.8.9-4.3-2.8-61.1 4.1-61.8z" fill="#d5bba0"/><path d="m505.1 155.8c-1.3 2.7 3.7 58.5-4.1 56.4v-60.6c.1.1 2.7 5.8 4.1 4.2z" fill="#d5bba0"/><path d="m478.3 144.2-32.8 53.7c-4.6-1.1 30.7-59.4 31.1-61.3l28.6 18.8v4.6z" fill="#d4d4d4"/><path d="m495 183.2-9.9 5.7v-17.3l9.9-5.7z" fill="#dad7bd"/><path d="m484.5 188.5.6.4c-.3-.3.7-18.1-.6-17.7z" fill="#e9e5d9"/><path d="m493.7 168.6-7.3 4.3v13.3l7.3-4.2z" fill="url(#s)"/><path d="m492 169.6v11.6c-.3.4-6.4 3.1-5.6 4l6.4-3.7v-12.3z" fill="#fefefe"/><path d="m487.1 178.4v.4c-.3-.1-.9-.3-.7-.8z" fill="#fff"/><path d="m492.8 175.1c.6.5-5.6 3.4-5.7 3.7-.6-.5 5.6-3.4 5.7-3.7z" fill="#a9a792"/><path d="m492.8 175.2c-.6.1-5.9 4-6.4 2.9.5-.2 5.9-4 6.4-2.9z" fill="#f6f5f0"/><path d="m491 176.2-.4.2c.1-.3-.3-6.4.4-6.2z" fill="#fefefe"/><path d="m490 176 .6.4v-6c-1.2-.1-.5 5.1-.6 5.6z" fill="#c6c7c7"/><path d="m488.8 177.4-.4.2c.1-.3-.3-6.4.4-6.2z" fill="#fefefe"/><path d="m487.8 177.3.6.4v-6c-1.2-.2-.5 5.1-.6 5.6z" fill="#c6c7c7"/><path d="m494.4 165.5-9.9 5.7c.2 1.4 10.1-5.3 10.5-5.3z" fill="#e7e3d3"/><path d="m487.4 186.4v.4c-.2-.2-1.9-.8-1.5-1.3z" fill="#b2b1ad"/><path d="m494.3 182.4c.6.5-6.9 4.2-7 4.4-.6-.6 6.9-4.2 7-4.4z" fill="#adaca8"/><path d="m494.3 182.4c-1.3.4-7.3 5.4-8.5 3.1 1.3-.4 7.3-5.4 8.5-3.1z" fill="#edece7"/><path d="m493.7 182.1v-13.4c-1.8-.5-.7 12.3-1 12.9.1-.1 1 .5 1 .5z" fill="#a9a792"/><path d="m493.7 168.6c-.1 1.8-6.1 4.5-7.3 5.3-1.2-1.3 6.9-4.7 7.3-5.3z" fill="#ccc"/><path d="m492.8 175.6c.1 1.9-5.2 3.9-6.4 4.6v-1.7c.4 1.1 5.8-2.8 6.4-2.9z" fill="#ccc"/><path d="m494.3 182.8c.2.8-8 5-8.5 5.4v-2.3c1.2 2.3 7.2-2.8 8.5-3.1z" fill="#b3b3b3"/><path d="m445.4 245.6.1-52.9-88.4-51.5v53.7z" fill="url(#t)"/><path d="m361.1 171.6-4-2.2v-28.2l4 2.2z" fill="#d5bba0"/><path d="m445.2 187.4c.1-.2.2-.3.3-.5v56.9s-4.1-2.3-4.1-2.3c.7-4.1-2.3-52.9 3.8-54.1z" fill="#d5bba0"/><path d="m445.5 196.8v-3.6l-88.4-51.4c-7 5 87.9 53 88.4 55z" fill="#bababa"/><path d="m445.4 241.4c.1-1.9 63-32.8 59.7-36.4l2.5 1.5-2.7 3.6-59.5 34.2z" fill="#a89785"/><path d="m445.4 244.3c-.2-2.8-93-48.2-88.3-53.6.2 2.7 93.1 48.2 88.3 53.6z" fill="#a89785"/><path d="m507.7 206.5c5 4.6-61.8 37.1-62.2 39.2v-3.3" fill="#958676"/><path d="m445.4 245.7c-.3-3-93.5-48-88.3-54 .3 3 93.6 48 88.3 54z" fill="#655c51"/><path d="m417 247.9v5.4l21.2-12.2c-.5-3.5 2.2-1.4 1.7-4.8z" fill="#958676"/><path d="m334.4 205.4 82.5 47.9c8.1-5.9-81.7-50.9-82.5-53.3z" fill="#655c51"/><path d="m358.9 215.9-3.8 2 32.9 19.1 3.8-2 25.2 14.6s22.9-13.3 22.9-13.3l-81.7-47.9-23.8 13.2z" fill="url(#u)"/><path d="m416.8 237.9v11.3c.1-.7 23.7-12.3 22.4-13.7v-10.5l-5.5 3.2c1.8 3.4-14.1 7.8-15.6 9zm10.8 3.5-4.5 2.6c.4-5.6-2-8.2 4.5-10.8zm.8-8.7 4.5-2.6c-.4 5.6 2 8.2-4.5 10.8zm5.3-3.1 4.2-2.4c-.4 5.3 2 8.2-4.2 10.6zm-15.6 9 4.2-2.4c-.4 5.3 2 8.2-4.2 10.6z" fill="#8d8c7b"/><g fill="#dad7bd"><path d="m417.5 239.6c.4-.8 24.5-12.6 22.4-14.5-.4.8-24.5 12.6-22.4 14.5z"/><path d="m417.5 249.3c.4-.8 24.5-12.6 22.4-14.5-.4.9-24.5 12.7-22.4 14.5z"/><path d="m438.5 225.8v10.5c2.4.4 1-10.3 1.3-11.3z"/><path d="m433.5 228.7v10.5c1.5.4.6-10.5.8-11z"/><path d="m428.3 231.8v10.5c1.5.4.6-10.5.8-11z"/><path d="m423 234.8v10.5c1.5.4.6-10.5.8-11z"/><path d="m417.5 238v10.5c2.4.4 1-10.3 1.3-11.3z"/></g><path d="m417.5 238 22.4-12.9c-.6-2.1-22.6 12.7-23.3 12.4z" fill="#e7e3d3"/><path d="m394.3 236.5c3.6 1.4 1.1-35 1.8-35.8-3.6-1.4-1.1 35-1.8 35.8z" fill="#dad7bd"/><path d="m394.3 236.5c-3.6 1.4-1.1-35-1.8-35.8 3.6-1.4 1.1 35 1.8 35.8z" fill="#8d8c7b"/><path d="m415.8 239.4c-.4-.2-15.1-11.1-15.6-11.3l-5.3-3.1v10.5.8s22.2 12.8 22.2 12.8c0-2.2 0-9.1 0-11.3zm-9.5-6.2c6.5 2.6 4 5.2 4.5 10.8-6.5-2.6-4.1-5.3-4.5-10.8zm-.8 7.7c-6.5-2.6-4-5.2-4.4-10.8 6.5 2.6 4 5.3 4.4 10.8zm-5.2-3c-7-3-4.8-4.8-5.1-11.2 7 3 4.8 4.8 5.1 11.2zm15.5 9c-6.2-2.4-3.8-5.4-4.2-10.6 6.3 2.4 3.7 5.2 4.2 10.6z" fill="#dad7bd"/><path d="m416.5 239.6c-.4-.8-24.3-12.5-22.2-14.4.4.8 24.3 12.5 22.2 14.4z" fill="#8d8c7b"/><path d="m416.5 249.3c-.4-.8-24.3-12.5-22.2-14.4.4.9 24.3 12.6 22.2 14.4z" fill="#8d8c7b"/><path d="m400.4 228.7v10.5c-1.5.4-.6-10.5-.8-11z" fill="#8d8c7b"/><path d="m405.7 231.8v10.5c-1.5.4-.6-10.5-.8-11z" fill="#8d8c7b"/><path d="m410.9 234.8v10.5c-1.5.4-.6-10.5-.8-11z" fill="#8d8c7b"/><path d="m416.5 238v10.5c-2.3.2-1-8-1.3-9-.1 0 1.3-1.5 1.3-1.5z" fill="#dad7bd"/><path d="m416.5 238-22.2-12.8c.5-2.1 22.4 12.6 23.1 12.3z" fill="#e7e3d3"/><path d="m417 249.6c3.6 1.4 1.1-35 1.8-35.8-3.6-1.4-1.2 35-1.8 35.8z" fill="#dad7bd"/><path d="m417 249.6c-3.6 1.4-1.1-35-1.8-35.8 3.5-1.4 1.1 35 1.8 35.8z" fill="#8d8c7b"/><path d="m336 190.9v11.3c.1-.7 23.4-12.2 22.2-13.6v-10.5l-5.3 3.1c-.4.1-15.2 11-15.6 11.3zm10.8 3.5-4.5 2.6c.4-5.6-2-8.2 4.5-10.8zm.9-8.7 4.5-2.6c-.4 5.6 2 8.2-4.5 10.8zm5.2-3 4-2.3c-.5 5 2 8.2-4 10.5zm-15.5 9 4.2-2.4c-.4 5.3 2 8.2-4.2 10.6z" fill="#dad7bd"/><path d="m336.7 192.6c.4-.8 24.3-12.5 22.2-14.4-.4.9-24.3 12.5-22.2 14.4z" fill="#8d8c7b"/><path d="m336.7 202.4c.4-.8 24.3-12.5 22.2-14.3-.4.8-24.3 12.4-22.2 14.3z" fill="#8d8c7b"/><path d="m357.6 179v10.5c2.4.4 1-10.3 1.3-11.3z" fill="#8d8c7b"/><path d="m352.8 181.8v10.5c1.5.4.6-10.5.8-11z" fill="#8d8c7b"/><path d="m347.5 184.8v10.5c1.5.4.6-10.5.8-11z" fill="#8d8c7b"/><path d="m342.2 187.9v10.5c1.5.4.6-10.5.8-11z" fill="#8d8c7b"/><path d="m336.7 191.1v10.5c2.3.2 1-7.9 1.3-9 0 0-1.3-1.5-1.3-1.5z" fill="#dad7bd"/><path d="m336.7 191.1 22.2-12.8c-.5-2.1-22.4 12.6-23.1 12.3z" fill="#e7e3d3"/><path d="m336.2 202.6c-3.4 1.3-1.2-28.1-1.8-29 3.4-1.2 1.3 28.1 1.8 29z" fill="#8d8c7b"/><path d="m336.2 202.6c3.6 1.4 1.1-35 1.8-35.8-3.6-1.4-1.1 35-1.8 35.8z" fill="#dad7bd"/><path d="m357.8 203.3c-1.5-1.2-17.3-5.5-15.6-9l-5.5-3.2v10.5c-1.2 1.4 22.4 13 22.4 13.7-.5-2.1 1.3-11.7-1.3-12zm-9.5-4c6.5 2.6 4.1 5.2 4.5 10.8-6.5-2.6-4.1-5.2-4.5-10.8zm-.8 7.8c-6.5-2.6-4-5.2-4.5-10.8 6.5 2.6 4.1 5.2 4.5 10.8zm-5.3-3.1c-6.2-2.4-3.8-5.4-4.2-10.6 6.3 2.4 3.8 5.4 4.2 10.6zm15.6 9c-6.2-2.4-3.8-5.4-4.2-10.6 6.2 2.4 3.7 5.4 4.2 10.6z" fill="#dad7bd"/><path d="m358.5 205.7c-.4-.8-24.5-12.6-22.4-14.5.3.9 24.5 12.7 22.4 14.5z" fill="#8d8c7b"/><path d="m358.5 215.6c-.4-.8-24.5-12.7-22.4-14.6.4.9 24.5 12.6 22.4 14.6z" fill="#8d8c7b"/><path d="m342.4 194.9v10.5c-1.5.4-.6-10.5-.8-11z" fill="#8d8c7b"/><path d="m347.7 198v10.5c-1.5.4-.6-10.5-.8-11z" fill="#8d8c7b"/><path d="m352.9 201v10.5c-1.5.4-.6-10.5-.8-11z" fill="#8d8c7b"/><path d="m358.5 204.2v10.5c-2.4.4-1-10.3-1.3-11.3z" fill="#8d8c7b"/><path d="m358.5 204.2-22-12.7c.5-2.1 22.2 12.5 22.9 12.2z" fill="#e7e3d3"/><path d="m358.9 215.9c3.6 1.4 1.1-35 1.8-35.8-3.6-1.5-1.1 35-1.8 35.8z" fill="#dad7bd"/><path d="m358.9 215.9c-3.6 1.4-1.1-35-1.8-35.8 3.6-1.5 1.1 35 1.8 35.8z" fill="#8d8c7b"/><path d="m388 236.9v3.6c-1.4-2-37.1-18.3-32.9-22.7z" fill="#655c51"/><path d="m388 240.6c-.4-4.4.3-3.6 3.8-5.6.4 4.1-.3 4-3.8 5.6z" fill="#958676"/><path d="m387.6 85.3 89.5 50.9-33.6 58-88.6-51.7z" fill="url(#v)"/><path d="m477.1 136.2-1.8 3.6-.9-.6 1.7-3.5z" fill="#c94f53"/><path d="m387.6 85.3 88.5 50.4-1.7 3.5-88.3-51z" fill="#9d4c36"/><path d="m443.5 194.2c3.5 1.6 32.1-53.9 34-54.6l29.2 17.7c3-2-29.3-20.1-29.6-21 0-.1-33.6 57.9-33.6 57.9z" fill="#87422f"/><path d="m357.3 153.9 86.6 49.6-26.6 17.4-86.2-49.8z" fill="url(#w)"/><path d="m419.5 221.3c-2.8 3.7-82.6-47.7-85-47.3v11.8l82.5 46.8 26.9-27.2z" fill="#ccc"/><path d="m417.3 220.9v2c-.1-1.9-89.4-48-86.2-51.7z" fill="#9d4c36"/><path d="m443.9 203.5c2.8 2-26.2 18.4-26.5 19.3-2.9-2 26.1-18.4 26.5-19.3z" fill="#7f3e2c"/><path d="m417.7 179.3-4.7-2.8-11.3 6.6v11.9l16-9.3z" fill="url(#x)"/><path d="m405.7 192.6-4 2.4v-11.9l4-2.4z" fill="#d5bba0"/><path d="m417.7 179.3-4.7-2.8-11.3 6.6v11.9l16-9.3z" fill="#b3b3b3"/><path d="m413 176.5-11.3 6.6-24.5-41.9 35.8-20.9z" fill="url(#y)"/><path d="m413 120.3c-.7.4 1.4 57.1-.7 56.6.6-.8-1.4-56.4.7-56.6z" fill="#9d4c36"/><path d="m413 124.3c.7.4-1.3 53 .7 52.6v-53.7l-.7-2.9z" fill="#9d4c36"/><path d="m379.6 143.8-1.8-3 35.1-20.5c4.7 5.1-31.6 21.3-33.3 23.5z" fill="#9d4c36"/><path d="m379.6 143.8-1.7-3-.7.4 1.8 3z" fill="#c94f53"/><path d="m368.3 151.9 8.9-10.8c4.3 9 29.2 43 24.5 53.8l-33.4-19.4z" fill="url(#z)"/><path d="m372.2 147.3v30.6s-3.9-2.3-3.9-2.3v-23.7c.1 0 3.8-4.7 3.9-4.6z" fill="#d5bba0"/><path d="m397.6 176.1c4.9 6 4.2 11.8 4.1 18.9l-4.1-2.4z" fill="#d5bba0"/><path d="m377.5 170.9 8.9 5.1v-15.6l-8.9-5.1z" fill="#dad7bd"/><path d="m386.7 175.8-.3.2c.3-.2-.5-15.8.3-15.7z" fill="#f0e9dd"/><path d="m378.6 157.7c10.2 4.7 5.8 6.3 6.6 15.8-10.1-4.6-5.7-6.2-6.6-15.8z" fill="url(#A)"/><path d="m380.2 158.6v10.4c.3.3 5.8 2.8 5.1 3.6l-5.7-3.3v-11.1z" fill="#fefefe"/><path d="m384.6 166.5v.4c.3-.1.8-.3.6-.7z" fill="#fff"/><path d="m379.5 163.6c-.5.5 5 3.1 5.1 3.3.5-.5-5-3.1-5.1-3.3z" fill="#a9a792"/><path d="m379.5 163.6c.5.1 5.3 3.6 5.7 2.6-.4-.1-5.3-3.6-5.7-2.6z" fill="#f6f5f0"/><path d="m381.1 164.5.4.2c-.1-.3.3-5.8-.4-5.6z" fill="#fefefe"/><path d="m382 164.4-.6.4v-5.4c1.1-.2.5 4.5.6 5z" fill="#c6c7c7"/><path d="m383.1 165.7.4.2c-.1-.2.3-5.8-.4-5.6z" fill="#fefefe"/><path d="m384 165.5-.6.4v-5.4c1.1-.2.5 4.6.6 5z" fill="#c6c7c7"/><path d="m377.8 155.1 8.9 5.1c-.1.8-8.9-5-9.1-4.9z" fill="#e7e3d3"/><path d="m384.4 173.7v.4c.2-.2 1.7-.7 1.4-1.2z" fill="#b2b1ad"/><path d="m378.1 170.1c-.5.5 6.2 3.7 6.2 4 .6-.5-6.1-3.8-6.2-4z" fill="#adaca8"/><path d="m378.1 170.1c1.2.3 6.5 4.9 7.6 2.8-1.1-.3-6.5-4.9-7.6-2.8z" fill="#edece7"/><path d="m378.6 169.8v-12.1c1.6-.5.6 11 .9 11.6 0 0-.9.5-.9.5z" fill="#a9a792"/><path d="m378.6 157.7c.1 1.6 5.5 4.1 6.6 4.8 1.1-1.2-6.2-4.3-6.6-4.8z" fill="#ccc"/><path d="m385.3 172.4c-.2.5.3.7.7.9.1-.4-.3-.7-.7-.9z" fill="#dad7bd"/><path d="m379.5 164c-.1 1.7 4.7 3.5 5.7 4.2v-1.6c-.4 1-5.2-2.5-5.7-2.6z" fill="#ccc"/><path d="m378.1 170.5c-.2.7 7.2 4.5 7.6 4.8v-2.1c-1 2.2-6.4-2.4-7.6-2.7z" fill="#b3b3b3"/><path d="m413 176.5-11.3 6.6-24.5-41.9 35.8-20.9z" fill="url(#B)"/><path d="m377.2 141.2c-1.2 1.9-10.6 11-8.9 13.7.4-1.5 12.4-12.1 8.9-13.7z" fill="#9d4c36"/><path d="m377.1 144.2 22.5 38 2.1.9-23.5-40.1z" fill="#9d4c36"/><path d="m368.3 154.8v4.4l8.9-11.1c1.6 2 19.8 34.3 22.4 34l-22.5-38z" fill="#d3d0d1"/><path d="m477.1 136.2-89.5-51-32.6 57.3c3.6.1 1.8 9.5 2.2 11.5-.5 1-28.7 16.9-26 19 0 0 3.3 1.9 3.3 1.9v30.4l21.1 12.2c-5.9 4.3 31.5 21 32.5 22.9s3.8-1.9 3.8-1.9 25.2 14.6 25.2 14.6l20.9-12 7.5 4.3c.2-3.2.1-47.6.1-52.1l-2 .6zm-139.1 40.9 10.6 6.1-10.6 6.1zm3.6 20.4-3.5 2v-5.6c.9.7 4.3 1.8 3.5 3.6zm0-4.1-3.1-1.8c0-.1 3-1.8 3.1-1.8zm5.2 1c-4.5 3-3.8-2.8-3.8-5.5 0 0 3.8-2.2 3.8-2.2zm5.3-3-3.8 2.2v-7.7c5.2-4.1 3.6 2.7 3.8 5.5zm4.8-2.8-3.3 1.9v-4.5c.3.4 3.9 1.8 3.3 2.6zm31.1 48.3s.4-.2.4-.2zm13.6-53.8-24.5-41.2 35.4-21.3.4 56z" fill="#b3b3b3"/></svg>